<svg xmlns="http://www.w3.org/2000/svg" viewBox="0 0 280 270.5"><title>Asset 1</title><path d="M140,53.5q4.521,0,8.955.24A65.655,65.655,0,0,0,140,53.5Z" fill="none" stroke="#00f7e5" stroke-miterlimit="10" stroke-width="3"/><path d="M131.045,53.74q4.433-.237,8.955-.24A65.655,65.655,0,0,0,131.045,53.74Z" fill="none" stroke="#00f7e5" stroke-miterlimit="10" stroke-width="3"/><path d="M86.146,41.924c-.217-.185-.424-.364-.646-.553l.437.648Z" fill="none" stroke="#000" stroke-linecap="round" stroke-linejoin="round" stroke-width="2"/><path d="M69,52.436h0S63,32.5,34,2.5c-7.289,37.107-7.771,82.816-7.267,109.439C33.329,96.893,41.158,78.342,51,68.5A184.783,184.783,0,0,1,69,52.436Z" fill="none" stroke="#00f7e5" stroke-linecap="round" stroke-linejoin="round" stroke-width="5"/><path d="M39.06,6C55.878,17.943,85.41,41.3,85.5,41.367,75.3,32.685,60.221,20.744,39.06,6Z" fill="none" stroke="#000" stroke-linecap="round" stroke-linejoin="round" stroke-width="2"/><path d="M194.5,41.37s36.151-28.593,51.28-38.721c-.01-.05-.019-.1-.028-.149-24.264,16.652-41.082,29.962-52.061,39.351l.372.168Z" fill="none" stroke="#000" stroke-linecap="round" stroke-linejoin="round" stroke-width="2"/><path d="M211,52.436A184.783,184.783,0,0,1,229,68.5c9.724,9.724,17.483,27.949,24.029,42.9.486-26.647-.037-71.865-7.236-108.68C216.976,32.6,211,52.436,211,52.436Z" fill="none" stroke="#00f7e5" stroke-linecap="round" stroke-linejoin="round" stroke-width="5"/><path d="M252.719,150.5c-4.074,51.138-52.979,77-112.719,77s-108.645-25.862-112.719-77H23s-30,44-18,77,52,38,52,38-16.807-12.037-19-23c-2-10,0-11,0-11s15,39,102,39,102-39,102-39,3,2,0,11c-3.536,10.607-19,23-19,23s40-5,52-38-18-77-18-77Z" fill="#00f7e5"/><path d="M86.861,74.223l5.107-5.152A51.6,51.6,0,0,0,86.861,74.223Z" fill="none" stroke="#00f7e5" stroke-linecap="round" stroke-linejoin="round" stroke-width="3"/><path d="M186.442,67.718l8.058,8.129h0A51.6,51.6,0,0,0,186.442,67.718Z" fill="none" stroke="#00f7e5" stroke-linecap="round" stroke-linejoin="round" stroke-width="3"/><path d="M118.788,131.961c.2.337.376.645.521.926-1.681-3.651-6.555-12.7-15.721-18.447A47.25,47.25,0,0,1,118.788,131.961Z" fill="none" stroke="#00f7e5" stroke-linecap="round" stroke-linejoin="round" stroke-width="3"/><path d="M101.62,119.792a17.006,17.006,0,1,1-29.116-3.6,109.239,109.239,0,0,0-13.922,2.073c-1.626,2.6-3.258,5.143-4.894,7.588C57.88,131.855,66.979,142.1,81,143.5c20,2,39-9,39-9-.381-.871-.791-1.711-1.212-2.539C116.885,128.821,112.239,123.449,101.62,119.792Z" fill="none" stroke="#00f7e5" stroke-linecap="round" stroke-linejoin="round" stroke-width="3"/><path d="M61.142,114.122c1.678-.6,3.234-1.159,4.7-1.672A47.656,47.656,0,0,0,61.142,114.122Z" fill="none" stroke="#00f7e5" stroke-linecap="round" stroke-linejoin="round" stroke-width="3"/><path d="M86,143.5a17,17,0,0,0,15.62-23.708A70.5,70.5,0,0,0,86,116.5a77.526,77.526,0,0,0-13.5-.308A16.978,16.978,0,0,0,86,143.5Z" fill="#00f7e5"/><path d="M176.412,114.44c-9.166,5.745-14.039,14.794-15.721,18.446.145-.28.317-.589.521-.925A47.25,47.25,0,0,1,176.412,114.44Z" fill="none" stroke="#00f7e5" stroke-linecap="round" stroke-linejoin="round" stroke-width="3"/><path d="M207.5,116.192a16.99,16.99,0,1,1-29.116,3.6c-10.619,3.657-15.265,9.029-17.168,12.169-.421.828-.831,1.668-1.212,2.539,0,0,19,11,39,9,14.021-1.4,23.12-11.645,27.312-17.647-1.636-2.445-3.268-4.987-4.894-7.588A109.239,109.239,0,0,0,207.5,116.192Z" fill="none" stroke="#00f7e5" stroke-linecap="round" stroke-linejoin="round" stroke-width="3"/><path d="M214.158,112.45c1.466.513,3.022,1.069,4.7,1.672A47.749,47.749,0,0,0,214.158,112.45Z" fill="none" stroke="#00f7e5" stroke-linecap="round" stroke-linejoin="round" stroke-width="3"/><path d="M194,116.5a70.5,70.5,0,0,0-15.62,3.292,17.006,17.006,0,1,0,29.116-3.6A77.526,77.526,0,0,0,194,116.5Z" fill="#00f7e5"/><polygon points="85.5 41.37 85.496 41.367 85.5 41.371 85.5 41.37" fill="none" stroke="#000" stroke-linecap="round" stroke-linejoin="round" stroke-width="2"/><path d="M69,52.436A87.711,87.711,0,0,1,85.937,42.019l-.437-.648,0,0C85.41,41.3,55.878,17.943,39.06,6,37.408,4.85,35.727,3.685,34,2.5c29,30,35,49.936,35,49.936Z" fill="none" stroke="#00f7e5" stroke-linecap="round" stroke-linejoin="round" stroke-width="2"/><path d="M194.063,42.019A87.711,87.711,0,0,1,211,52.436h0S216.976,32.6,245.793,2.717l-.013-.068C230.651,12.777,194.5,41.37,194.5,41.37Z" fill="none" stroke="#00f7e5" stroke-linecap="round" stroke-linejoin="round" stroke-width="2"/><path d="M266,134.5c-3.852-2.568-8.072-11.92-12.971-23.1C246.483,96.449,238.724,78.224,229,68.5a184.783,184.783,0,0,0-18-16.064,87.711,87.711,0,0,0-16.936-10.417l-.372-.168C184.339,37.7,174.584,36.167,165,39.5c-23,8-25,14-25,14a65.655,65.655,0,0,1,8.955.24c9.522.823,24.908,3.805,37.487,13.978a51.6,51.6,0,0,1,8.058,8.129h0c7.688,9.719,15.92,24.466,24.359,38.275h0a35.809,35.809,0,0,0,15.879,2.317,22.636,22.636,0,0,0,12.06-4.779A13.938,13.938,0,0,0,249,109.5a20.436,20.436,0,0,1-2,2.634,21.875,21.875,0,0,1-9.957,6.631A17.654,17.654,0,0,1,232,119.5a40.753,40.753,0,0,1-4.913-.312c-1.889-.227-3.752-.559-5.669-.923,1.626,2.6,3.258,5.143,4.894,7.588,8.818,13.179,17.751,23.486,26.429,24.343a11.4,11.4,0,0,0,5.259-.7c21-8,22-36,22-36S275,140.5,266,134.5Z" fill="#00f7e5"/><path d="M115,39.5c-9.639-3.353-19.452-1.777-28.854,2.424l-.209.095A87.711,87.711,0,0,0,69,52.436,184.783,184.783,0,0,0,51,68.5c-9.842,9.842-17.671,28.393-24.267,43.439C21.936,122.881,17.789,131.974,14,134.5c-9,6-14-21-14-21s1,28,22,36a11.4,11.4,0,0,0,5.259.7c8.678-.857,17.611-11.164,26.429-24.343,1.636-2.445,3.268-4.987,4.894-7.588-1.917.364-3.78.7-5.669.923A40.753,40.753,0,0,1,48,119.5a17.677,17.677,0,0,1-5.233-.793A21.955,21.955,0,0,1,33,112.134a20.436,20.436,0,0,1-2-2.634,13.938,13.938,0,0,0,2.2,2.161,22.583,22.583,0,0,0,11.833,4.758,35.66,35.66,0,0,0,16.106-2.3h0C69.58,100.313,77.812,85.566,85.5,75.847c.443-.56.9-1.091,1.361-1.624a51.6,51.6,0,0,1,5.107-5.152C104.817,57.814,121.117,54.6,131.045,53.74A65.655,65.655,0,0,1,140,53.5S138,47.5,115,39.5Z" fill="#00f7e5"/><path d="M103.588,114.44A33.254,33.254,0,0,0,89,108.5c-7.825-.87-13.388.532-23.158,3.95A79.974,79.974,0,0,1,83,109.5,33.237,33.237,0,0,1,103.588,114.44Z" fill="none" stroke="#00f7e5" stroke-linecap="round" stroke-linejoin="round" stroke-width="3"/><path d="M119.309,132.887c.464,1.007.691,1.613.691,1.613A9.6,9.6,0,0,0,119.309,132.887Z" fill="none" stroke="#00f7e5" stroke-linecap="round" stroke-linejoin="round" stroke-width="3"/><polygon points="61.142 114.122 61.141 114.122 61.141 114.123 61.142 114.122" fill="none" stroke="#00f7e5" stroke-linecap="round" stroke-linejoin="round" stroke-width="3"/><path d="M120,134.5s-.227-.606-.691-1.613c-.145-.281-.317-.589-.521-.926C119.209,132.789,119.619,133.629,120,134.5Z" fill="none" stroke="#00f7e5" stroke-linecap="round" stroke-linejoin="round" stroke-width="3"/><path d="M31,109.5a20.436,20.436,0,0,0,2,2.634c.065-.159.135-.315.2-.473A13.938,13.938,0,0,1,31,109.5Z" fill="none" stroke="#00f7e5" stroke-linecap="round" stroke-linejoin="round" stroke-width="3"/><path d="M103.588,114.44A33.237,33.237,0,0,0,83,109.5a79.974,79.974,0,0,0-17.158,2.95c-1.466.513-3.022,1.069-4.7,1.672h0a35.66,35.66,0,0,1-16.106,2.3A22.583,22.583,0,0,1,33.2,111.661c-.066.158-.136.314-.2.473a21.955,21.955,0,0,0,9.766,6.573A17.677,17.677,0,0,0,48,119.5a40.753,40.753,0,0,0,4.913-.312c1.889-.227,3.752-.559,5.669-.923A109.239,109.239,0,0,1,72.5,116.192,77.526,77.526,0,0,1,86,116.5a70.5,70.5,0,0,1,15.62,3.292c10.619,3.657,15.265,9.029,17.168,12.169A47.25,47.25,0,0,0,103.588,114.44Z" fill="#171738"/><path d="M160,134.5s.227-.606.691-1.614A9.625,9.625,0,0,0,160,134.5Z" fill="none" stroke="#00f7e5" stroke-linecap="round" stroke-linejoin="round" stroke-width="3"/><path d="M197,109.5a79.974,79.974,0,0,1,17.158,2.95c-9.77-3.418-15.333-4.82-23.158-3.95a33.254,33.254,0,0,0-14.588,5.94A33.237,33.237,0,0,1,197,109.5Z" fill="none" stroke="#00f7e5" stroke-linecap="round" stroke-linejoin="round" stroke-width="3"/><polygon points="218.859 114.122 218.858 114.122 218.859 114.123 218.859 114.122" fill="none" stroke="#00f7e5" stroke-linecap="round" stroke-linejoin="round" stroke-width="3"/><path d="M160.691,132.886c-.464,1.008-.691,1.614-.691,1.614.381-.871.791-1.711,1.212-2.539C161.008,132.3,160.836,132.606,160.691,132.886Z" fill="none" stroke="#00f7e5" stroke-linecap="round" stroke-linejoin="round" stroke-width="3"/><path d="M249,109.5a13.938,13.938,0,0,1-2.2,2.161c.066.158.136.314.2.473A20.436,20.436,0,0,0,249,109.5Z" fill="none" stroke="#00f7e5" stroke-linecap="round" stroke-linejoin="round" stroke-width="3"/><path d="M246.8,111.661a22.636,22.636,0,0,1-12.06,4.779,35.809,35.809,0,0,1-15.879-2.317h0c-1.678-.6-3.234-1.159-4.7-1.672A79.974,79.974,0,0,0,197,109.5a33.237,33.237,0,0,0-20.588,4.94,47.25,47.25,0,0,0-15.2,17.521c1.9-3.14,6.549-8.512,17.168-12.169A70.5,70.5,0,0,1,194,116.5a77.526,77.526,0,0,1,13.5-.308,109.239,109.239,0,0,1,13.922,2.073c1.917.364,3.78.7,5.669.923A40.753,40.753,0,0,0,232,119.5a17.654,17.654,0,0,0,5.042-.735A21.875,21.875,0,0,0,247,112.134C246.934,111.975,246.864,111.819,246.8,111.661Z" fill="#171738"/><path d="M226.312,125.853c-4.192,6-13.291,16.245-27.312,17.647-20,2-39-9-39-9a9.625,9.625,0,0,1,.691-1.614c1.682-3.652,6.555-12.7,15.721-18.446A33.254,33.254,0,0,1,191,108.5c7.825-.87,13.388.532,23.158,3.95a47.749,47.749,0,0,1,4.7,1.672h0c-8.439-13.809-16.671-28.556-24.359-38.275l-8.058-8.129c-12.579-10.173-27.965-13.155-37.487-13.978Q144.522,53.5,140,53.5t-8.955.24c-9.928.859-26.228,4.074-39.077,15.331l-5.107,5.152c-.459.533-.918,1.064-1.361,1.624-7.688,9.719-15.92,24.466-24.359,38.275h0a47.656,47.656,0,0,1,4.7-1.672c9.77-3.418,15.333-4.82,23.158-3.95a33.254,33.254,0,0,1,14.588,5.94c9.166,5.745,14.04,14.8,15.721,18.447A9.6,9.6,0,0,1,120,134.5s-19,11-39,9c-14.021-1.4-23.12-11.645-27.312-17.647C44.87,139.032,35.937,149.339,27.259,150.2c.008.1.014.2.022.3,4.074,51.138,52.979,77,112.719,77s108.645-25.862,112.719-77c.008-.1.014-.2.022-.3C244.063,149.339,235.13,139.032,226.312,125.853Z" fill="none" stroke="#00f7e5" stroke-miterlimit="10"/><circle cx="194.25" cy="126.75" r="6.25" fill="#171738"/><circle cx="86.25" cy="126.75" r="6.25" fill="#171738"/></svg>