<svg xmlns="http://www.w3.org/2000/svg" viewBox="0 0 255.51 202.049"><title>blogs-light-2</title><path d="M233.993,19.047,34.4,1.585A21.926,21.926,0,0,0,10.647,21.517L1.585,125.1a21.927,21.927,0,0,0,19.932,23.755l136.637,11.954c-6.308,33.179-72.461,30.213-72.461,30.213s53.646,20.934,93.386.747A46.387,46.387,0,0,0,202.5,164.686l18.613,1.629a21.927,21.927,0,0,0,23.754-19.932L253.925,42.8A21.925,21.925,0,0,0,233.993,19.047Z" fill="none" stroke="#5e7ce2" stroke-linecap="round" stroke-linejoin="round" stroke-width="3"/><path d="M44.216,48.733,42.961,63.072,36.376,62.5l3.1-35.47,15.214,1.331a9.64,9.64,0,0,1,8.785,10.47l-.135,1.542a9.64,9.64,0,0,1-10.469,8.786L51.082,49,61.843,64.724l-7.544-.66Zm1.3-14.92-.733,8.376,7.587.665c2.959.258,4.431-1.208,4.657-3.792.22-2.5-1.007-4.331-3.924-4.586Z" fill="#5e7ce2"/><path d="M82.2,61.044l-9.546-.835-1.767,5.306-6.293-.55L76.782,30.29l6.794.594,5.649,36.235-6.252-.547Zm-7.836-5.977,7.086.621L79.424,40.9l-.332-.03Z" fill="#5e7ce2"/><path d="M102.05,44.848l-2.031,23.216-6.335-.554,3.1-35.47,6.335.554,10,24.478,2.049-23.424,6.211.543-3.1,35.47-6.211-.543Z" fill="#5e7ce2"/><path d="M126.213,34.614l16.171,1.415c4.668.409,8.052,4.947,7.6,10.115l-1.462,16.713c-.453,5.168-4.573,9.05-9.241,8.642l-16.172-1.415Zm12.057,30.2a3.755,3.755,0,0,0,3.886-3.608l1.276-14.588a3.782,3.782,0,0,0-3.2-4.227l-8.084-.707-1.962,22.423Z" fill="#5e7ce2"/><path d="M169.768,38.425a10.338,10.338,0,0,1,9.39,11.237L177.86,64.5a10.33,10.33,0,0,1-11.2,9.395l-4.044-.354a10.356,10.356,0,0,1-9.393-11.195l1.3-14.839a10.365,10.365,0,0,1,11.2-9.436Zm2.984,11.013c.215-2.459-1.149-4.637-3.566-4.848l-3.96-.347c-2.417-.212-4.137,1.7-4.352,4.155l-1.237,14.13c-.214,2.458,1.149,4.636,3.566,4.848l3.96.346c2.417.212,4.137-1.7,4.352-4.155Z" fill="#5e7ce2"/><path d="M195.95,66.545l.334.029c2.618-8.339,5.329-16.754,7.948-25.093l7.461.653-3.1,35.429-5.126-.449,2.016-23.049-.333-.029c-2.255,7.53-4.85,15.115-7.143,22.6l-5.714-.458L189.47,52.748l-.332-.029-2.009,22.966-5.169-.453,3.1-35.428,7.461.653Z" fill="#5e7ce2"/><path d="M22.111,82.5l-9.086-.8.572-6.544,24.591,2.152-.572,6.544-9.169-.8-2.53,28.926-6.336-.555Z" fill="#5e7ce2"/><path d="M62.969,115.221l-6.586-.576,1.294-14.8-11.378-1-1.294,14.8-6.627-.58L41.48,77.6l6.627.58L46.816,92.934l11.379,1,1.291-14.755,6.586.576Z" fill="#5e7ce2"/><path d="M85.119,81.416a10.337,10.337,0,0,1,9.389,11.237l-1.3,14.839a10.33,10.33,0,0,1-11.195,9.395l-4.044-.354a10.356,10.356,0,0,1-9.393-11.2l1.3-14.839a10.364,10.364,0,0,1,11.2-9.435ZM88.1,92.43c.216-2.46-1.147-4.637-3.564-4.848l-3.96-.347c-2.417-.212-4.138,1.7-4.354,4.156L74.989,105.52c-.216,2.459,1.147,4.636,3.564,4.847l3.96.347c2.417.212,4.138-1.7,4.353-4.155Z" fill="#5e7ce2"/><path d="M122.845,110.085a10.294,10.294,0,0,1-11.154,9.4l-4.043-.354a10.391,10.391,0,0,1-9.435-11.2l2.2-25.175,6.419.561-2.169,24.8A4.472,4.472,0,0,0,108.647,113l3.083.271a4.477,4.477,0,0,0,4.771-4.12l2.17-24.8,6.377.558Z" fill="#5e7ce2"/><path d="M145.846,113.105l.515-5.876-5.918-.518.484-5.544,11.879,1.039L151,122.922l-5.961-.522.1-1.126a10.948,10.948,0,0,1-4.849.71l-3.584-.313a10.358,10.358,0,0,1-9.4-11.2l1.3-14.838A10.368,10.368,0,0,1,139.8,86.2l4.459.391c5.419.473,8.935,4.939,8.971,10.276l-6.419-.561c-.255-1.87-1.091-3.371-3.133-3.55l-4.375-.383c-2.418-.211-4.222,1.689-4.438,4.148L133.63,110.65c-.215,2.459,1.232,4.644,3.65,4.856l4.584.4A3.74,3.74,0,0,0,145.846,113.105Z" fill="#5e7ce2"/><path d="M180.3,125.485l-6.586-.576,1.294-14.8-11.379-.995-1.294,14.8-6.627-.579,3.1-35.471,6.627.58L164.142,103.2l11.379,1,1.291-14.754,6.586.576Z" fill="#5e7ce2"/><path d="M195.328,97.652l-9.085-.8.572-6.543,24.591,2.151-.572,6.544-9.17-.8-2.531,28.926-6.335-.554Z" fill="#5e7ce2"/><path d="M229.483,107.612c5.919.519,9.883,5.612,9.315,12.114-.537,6.127-4.9,10.448-10.7,9.941l-16.172-1.414.577-6.586,14.3,1.25c2.834.248,5.286-.881,5.538-3.757.236-2.709-1.668-4.471-4.293-4.7l-4.21-.368c-7.086-.62-11.45-4.027-10.8-11.4.46-5.252,4.542-9.683,10.128-9.2l14.671,1.284-.606,6.919-11.962-1.047c-2.709-.237-4.917.033-5.175,2.992a3.077,3.077,0,0,0,3.019,3.414Z" fill="#5e7ce2"/></svg>