<svg xmlns="http://www.w3.org/2000/svg" viewBox="0 0 276.499 216.524"><title>blogs-light</title><path d="M248.392,4H28.108A24.108,24.108,0,0,0,4,28.108V142.427a24.108,24.108,0,0,0,24.108,24.108h150.8c-3.731,36.945-76.471,40.036-76.471,40.036S163.2,224.359,204.8,198.44a51,51,0,0,0,23.053-31.9h20.543A24.107,24.107,0,0,0,272.5,142.428V28.108A24.107,24.107,0,0,0,248.392,4Z" fill="none" stroke="#5e7ce2" stroke-linecap="round" stroke-linejoin="round" stroke-width="8"/><path d="M43.377,54.7V70.527H36.108V31.375H52.9A10.6,10.6,0,0,1,63.527,42v1.7A10.6,10.6,0,0,1,52.9,54.332H50.922l13.3,16.2H55.89Zm0-16.47v9.247H51.75c3.266,0,4.738-1.748,4.738-4.6,0-2.76-1.518-4.646-4.738-4.646Z" fill="#5e7ce2"/><path d="M86.158,64.545H75.623L74.2,70.527H67.25L77.278,31.375h7.5l9.661,39.152h-6.9ZM77,58.749h7.82l-3.634-16.01h-.368Z" fill="#5e7ce2"/><path d="M106.35,44.9V70.527H99.357V31.375h6.993l13.3,25.856V31.375H126.5V70.527h-6.856Z" fill="#5e7ce2"/><path d="M131.833,31.375h17.849c5.154,0,9.294,4.647,9.294,10.352V60.175c0,5.7-4.14,10.352-9.294,10.352H131.833Zm16.1,31.928a4.129,4.129,0,0,0,3.911-4.324v-16.1a4.159,4.159,0,0,0-3.911-4.324h-8.925V63.3Z" fill="#5e7ce2"/><path d="M179.9,31.375a11.369,11.369,0,0,1,11.363,11.41V59.162A11.359,11.359,0,0,1,179.9,70.527h-4.462a11.389,11.389,0,0,1-11.363-11.365V42.785a11.4,11.4,0,0,1,11.363-11.41Zm4.325,11.778c0-2.714-1.7-4.968-4.371-4.968h-4.37c-2.668,0-4.37,2.254-4.37,4.968v15.6c0,2.714,1.7,4.968,4.37,4.968h4.37c2.669,0,4.371-2.254,4.371-4.968Z" fill="#5e7ce2"/><path d="M211.276,59.669h.368c2.071-9.385,4.233-18.862,6.3-28.247h8.235V70.527h-5.659V45.085h-.367c-1.749,8.465-3.865,17.023-5.659,25.442l-6.3.046-5.337-25.4h-.367v25.35h-5.705V31.422h8.235Z" fill="#5e7ce2"/><path d="M22.4,93.8H12.372V86.576H39.515V93.8H29.394v31.928H22.4Z" fill="#5e7ce2"/><path d="M70.289,125.727H63.02V109.4H50.461v16.332H43.145V86.576h7.316v16.286H63.02V86.576h7.269Z" fill="#5e7ce2"/><path d="M91.309,86.576a11.369,11.369,0,0,1,11.364,11.41v16.378a11.36,11.36,0,0,1-11.364,11.363H86.847a11.389,11.389,0,0,1-11.363-11.363V97.986a11.4,11.4,0,0,1,11.363-11.41Zm4.325,11.777c0-2.714-1.7-4.968-4.371-4.968h-4.37c-2.668,0-4.37,2.254-4.37,4.968v15.6c0,2.713,1.7,4.967,4.37,4.967h4.37c2.669,0,4.371-2.254,4.371-4.967Z" fill="#5e7ce2"/><path d="M135.38,114.364a11.32,11.32,0,0,1-11.318,11.363H119.6a11.428,11.428,0,0,1-11.409-11.363V86.576h7.085V113.95a4.919,4.919,0,0,0,4.83,4.967h3.4a4.92,4.92,0,0,0,4.832-4.967V86.576h7.039Z" fill="#5e7ce2"/><path d="M160.862,115.467v-6.486h-6.533v-6.119h13.112v22.865h-6.579v-1.242a12.06,12.06,0,0,1-5.244,1.242h-3.957A11.388,11.388,0,0,1,140.3,114.364V97.986a11.4,11.4,0,0,1,11.363-11.41h4.923c5.98,0,10.258,4.554,10.811,10.4H160.31c-.46-2.024-1.518-3.588-3.772-3.588h-4.831c-2.668,0-4.462,2.254-4.462,4.968v15.6c0,2.713,1.794,4.967,4.462,4.967h5.06A4.114,4.114,0,0,0,160.862,115.467Z" fill="#5e7ce2"/><path d="M199.778,125.727h-7.269V109.4H179.95v16.332h-7.316V86.576h7.316v16.286h12.559V86.576h7.269Z" fill="#5e7ce2"/><path d="M213.576,93.8H203.547V86.576H230.69V93.8H220.569v31.928h-6.993Z" fill="#5e7ce2"/><path d="M251.94,101.436c6.533,0,11.363,5.2,11.363,12.375,0,6.763-4.37,11.916-10.764,11.916H234.688v-7.27h15.78c3.128,0,5.705-1.471,5.705-4.646,0-2.99-2.254-4.738-5.153-4.738h-4.646c-7.821,0-12.928-3.313-12.928-11.455,0-5.8,4.049-11.042,10.214-11.042h16.193v7.637h-13.2c-2.99,0-5.383.506-5.383,3.773a3.385,3.385,0,0,0,3.635,3.45Z" fill="#5e7ce2"/></svg>