<svg xmlns="http://www.w3.org/2000/svg" viewBox="0 0 261.883 208.821"><title>blogs-dark-3</title><path d="M230.593,18.79,33.92,1.584a21.606,21.606,0,0,0-23.407,19.64L1.584,123.291A21.606,21.606,0,0,0,21.224,146.7l134.64,11.779c-6.217,32.694-71.4,29.771-71.4,29.771s52.862,20.628,92.02.736A45.705,45.705,0,0,0,199.557,162.3l18.34,1.6A21.606,21.606,0,0,0,241.3,144.264L250.234,42.2A21.606,21.606,0,0,0,230.593,18.79Z" fill="none" stroke="#00f7e5" stroke-linecap="round" stroke-linejoin="round" stroke-width="3"/><path d="M248.908,31.69a21.518,21.518,0,0,1,1.71,10.507l-8.93,102.067a21.607,21.607,0,0,1-23.407,19.641l-18.341-1.6a45.707,45.707,0,0,1-23.074,26.684c-15.889,8.071-34.032,9.471-49.986,8.285a160.1,160.1,0,0,1-30.852,2.161s52.861,20.629,92.02.737a45.711,45.711,0,0,0,23.074-26.685l18.341,1.6a21.606,21.606,0,0,0,23.407-19.641L261.8,53.379A21.611,21.611,0,0,0,248.908,31.69Z" fill="#00f7e5"/><path d="M21.608,146.7a21.576,21.576,0,0,1-6.749-1.718,21.6,21.6,0,0,0,17.931,12.9l119.218,10.43a24.5,24.5,0,0,0,4.239-9.833Z" fill="#00f7e5"/><path d="M43.591,48.042,42.356,62.171l-6.49-.569L38.924,26.65l14.991,1.312a9.5,9.5,0,0,1,8.657,10.317L62.44,39.8a9.5,9.5,0,0,1-10.318,8.658L50.356,48.3l10.6,15.5-7.434-.651Zm1.287-14.7-.723,8.256,7.475.654c2.917.255,4.367-1.19,4.59-3.737.216-2.464-.991-4.267-3.867-4.519Z" fill="#00f7e5"/><path d="M81.018,60.172l-9.406-.823-1.74,5.229-6.2-.543L75.682,29.866l6.695.585,5.566,35.708-6.16-.539Zm-7.72-5.89,6.982.611-2-14.577-.329-.028Z" fill="#00f7e5"/><path d="M100.579,44.212l-2,22.877-6.242-.546,3.058-34.952,6.242.546,9.85,24.121,2.02-23.083,6.12.536-3.058,34.952-6.12-.535Z" fill="#00f7e5"/><path d="M124.388,34.127l15.936,1.394c4.6.4,7.934,4.874,7.489,9.967l-1.442,16.471c-.445,5.093-4.5,8.917-9.1,8.515L121.33,69.08ZM136.27,63.889a3.7,3.7,0,0,0,3.828-3.556l1.258-14.375a3.726,3.726,0,0,0-3.153-4.166l-7.969-.7-1.933,22.1Z" fill="#00f7e5"/><path d="M167.307,37.882a10.187,10.187,0,0,1,9.254,11.073l-1.28,14.622a10.179,10.179,0,0,1-11.032,9.258l-3.983-.349a10.206,10.206,0,0,1-9.258-11.032l1.279-14.623a10.215,10.215,0,0,1,11.036-9.3Zm2.94,10.852c.212-2.423-1.132-4.569-3.513-4.777l-3.9-.342c-2.383-.208-4.078,1.672-4.29,4.095l-1.218,13.924c-.213,2.423,1.131,4.568,3.514,4.777l3.9.341c2.381.208,4.076-1.671,4.289-4.094Z" fill="#00f7e5"/><path d="M193.106,65.592l.33.028c2.58-8.217,5.252-16.509,7.833-24.726l7.351.644-3.054,34.911-5.051-.441L202.5,53.294l-.329-.028c-2.222,7.42-4.779,14.894-7.038,22.271l-5.631-.452L186.722,52l-.328-.029L184.414,74.6l-5.094-.446,3.054-34.912,7.353.644Z" fill="#00f7e5"/><path d="M21.809,81.31l-8.953-.783.564-6.448L37.652,76.2l-.564,6.448-9.036-.791-2.494,28.505-6.243-.546Z" fill="#00f7e5"/><path d="M62.068,113.556l-6.489-.569,1.277-14.58-11.212-.98-1.277,14.58-6.531-.572L40.9,76.482l6.531.572L46.153,91.6l11.212.98,1.273-14.54,6.489.567Z" fill="#00f7e5"/><path d="M83.9,80.245a10.185,10.185,0,0,1,9.252,11.073L91.869,105.94A10.178,10.178,0,0,1,80.837,115.2l-3.984-.348A10.205,10.205,0,0,1,67.6,103.816l1.279-14.622a10.214,10.214,0,0,1,11.036-9.3ZM86.836,91.1c.212-2.424-1.132-4.57-3.514-4.778l-3.9-.342c-2.382-.208-4.077,1.671-4.289,4.095L73.912,104c-.212,2.424,1.132,4.569,3.514,4.778l3.9.341c2.382.208,4.077-1.671,4.289-4.095Z" fill="#00f7e5"/><path d="M121.069,108.5a10.144,10.144,0,0,1-10.992,9.261l-3.983-.349a10.24,10.24,0,0,1-9.3-11.036l2.171-24.808,6.325.554-2.139,24.438a4.409,4.409,0,0,0,3.925,4.813l3.039.266a4.408,4.408,0,0,0,4.7-4.059l2.139-24.437,6.283.549Z" fill="#00f7e5"/><path d="M143.735,111.471l.507-5.791-5.832-.51.478-5.463,11.7,1.024-1.786,20.413-5.873-.514.1-1.109a10.8,10.8,0,0,1-4.78.7l-3.532-.31a10.2,10.2,0,0,1-9.257-11.032l1.279-14.621a10.216,10.216,0,0,1,11.036-9.3l4.4.385c5.339.466,8.8,4.867,8.839,10.127l-6.325-.554c-.253-1.844-1.076-3.322-3.088-3.5l-4.313-.378c-2.382-.208-4.159,1.664-4.371,4.088L131.7,109.052c-.212,2.423,1.214,4.576,3.6,4.785l4.519.394A3.686,3.686,0,0,0,143.735,111.471Z" fill="#00f7e5"/><path d="M177.679,123.67l-6.49-.568,1.276-14.581-11.212-.98-1.276,14.58-6.531-.571L156.505,86.6l6.53.571-1.272,14.54,11.212.98,1.272-14.54,6.49.569Z" fill="#00f7e5"/><path d="M192.492,96.243l-8.953-.783.565-6.448,24.232,2.12-.564,6.448-9.037-.79-2.494,28.5L190,124.748Z" fill="#00f7e5"/><path d="M226.148,106.058c5.833.511,9.739,5.529,9.178,11.936-.528,6.038-4.833,10.3-10.541,9.8L208.849,126.4l.568-6.489,14.088,1.233c2.793.244,5.207-.87,5.455-3.7.234-2.67-1.643-4.406-4.23-4.632l-4.149-.364c-6.981-.61-11.282-3.967-10.645-11.236.452-5.175,4.476-9.541,9.98-9.06l14.457,1.265-.6,6.817L221.989,99.2c-2.67-.233-4.845.032-5.1,2.948a3.033,3.033,0,0,0,2.974,3.365Z" fill="#00f7e5"/></svg>