<svg xmlns="http://www.w3.org/2000/svg" viewBox="0 0 276.073 169.565"><title>contact-dark-2contact-dark-3</title><path d="M264.071,12h0m0,0L219.723,157.565l-98.441-45.728L71.549,146.609l-6.26-60.783L12,38.674,264.071,12m0-12c-.108,0-.215,0-.323,0q-.561.015-1.109.08L10.738,26.741a12,12,0,0,0-6.69,20.92l49.783,44.05,5.782,56.127a12,12,0,0,0,18.813,8.605l44.068-30.812,92.174,42.817a12,12,0,0,0,16.534-7.386l44.243-145.22A12.01,12.01,0,0,0,264.306,0l-.233,0Zm0,24h0Z" fill="#00f7e5"/><polygon points="264.071 12 65.289 85.826 71.549 146.609 88.313 96.522 264.071 12" fill="none" stroke="#00f7e5" stroke-linecap="round" stroke-linejoin="round" stroke-width="6"/><polygon points="71.549 146.609 121.282 111.837 88.313 96.522 71.549 146.609" fill="#00f7e5"/><polygon points="88.313 96.522 121.282 111.837 219.723 157.565 264.071 12 88.313 96.522" fill="none" stroke="#00f7e5" stroke-linecap="round" stroke-linejoin="round" stroke-width="6"/><polygon points="12 38.674 65.289 85.826 264.071 12 12 38.674" fill="none" stroke="#00f7e5" stroke-linecap="round" stroke-linejoin="round" stroke-width="6"/></svg>