<svg xmlns="http://www.w3.org/2000/svg" viewBox="0 0 299.451 179.189"><title>hw-dark-2</title><polygon points="278.843 142.363 299.451 143.249 251.998 179.189 0.234 179.189 14.451 160.363 224.799 162.341 248.979 160.363 278.843 142.363" fill="#00f7e5"/><path d="M14.862,5,249.31,11.069l1.623,7.045,26.187.678L269.529,36.6l13.123.34-8.761,8.776,13.634.353L287,66.545l2.865,1.093L264,81.962v7.065h2.264a.852.852,0,0,1,.432,1.586l-5.8,3.414h18.5L274.5,96.905v45.1l-1.8,1.018h6.689L249.527,160.6v.432H15V111.6l8.5-5H8.128a.814.814,0,0,1-.639-.3A3.737,3.737,0,0,1,5,102.78v-9.2a9.3,9.3,0,0,1,2.661-5.556L25.117,77.761l.606-23.4.026-1,.026-1,.077-3L11.086,34.912l5.9.153-5.671-9.15,10.065.261L14.862,5m264.53,89.027h0M14.861,0a5,5,0,0,0-4.778,6.472L14.557,21l-3.108-.081-.13,0a5,5,0,0,0-4.25,7.634L8.4,30.7a5,5,0,0,0-.811,7.789L20.8,51.416l-.022.821-.026,1-.025,1-.534,20.622L5.126,83.719C2.539,85.241,0,90.128,0,93.585v9.2a8.758,8.758,0,0,0,4.9,7.841,5.82,5.82,0,0,0,3.226.974H10v49.432a5,5,0,0,0,5,5H249.527a5,5,0,0,0,3.98-1.972l28.42-16.718a5,5,0,0,0-2.427-9.309V99.764l2.333-1.372a5,5,0,0,0-2.436-9.365h-7.344a5.73,5.73,0,0,0-.143-.686,5.852,5.852,0,0,0-2.731-3.532l23.1-12.8a5,5,0,0,0-.2-8.851l.439-16.961a5,5,0,0,0-4.869-5.127l-2.01-.052.545-.547a5,5,0,0,0-3.409-8.531l-5.768-.149,4.706-11.041a5,5,0,0,0-4.47-6.959l-22.313-.577-.754-3.269a5,5,0,0,0-4.743-3.876L14.991,0l-.13,0Z" fill="#00f7e5"/><polygon points="260.177 59.479 259.623 59.77 259.61 60.256 260.163 59.963 260.177 59.479" fill="none" stroke="#00f7e5" stroke-linecap="round" stroke-linejoin="round"/><polygon points="248.979 156.206 248.979 159.93 278.843 142.363 272.155 142.363 270.592 143.249 248.979 156.206" fill="none" stroke="#00f7e5" stroke-linecap="round" stroke-linejoin="round"/><polygon points="273.951 96.24 248.979 110.93 247.451 110.93 247.451 111.174 248.6 111.174 273.451 96.849 273.451 98.976 273.451 101.104 273.451 103.232 273.451 105.36 273.451 107.488 273.451 109.616 273.451 111.744 273.451 113.872 273.451 116 273.451 118.127 273.451 120.255 273.451 122.383 273.451 124.511 273.451 126.639 273.451 128.767 273.451 130.895 273.451 133.023 273.451 135.151 273.451 137.279 273.451 139.406 273.451 141.534 272.069 142.363 272.155 142.363 273.951 141.345 273.951 96.24" fill="none" stroke="#00f7e5" stroke-linecap="round" stroke-linejoin="round"/><polygon points="270.592 143.249 272.155 142.363 272.069 142.363 270.592 143.249" fill="none" stroke="#00f7e5" stroke-linecap="round" stroke-linejoin="round"/><polygon points="248.979 156.206 270.592 143.249 248.979 155.497 248.979 156.206" fill="none" stroke="#00f7e5" stroke-linecap="round" stroke-linejoin="round"/><polygon points="248.979 138.968 273.451 124.511 273.451 122.383 248.979 136.813 248.979 138.968" fill="none" stroke="#00f7e5" stroke-linecap="round" stroke-linejoin="round"/><polygon points="248.979 141.122 273.451 126.639 273.451 124.511 248.979 138.968 248.979 141.122" fill="none" stroke="#00f7e5" stroke-linecap="round" stroke-linejoin="round"/><polygon points="248.979 132.503 273.451 118.127 273.451 116 248.979 130.349 248.979 132.503" fill="none" stroke="#00f7e5" stroke-linecap="round" stroke-linejoin="round"/><polygon points="248.979 142.363 250.521 142.363 273.451 128.767 273.451 126.639 248.979 141.122 248.979 142.363" fill="none" stroke="#00f7e5" stroke-linecap="round" stroke-linejoin="round"/><polygon points="248.979 134.658 273.451 120.255 273.451 118.127 248.979 132.503 248.979 134.658" fill="none" stroke="#00f7e5" stroke-linecap="round" stroke-linejoin="round"/><polygon points="248.979 136.813 273.451 122.383 273.451 120.255 248.979 134.658 248.979 136.813" fill="none" stroke="#00f7e5" stroke-linecap="round" stroke-linejoin="round"/><polygon points="248.979 119.575 273.451 105.36 273.451 103.232 248.979 117.42 248.979 119.575" fill="none" stroke="#00f7e5" stroke-linecap="round" stroke-linejoin="round"/><polygon points="248.979 113.111 273.451 98.976 273.451 96.849 248.6 111.174 248.979 111.174 248.979 113.111" fill="none" stroke="#00f7e5" stroke-linecap="round" stroke-linejoin="round"/><polygon points="248.979 115.265 273.451 101.104 273.451 98.976 248.979 113.111 248.979 115.265" fill="none" stroke="#00f7e5" stroke-linecap="round" stroke-linejoin="round"/><polygon points="248.979 130.349 273.451 116 273.451 113.872 248.979 128.194 248.979 130.349" fill="none" stroke="#00f7e5" stroke-linecap="round" stroke-linejoin="round"/><polygon points="248.979 117.42 273.451 103.232 273.451 101.104 248.979 115.265 248.979 117.42" fill="none" stroke="#00f7e5" stroke-linecap="round" stroke-linejoin="round"/><polygon points="248.979 126.039 273.451 111.744 273.451 109.616 248.979 123.884 248.979 126.039" fill="none" stroke="#00f7e5" stroke-linecap="round" stroke-linejoin="round"/><polygon points="248.979 121.73 273.451 107.488 273.451 105.36 248.979 119.575 248.979 121.73" fill="none" stroke="#00f7e5" stroke-linecap="round" stroke-linejoin="round"/><polygon points="248.979 128.194 273.451 113.872 273.451 111.744 248.979 126.039 248.979 128.194" fill="none" stroke="#00f7e5" stroke-linecap="round" stroke-linejoin="round"/><polygon points="248.979 123.884 273.451 109.616 273.451 107.488 248.979 121.73 248.979 123.884" fill="none" stroke="#00f7e5" stroke-linecap="round" stroke-linejoin="round"/><polygon points="250.521 142.363 248.979 143.277 248.979 145.432 254.145 142.363 273.451 130.895 273.451 128.767 250.521 142.363" fill="none" stroke="#00f7e5" stroke-linecap="round" stroke-linejoin="round"/><polygon points="264.939 142.363 248.979 151.896 248.979 154.051 268.511 142.363 273.451 139.406 273.451 137.279 264.939 142.363" fill="none" stroke="#00f7e5" stroke-linecap="round" stroke-linejoin="round"/><polygon points="257.757 142.363 248.979 147.587 248.979 149.742 261.354 142.363 273.451 135.151 273.451 133.023 257.757 142.363" fill="none" stroke="#00f7e5" stroke-linecap="round" stroke-linejoin="round"/><polygon points="254.145 142.363 248.979 145.432 248.979 147.587 257.757 142.363 273.451 133.023 273.451 130.895 254.145 142.363" fill="none" stroke="#00f7e5" stroke-linecap="round" stroke-linejoin="round"/><polygon points="250.521 142.363 248.979 142.363 248.979 143.277 250.521 142.363" fill="none" stroke="#00f7e5" stroke-linecap="round" stroke-linejoin="round"/><polygon points="261.354 142.363 248.979 149.742 248.979 151.896 264.939 142.363 273.451 137.279 273.451 135.151 261.354 142.363" fill="none" stroke="#00f7e5" stroke-linecap="round" stroke-linejoin="round"/><polygon points="268.511 142.363 248.979 154.051 248.979 155.497 270.592 143.249 272.069 142.363 273.451 141.534 273.451 139.406 268.511 142.363" fill="none" stroke="#00f7e5" stroke-linecap="round" stroke-linejoin="round"/><polygon points="248.6 111.174 247.451 111.174 14.451 111.174 14.451 159.93 14.451 160.363 248.979 160.363 248.979 159.93 248.979 156.206 248.979 155.497 248.979 154.051 248.979 151.896 248.979 149.742 248.979 147.587 248.979 145.432 248.979 143.277 248.979 142.363 248.979 141.122 248.979 138.968 248.979 136.813 248.979 134.658 248.979 132.503 248.979 130.349 248.979 128.194 248.979 126.039 248.979 123.884 248.979 121.73 248.979 119.575 248.979 117.42 248.979 115.265 248.979 113.111 248.979 111.174 248.6 111.174" fill="none" stroke="#00f7e5" stroke-linecap="round" stroke-linejoin="round"/><path d="M260.343,93.363l-21.165,12.45a.849.849,0,0,1-.432.117H22.951l-8.5,5H248.979l24.972-14.69,4.892-2.877Z" fill="#00f7e5"/><path d="M236.448,89.393l0-.385.236-.139c-.307.024-.613.061-.923.061H33.351l-.413.244H235.232A3.716,3.716,0,0,1,236.448,89.393Z" fill="none" stroke="#00f7e5" stroke-linecap="round" stroke-linejoin="round"/><path d="M8.2,105.863a3.728,3.728,0,0,1-1.258-.232.816.816,0,0,0,.64.3H22.951l.115-.067Z" fill="none" stroke="#00f7e5" stroke-linecap="round" stroke-linejoin="round"/><path d="M265.715,88.363h-2.264v1l-6.643,4-18.917,11.39a3.732,3.732,0,0,1-2.659,1.11H23.066l-.115.067h215.8a.849.849,0,0,0,.432-.117l21.165-12.45,5.8-3.414A.852.852,0,0,0,265.715,88.363Z" fill="none" stroke="#00f7e5" stroke-linecap="round" stroke-linejoin="round"/><path d="M247.534,83.9l-5.785,3.4a12.148,12.148,0,0,1-5.062,1.568l-.236.139,0,.385a3.726,3.726,0,0,1,1.467.919l3.382-1.949,7.682-4.428Z" fill="none" stroke="#00f7e5" stroke-linecap="round" stroke-linejoin="round"/><polygon points="262.871 82.82 263.451 82.478 263.451 81.298 262.881 81.613 262.871 82.82" fill="none" stroke="#00f7e5" stroke-linecap="round" stroke-linejoin="round"/><path d="M248.979,83.935,241.3,88.363l-3.382,1.949a3.733,3.733,0,0,1,.981,1.835l6.517-3.784,7.452-4.327Z" fill="none" stroke="#00f7e5" stroke-linecap="round" stroke-linejoin="round"/><polygon points="262.851 85.129 257.403 88.363 248.979 93.363 238.979 99.299 238.979 101.699 252.922 93.363 261.285 88.363 262.831 87.439 263.451 87.068 263.451 84.773 262.851 85.129" fill="none" stroke="#00f7e5" stroke-linecap="round" stroke-linejoin="round"/><polygon points="259.002 83.762 258.99 84.195 256.696 84.135 249.468 88.363 240.921 93.363 238.979 94.499 238.979 96.899 244.979 93.363 253.465 88.363 262.871 82.82 262.881 81.613 259.002 83.762" fill="none" stroke="#00f7e5" stroke-linecap="round" stroke-linejoin="round"/><polygon points="262.871 82.82 253.465 88.363 244.979 93.363 238.979 96.899 238.979 99.299 248.979 93.363 257.403 88.363 262.851 85.129 263.451 84.773 263.451 82.478 262.871 82.82" fill="none" stroke="#00f7e5" stroke-linecap="round" stroke-linejoin="round"/><path d="M262.831,87.439l-1.546.924-8.363,5L238.979,101.7v.417a3.829,3.829,0,0,1-1.088,2.637l18.917-11.39,6.643-4v-2.3Z" fill="none" stroke="#00f7e5" stroke-linecap="round" stroke-linejoin="round"/><path d="M252.865,84.036l-7.452,4.327L238.9,92.147a3.72,3.72,0,0,1,.083.773V94.5l1.942-1.136,8.547-5,7.228-4.228Z" fill="none" stroke="#00f7e5" stroke-linecap="round" stroke-linejoin="round"/><path d="M238.9,92.147a3.819,3.819,0,0,0-3.664-2.973H8.2A3.747,3.747,0,0,0,4.451,92.92v9.2A3.8,3.8,0,0,0,8.2,105.863H235.232a3.778,3.778,0,0,0,3.747-3.747v-9.2A3.72,3.72,0,0,0,238.9,92.147Z" fill="none" stroke="#00f7e5" stroke-linecap="round" stroke-linejoin="round"/><path d="M245.209,83.838,24.542,78.125l.011-.432.016-.6L7.113,87.365a.84.84,0,0,0,.426,1.565H235.764c.31,0,.616-.037.923-.061a12.148,12.148,0,0,0,5.062-1.568l5.785-3.4Z" fill="#00f7e5"/><polygon points="259.092 80.279 259.088 80.422 259.569 80.143 259.573 80.017 259.092 80.279" fill="none" stroke="#00f7e5" stroke-linecap="round" stroke-linejoin="round"/><polygon points="284.624 66.852 263.451 78.138 262.908 78.427 259.567 80.208 259.569 80.143 259.088 80.422 259.028 82.771 259.002 83.762 262.881 81.613 263.451 81.298 289.311 66.973 284.624 66.852" fill="none" stroke="#00f7e5" stroke-linecap="round" stroke-linejoin="round"/><polygon points="24.553 77.693 24.553 77.693 24.553 77.693 24.553 77.693" fill="none" stroke="#00f7e5" stroke-linecap="round" stroke-linejoin="round"/><polygon points="259.623 59.77 260.177 59.479 260.181 59.341 286.977 45.406 273.343 45.053 259.649 58.771 259.623 59.77" fill="none" stroke="#00f7e5" stroke-linecap="round" stroke-linejoin="round"/><polygon points="25.174 53.701 25.174 53.701 25.174 53.701 25.174 53.701" fill="none" stroke="#00f7e5" stroke-linecap="round" stroke-linejoin="round"/><polygon points="25.2 52.701 25.2 52.701 25.2 52.701 25.2 52.701" fill="none" stroke="#00f7e5" stroke-linecap="round" stroke-linejoin="round"/><polygon points="268.98 35.937 265.185 44.842 259.675 57.771 259.649 58.771 273.343 45.053 282.103 36.277 268.98 35.937" fill="none" stroke="#00f7e5" stroke-linecap="round" stroke-linejoin="round"/><polygon points="25.226 51.702 25.226 51.702 25.226 51.702 25.226 51.702" fill="none" stroke="#00f7e5" stroke-linecap="round" stroke-linejoin="round"/><polygon points="250.385 17.449 254.558 35.564 256.645 44.621 258.529 52.798 259.71 54.703 259.754 54.704 259.675 57.771 265.185 44.842 268.98 35.937 276.571 18.127 250.385 17.449" fill="none" stroke="#00f7e5" stroke-linecap="round" stroke-linejoin="round"/><polygon points="256.645 44.621 254.558 35.564 250.385 17.449 248.761 10.405 14.313 4.336 20.835 25.512 36.219 25.91 245.219 31.32 247.739 35.387 253.409 44.537 258.529 52.798 256.645 44.621" fill="none" stroke="#00f7e5" stroke-linecap="round" stroke-linejoin="round"/><polygon points="260.163 59.963 286.461 46 286.405 48.182 286.405 48.182 286.405 48.182 286.348 50.363 286.348 50.363 286.348 50.363 286.292 52.545 286.235 54.727 286.235 54.727 286.235 54.727 286.122 59.091 286.066 61.272 286.066 61.272 286.066 61.272 285.953 65.636 283.763 66.83 284.624 66.852 286.447 65.881 286.977 45.406 260.177 59.479 260.163 59.963" fill="none" stroke="#00f7e5" stroke-linecap="round" stroke-linejoin="round"/><polygon points="263.451 77.903 263.451 78.138 284.624 66.852 283.763 66.83 263.451 77.903" fill="none" stroke="#00f7e5" stroke-linecap="round" stroke-linejoin="round"/><polygon points="262.91 78.203 262.908 78.427 263.451 78.138 263.451 77.903 263.054 78.119 262.91 78.203" fill="none" stroke="#00f7e5" stroke-linecap="round" stroke-linejoin="round"/><polygon points="262.91 78.203 263.054 78.119 262.91 78.198 262.91 78.203" fill="none" stroke="#00f7e5" stroke-linecap="round" stroke-linejoin="round"/><polygon points="259.573 80.017 259.569 80.143 262.91 78.203 262.91 78.198 259.573 80.017" fill="none" stroke="#00f7e5" stroke-linecap="round" stroke-linejoin="round"/><polygon points="259.567 80.208 262.908 78.427 262.91 78.203 259.569 80.143 259.567 80.208" fill="none" stroke="#00f7e5" stroke-linecap="round" stroke-linejoin="round"/><polygon points="260.177 59.479 286.977 45.406 260.181 59.341 260.177 59.479" fill="none" stroke="#00f7e5" stroke-linecap="round" stroke-linejoin="round"/><polygon points="260.097 62.191 260.163 59.963 259.61 60.256 259.553 62.481 260.097 62.191" fill="none" stroke="#00f7e5" stroke-linecap="round" stroke-linejoin="round"/><polygon points="260.097 62.191 259.553 62.481 259.495 64.706 260.032 64.419 260.097 62.191" fill="none" stroke="#00f7e5" stroke-linecap="round" stroke-linejoin="round"/><polygon points="260.032 64.419 259.495 64.706 259.456 66.201 259.979 66.214 260.032 64.419" fill="none" stroke="#00f7e5" stroke-linecap="round" stroke-linejoin="round"/><polygon points="259.979 66.214 259.456 66.201 259.438 66.931 259.966 66.647 259.979 66.214" fill="none" stroke="#00f7e5" stroke-linecap="round" stroke-linejoin="round"/><polygon points="259.966 66.647 259.438 66.931 259.38 69.155 259.901 68.876 259.966 66.647" fill="none" stroke="#00f7e5" stroke-linecap="round" stroke-linejoin="round"/><polygon points="259.835 71.104 259.901 68.876 259.38 69.155 259.323 71.363 259.354 71.363 259.835 71.104" fill="none" stroke="#00f7e5" stroke-linecap="round" stroke-linejoin="round"/><polygon points="259.835 71.104 259.354 71.363 259.827 71.363 259.835 71.104" fill="none" stroke="#00f7e5" stroke-linecap="round" stroke-linejoin="round"/><polygon points="259.638 77.789 259.15 78.054 259.149 78.073 259.638 77.792 259.638 77.789" fill="none" stroke="#00f7e5" stroke-linecap="round" stroke-linejoin="round"/><polygon points="259.638 77.789 259.668 76.76 259.176 77.05 259.15 78.054 259.638 77.789" fill="none" stroke="#00f7e5" stroke-linecap="round" stroke-linejoin="round"/><polygon points="259.149 78.073 259.092 80.279 259.573 80.017 259.638 77.792 259.149 78.073" fill="none" stroke="#00f7e5" stroke-linecap="round" stroke-linejoin="round"/><polygon points="259.827 71.363 259.354 71.363 259.322 71.38 259.265 73.605 259.769 73.332 259.827 71.363" fill="none" stroke="#00f7e5" stroke-linecap="round" stroke-linejoin="round"/><polygon points="259.354 71.363 259.323 71.363 259.322 71.38 259.354 71.363" fill="none" stroke="#00f7e5" stroke-linecap="round" stroke-linejoin="round"/><polygon points="259.769 73.332 259.265 73.605 259.214 75.569 259.712 75.275 259.769 73.332" fill="none" stroke="#00f7e5" stroke-linecap="round" stroke-linejoin="round"/><polygon points="259.704 75.56 259.207 75.83 259.176 77.05 259.668 76.76 259.704 75.56" fill="none" stroke="#00f7e5" stroke-linecap="round" stroke-linejoin="round"/><polygon points="259.712 75.275 259.214 75.569 259.207 75.83 259.704 75.56 259.712 75.275" fill="none" stroke="#00f7e5" stroke-linecap="round" stroke-linejoin="round"/><polygon points="260.032 64.419 286.348 50.363 286.405 48.182 260.097 62.191 260.032 64.419" fill="none" stroke="#00f7e5" stroke-linecap="round" stroke-linejoin="round" stroke-width="0.5"/><polygon points="286.405 48.182 286.461 46 260.163 59.963 260.097 62.191 286.405 48.182" fill="none" stroke="#00f7e5" stroke-linecap="round" stroke-linejoin="round" stroke-width="0.5"/><polygon points="260.739 66.234 259.966 66.647 259.901 68.876 264.63 66.335 286.235 54.727 286.292 52.545 260.739 66.234" fill="none" stroke="#00f7e5" stroke-linecap="round" stroke-linejoin="round" stroke-width="0.5"/><polygon points="264.419 66.379 259.689 68.921 259.623 71.149 268.289 66.48 285.968 56.943 286.024 54.772 264.419 66.379" fill="none" stroke="#00f7e5" stroke-linecap="round" stroke-linejoin="round" stroke-width="0.5"/><polygon points="260.032 64.419 259.979 66.214 259.966 66.647 260.739 66.234 286.292 52.545 286.348 50.363 260.032 64.419" fill="none" stroke="#00f7e5" stroke-linecap="round" stroke-linejoin="round" stroke-width="0.5"/><polygon points="259.719 77.745 259.638 77.789 259.638 77.792 259.719 77.745" fill="none" stroke="#00f7e5" stroke-linecap="round" stroke-linejoin="round"/><polygon points="263.054 78.119 263.451 77.903 263.451 77.888 263.054 78.119" fill="none" stroke="#00f7e5" stroke-linecap="round" stroke-linejoin="round"/><polygon points="280.397 66.529 263.451 75.716 262.929 76 259.719 77.745 259.638 77.792 259.573 80.017 262.91 78.198 263.054 78.119 263.451 77.888 263.451 77.903 285.953 65.636 286.009 63.468 280.397 66.529" fill="none" stroke="#00f7e5" stroke-linecap="round" stroke-linejoin="round" stroke-width="0.5"/><polygon points="268.372 66.482 268.289 66.48 259.623 71.149 259.616 71.408 259.558 73.377 263.202 71.408 272.137 66.579 285.911 59.136 285.967 56.951 268.372 66.482" fill="none" stroke="#00f7e5" stroke-linecap="round" stroke-linejoin="round" stroke-width="0.5"/><polygon points="272.348 66.534 263.414 71.363 259.769 73.332 259.712 75.275 259.704 75.56 262.948 73.802 267.448 71.363 276.175 66.633 286.066 61.272 286.122 59.091 272.348 66.534" fill="none" stroke="#00f7e5" stroke-linecap="round" stroke-linejoin="round" stroke-width="0.5"/><polygon points="276.175 66.633 267.448 71.363 262.948 73.802 259.704 75.56 259.668 76.76 259.638 77.789 259.719 77.745 262.929 76 263.451 75.716 286.009 63.468 286.066 61.272 276.175 66.633" fill="none" stroke="#00f7e5" stroke-linecap="round" stroke-linejoin="round" stroke-width="0.5"/><polygon points="259.71 54.703 259.752 54.772 258.979 54.752 34.216 48.933 29.094 48.801 28 48.773 26.491 48.734 25.304 48.703 25.226 51.702 25.226 51.702 25.2 52.701 25.174 53.701 24.569 77.097 24.553 77.693 24.542 78.125 245.209 83.838 247.534 83.898 248.979 83.935 252.865 84.036 256.696 84.135 258.99 84.195 259.002 83.762 259.028 82.771 259.088 80.422 259.092 80.279 259.149 78.073 259.15 78.054 259.176 77.05 259.207 75.83 259.214 75.569 259.265 73.605 259.322 71.38 259.323 71.363 259.38 69.155 259.438 66.931 259.456 66.201 259.495 64.706 259.553 62.481 259.61 60.256 259.62 59.861 259.675 59.863 259.754 54.704 259.71 54.703" fill="none" stroke="#00f7e5" stroke-linecap="round" stroke-linejoin="round"/><polygon points="259.681 54.703 259.71 54.703 258.529 52.798 258.76 53.8 259.681 54.703" fill="none" stroke="#00f7e5" stroke-linecap="round" stroke-linejoin="round"/><polygon points="258.529 52.798 253.409 44.537 247.739 35.387 245.219 31.32 36.219 25.91 20.835 25.512 10.771 25.251 16.441 34.401 23.63 34.587 32.424 34.815 42.788 35.083 244.986 40.317 249.185 44.427 258.76 53.8 258.529 52.798" fill="none" stroke="#00f7e5" stroke-linecap="round" stroke-linejoin="round"/><polygon points="259.752 54.772 259.71 54.703 259.681 54.703 259.752 54.772" fill="none" stroke="#00f7e5" stroke-linecap="round" stroke-linejoin="round"/><polygon points="258.76 53.8 258.963 54.684 259.681 54.703 258.76 53.8" fill="none" stroke="#00f7e5" stroke-linecap="round" stroke-linejoin="round"/><polygon points="258.76 53.8 249.185 44.427 244.986 40.317 42.788 35.083 32.424 34.815 23.63 34.587 16.441 34.401 10.538 34.248 25.304 48.703 25.306 48.635 26.52 48.667 27.979 48.704 29.16 48.735 34.338 48.869 258.963 54.684 258.76 53.8" fill="none" stroke="#00f7e5" stroke-miterlimit="10"/><polygon points="26.52 48.667 25.306 48.635 25.304 48.703 26.491 48.734 26.52 48.667" fill="none" stroke="#00f7e5" stroke-linecap="round" stroke-linejoin="round"/><polygon points="26.52 48.667 26.491 48.734 28 48.773 27.979 48.704 26.52 48.667" fill="none" stroke="#00f7e5" stroke-linecap="round" stroke-linejoin="round"/><polygon points="258.963 54.684 258.979 54.752 259.752 54.772 259.681 54.703 258.963 54.684" fill="none" stroke="#00f7e5" stroke-linecap="round" stroke-linejoin="round"/><polygon points="29.16 48.735 27.979 48.704 28 48.773 29.094 48.801 29.16 48.735" fill="none" stroke="#00f7e5" stroke-linecap="round" stroke-linejoin="round"/><polygon points="29.16 48.735 29.094 48.801 34.216 48.933 34.338 48.869 29.16 48.735" fill="none" stroke="#00f7e5" stroke-linecap="round" stroke-linejoin="round"/></svg>