<svg xmlns="http://www.w3.org/2000/svg" viewBox="0 0 290.86 162.027"><title>hw-light</title><path d="M12.862,3,247.31,9.069l1.623,7.045,26.187.678L267.529,34.6l13.123.34-8.761,8.776,13.634.353L285,64.545l2.865,1.093L262,79.962v7.065h2.264a.852.852,0,0,1,.432,1.586l-5.8,3.414h18.5L272.5,94.905v45.1l-1.8,1.018h6.689l-29.865,17.567v.433H13V109.594l8.5-5H6.128a.814.814,0,0,1-.639-.3A3.737,3.737,0,0,1,3,100.78v-9.2a9.3,9.3,0,0,1,2.661-5.555L23.117,75.761l.606-23.4.026-1,.026-1,.077-3L9.086,32.912l5.9.153-5.671-9.15,10.065.261L12.862,3m264.53,89.027h0M12.861,0A3,3,0,0,0,9.995,3.883l5.293,17.186L9.4,20.916H9.319A3,3,0,0,0,6.769,25.5l2.744,4.426-.349-.009H9.086a3,3,0,0,0-2.1,5.144L20.819,48.6l-.043,1.692-.026,1-.026,1-.563,21.731L4.14,83.443C2.333,84.507,0,88.646,0,91.584v9.2a6.755,6.755,0,0,0,3.907,6.105,3.822,3.822,0,0,0,2.221.709h4.636a3,3,0,0,0-.764,2v49.433a3,3,0,0,0,3,3H247.527a3,3,0,0,0,2.581-1.47l28.805-16.944a3,3,0,0,0-1.521-5.586H275.5V96.62l3.351-1.971a3,3,0,0,0-1.454-5.622h-9.446a3.854,3.854,0,0,0,.029-2.16A3.806,3.806,0,0,0,265,84.1V81.729l24.313-13.467a3,3,0,0,0-.384-5.427l-.88-.336.475-18.352a3,3,0,0,0-2.921-3.076l-6.659-.173,3.831-3.838a3,3,0,0,0-2.046-5.118l-8.709-.226,5.859-13.748a3,3,0,0,0-2.682-4.176l-23.863-.617-1.1-4.779a3,3,0,0,0-2.845-2.326L12.939,0Z" fill="#5e7ce2"/><polygon points="258.177 57.479 257.623 57.77 257.61 58.256 258.163 57.963 258.177 57.479" fill="none" stroke="#5e7ce2" stroke-linecap="round" stroke-linejoin="round"/><polygon points="246.979 154.206 246.979 157.93 276.843 140.363 270.155 140.363 268.592 141.249 246.979 154.206" fill="none" stroke="#5e7ce2" stroke-linecap="round" stroke-linejoin="round"/><polygon points="271.951 94.24 246.979 108.93 245.451 108.93 245.451 109.174 246.6 109.174 271.451 94.849 271.451 96.976 271.451 99.104 271.451 101.232 271.451 103.36 271.451 105.488 271.451 107.616 271.451 109.744 271.451 111.872 271.451 114 271.451 116.127 271.451 118.255 271.451 120.383 271.451 122.511 271.451 124.639 271.451 126.767 271.451 128.895 271.451 131.023 271.451 133.151 271.451 135.278 271.451 137.406 271.451 139.534 270.069 140.363 270.155 140.363 271.951 139.345 271.951 94.24" fill="none" stroke="#5e7ce2" stroke-linecap="round" stroke-linejoin="round"/><polygon points="268.592 141.249 270.155 140.363 270.069 140.363 268.592 141.249" fill="none" stroke="#5e7ce2" stroke-linecap="round" stroke-linejoin="round"/><polygon points="246.979 154.206 268.592 141.249 246.979 153.497 246.979 154.206" fill="none" stroke="#5e7ce2" stroke-linecap="round" stroke-linejoin="round"/><polygon points="246.979 136.968 271.451 122.511 271.451 120.383 246.979 134.813 246.979 136.968" fill="none" stroke="#5e7ce2" stroke-linecap="round" stroke-linejoin="round"/><polygon points="246.979 139.122 271.451 124.639 271.451 122.511 246.979 136.968 246.979 139.122" fill="none" stroke="#5e7ce2" stroke-linecap="round" stroke-linejoin="round"/><polygon points="246.979 130.503 271.451 116.127 271.451 114 246.979 128.349 246.979 130.503" fill="none" stroke="#5e7ce2" stroke-linecap="round" stroke-linejoin="round"/><polygon points="246.979 140.363 248.521 140.363 271.451 126.767 271.451 124.639 246.979 139.122 246.979 140.363" fill="none" stroke="#5e7ce2" stroke-linecap="round" stroke-linejoin="round"/><polygon points="246.979 132.658 271.451 118.255 271.451 116.127 246.979 130.503 246.979 132.658" fill="none" stroke="#5e7ce2" stroke-linecap="round" stroke-linejoin="round"/><polygon points="246.979 134.813 271.451 120.383 271.451 118.255 246.979 132.658 246.979 134.813" fill="none" stroke="#5e7ce2" stroke-linecap="round" stroke-linejoin="round"/><polygon points="246.979 117.575 271.451 103.36 271.451 101.232 246.979 115.42 246.979 117.575" fill="none" stroke="#5e7ce2" stroke-linecap="round" stroke-linejoin="round"/><polygon points="246.979 111.11 271.451 96.976 271.451 94.849 246.6 109.174 246.979 109.174 246.979 111.11" fill="none" stroke="#5e7ce2" stroke-linecap="round" stroke-linejoin="round"/><polygon points="246.979 113.265 271.451 99.104 271.451 96.976 246.979 111.11 246.979 113.265" fill="none" stroke="#5e7ce2" stroke-linecap="round" stroke-linejoin="round"/><polygon points="246.979 128.349 271.451 114 271.451 111.872 246.979 126.194 246.979 128.349" fill="none" stroke="#5e7ce2" stroke-linecap="round" stroke-linejoin="round"/><polygon points="246.979 115.42 271.451 101.232 271.451 99.104 246.979 113.265 246.979 115.42" fill="none" stroke="#5e7ce2" stroke-linecap="round" stroke-linejoin="round"/><polygon points="246.979 124.039 271.451 109.744 271.451 107.616 246.979 121.884 246.979 124.039" fill="none" stroke="#5e7ce2" stroke-linecap="round" stroke-linejoin="round"/><polygon points="246.979 119.73 271.451 105.488 271.451 103.36 246.979 117.575 246.979 119.73" fill="none" stroke="#5e7ce2" stroke-linecap="round" stroke-linejoin="round"/><polygon points="246.979 126.194 271.451 111.872 271.451 109.744 246.979 124.039 246.979 126.194" fill="none" stroke="#5e7ce2" stroke-linecap="round" stroke-linejoin="round"/><polygon points="246.979 121.884 271.451 107.616 271.451 105.488 246.979 119.73 246.979 121.884" fill="none" stroke="#5e7ce2" stroke-linecap="round" stroke-linejoin="round"/><polygon points="248.521 140.363 246.979 141.277 246.979 143.432 252.145 140.363 271.451 128.895 271.451 126.767 248.521 140.363" fill="none" stroke="#5e7ce2" stroke-linecap="round" stroke-linejoin="round"/><polygon points="262.939 140.363 246.979 149.896 246.979 152.051 266.511 140.363 271.451 137.406 271.451 135.278 262.939 140.363" fill="none" stroke="#5e7ce2" stroke-linecap="round" stroke-linejoin="round"/><polygon points="255.757 140.363 246.979 145.587 246.979 147.741 259.354 140.363 271.451 133.151 271.451 131.023 255.757 140.363" fill="none" stroke="#5e7ce2" stroke-linecap="round" stroke-linejoin="round"/><polygon points="252.145 140.363 246.979 143.432 246.979 145.587 255.757 140.363 271.451 131.023 271.451 128.895 252.145 140.363" fill="none" stroke="#5e7ce2" stroke-linecap="round" stroke-linejoin="round"/><polygon points="248.521 140.363 246.979 140.363 246.979 141.277 248.521 140.363" fill="none" stroke="#5e7ce2" stroke-linecap="round" stroke-linejoin="round"/><polygon points="259.354 140.363 246.979 147.741 246.979 149.896 262.939 140.363 271.451 135.278 271.451 133.151 259.354 140.363" fill="none" stroke="#5e7ce2" stroke-linecap="round" stroke-linejoin="round"/><polygon points="266.511 140.363 246.979 152.051 246.979 153.497 268.592 141.249 270.069 140.363 271.451 139.534 271.451 137.406 266.511 140.363" fill="none" stroke="#5e7ce2" stroke-linecap="round" stroke-linejoin="round"/><polygon points="246.6 109.174 245.451 109.174 12.451 109.174 12.451 157.93 12.451 158.363 246.979 158.363 246.979 157.93 246.979 154.206 246.979 153.497 246.979 152.051 246.979 149.896 246.979 147.741 246.979 145.587 246.979 143.432 246.979 141.277 246.979 140.363 246.979 139.122 246.979 136.968 246.979 134.813 246.979 132.658 246.979 130.503 246.979 128.349 246.979 126.194 246.979 124.039 246.979 121.884 246.979 119.73 246.979 117.575 246.979 115.42 246.979 113.265 246.979 111.11 246.979 109.174 246.6 109.174" fill="none" stroke="#5e7ce2" stroke-linecap="round" stroke-linejoin="round"/><path d="M258.343,91.363l-21.165,12.45a.849.849,0,0,1-.432.117H20.951l-8.5,5H246.979l24.972-14.69,4.892-2.877Z" fill="#5e7ce2"/><path d="M234.448,87.393l0-.385.236-.139c-.307.024-.613.061-.923.061H31.351l-.413.244H233.232A3.716,3.716,0,0,1,234.448,87.393Z" fill="none" stroke="#5e7ce2" stroke-linecap="round" stroke-linejoin="round"/><path d="M6.2,103.863a3.728,3.728,0,0,1-1.258-.232.816.816,0,0,0,.64.3H20.951l.115-.067Z" fill="none" stroke="#5e7ce2" stroke-linecap="round" stroke-linejoin="round"/><path d="M263.715,86.363h-2.264v1l-6.643,4-18.917,11.39a3.732,3.732,0,0,1-2.659,1.11H21.066l-.115.067h215.8a.849.849,0,0,0,.432-.117l21.165-12.45,5.8-3.414A.852.852,0,0,0,263.715,86.363Z" fill="none" stroke="#5e7ce2" stroke-linecap="round" stroke-linejoin="round"/><path d="M245.534,81.9l-5.785,3.4a12.148,12.148,0,0,1-5.062,1.568l-.236.139,0,.385a3.726,3.726,0,0,1,1.467.919l3.382-1.949,7.682-4.428Z" fill="none" stroke="#5e7ce2" stroke-linecap="round" stroke-linejoin="round"/><polygon points="260.871 80.82 261.451 80.478 261.451 79.297 260.881 79.613 260.871 80.82" fill="none" stroke="#5e7ce2" stroke-linecap="round" stroke-linejoin="round"/><path d="M246.979,81.935,239.3,86.363l-3.382,1.949a3.733,3.733,0,0,1,.981,1.835l6.517-3.784,7.452-4.327Z" fill="none" stroke="#5e7ce2" stroke-linecap="round" stroke-linejoin="round"/><polygon points="260.851 83.129 255.403 86.363 246.979 91.363 236.979 97.299 236.979 99.698 250.922 91.363 259.285 86.363 260.831 85.439 261.451 85.068 261.451 82.773 260.851 83.129" fill="none" stroke="#5e7ce2" stroke-linecap="round" stroke-linejoin="round"/><polygon points="257.002 81.762 256.99 82.194 254.696 82.135 247.468 86.363 238.921 91.363 236.979 92.499 236.979 94.899 242.979 91.363 251.465 86.363 260.871 80.82 260.881 79.613 257.002 81.762" fill="none" stroke="#5e7ce2" stroke-linecap="round" stroke-linejoin="round"/><polygon points="260.871 80.82 251.465 86.363 242.979 91.363 236.979 94.899 236.979 97.299 246.979 91.363 255.403 86.363 260.851 83.129 261.451 82.773 261.451 80.478 260.871 80.82" fill="none" stroke="#5e7ce2" stroke-linecap="round" stroke-linejoin="round"/><path d="M260.831,85.439l-1.546.924-8.363,5L236.979,99.7v.418a3.829,3.829,0,0,1-1.088,2.637l18.917-11.39,6.643-4v-2.3Z" fill="none" stroke="#5e7ce2" stroke-linecap="round" stroke-linejoin="round"/><path d="M250.865,82.036l-7.452,4.327L236.9,90.147a3.713,3.713,0,0,1,.083.773V92.5l1.942-1.136,8.547-5,7.228-4.228Z" fill="none" stroke="#5e7ce2" stroke-linecap="round" stroke-linejoin="round"/><path d="M236.9,90.147a3.819,3.819,0,0,0-3.664-2.973H6.2A3.747,3.747,0,0,0,2.451,90.92v9.2A3.8,3.8,0,0,0,6.2,103.863H233.232a3.778,3.778,0,0,0,3.747-3.747v-9.2A3.713,3.713,0,0,0,236.9,90.147Z" fill="none" stroke="#5e7ce2" stroke-linecap="round" stroke-linejoin="round"/><path d="M243.209,81.838,22.542,76.125l.011-.432.016-.6L5.113,85.365a.84.84,0,0,0,.426,1.565H233.764c.31,0,.616-.037.923-.061a12.148,12.148,0,0,0,5.062-1.568l5.785-3.4Z" fill="#5e7ce2"/><polygon points="257.092 78.279 257.088 78.422 257.569 78.143 257.573 78.017 257.092 78.279" fill="none" stroke="#5e7ce2" stroke-linecap="round" stroke-linejoin="round"/><polygon points="282.624 64.852 261.451 76.138 260.908 76.427 257.567 78.208 257.569 78.143 257.088 78.422 257.028 80.771 257.002 81.762 260.881 79.613 261.451 79.297 287.311 64.973 282.624 64.852" fill="none" stroke="#5e7ce2" stroke-linecap="round" stroke-linejoin="round"/><polygon points="22.553 75.693 22.553 75.693 22.553 75.693 22.553 75.693" fill="none" stroke="#5e7ce2" stroke-linecap="round" stroke-linejoin="round"/><polygon points="257.623 57.77 258.177 57.479 258.181 57.341 284.977 43.406 271.343 43.053 257.649 56.771 257.623 57.77" fill="none" stroke="#5e7ce2" stroke-linecap="round" stroke-linejoin="round"/><polygon points="23.174 51.701 23.174 51.701 23.174 51.701 23.174 51.701" fill="none" stroke="#5e7ce2" stroke-linecap="round" stroke-linejoin="round"/><polygon points="23.2 50.701 23.2 50.701 23.2 50.701 23.2 50.701" fill="none" stroke="#5e7ce2" stroke-linecap="round" stroke-linejoin="round"/><polygon points="266.98 33.937 263.185 42.842 257.675 55.771 257.649 56.771 271.343 43.053 280.103 34.277 266.98 33.937" fill="none" stroke="#5e7ce2" stroke-linecap="round" stroke-linejoin="round"/><polygon points="23.226 49.702 23.226 49.702 23.226 49.702 23.226 49.702" fill="none" stroke="#5e7ce2" stroke-linecap="round" stroke-linejoin="round"/><polygon points="248.385 15.449 252.558 33.563 254.645 42.62 256.529 50.798 257.71 52.703 257.754 52.704 257.675 55.771 263.185 42.842 266.98 33.937 274.571 16.127 248.385 15.449" fill="none" stroke="#5e7ce2" stroke-linecap="round" stroke-linejoin="round"/><polygon points="254.645 42.62 252.558 33.563 248.385 15.449 246.761 8.405 12.313 2.336 18.835 23.512 34.219 23.91 243.219 29.32 245.739 33.387 251.409 42.537 256.529 50.798 254.645 42.62" fill="none" stroke="#5e7ce2" stroke-linecap="round" stroke-linejoin="round"/><polygon points="258.163 57.963 284.461 44 284.405 46.182 284.405 46.182 284.405 46.182 284.348 48.363 284.348 48.363 284.348 48.363 284.292 50.545 284.235 52.727 284.235 52.727 284.235 52.727 284.122 57.091 284.066 59.272 284.066 59.272 284.066 59.272 283.953 63.636 281.763 64.83 282.624 64.852 284.447 63.881 284.977 43.406 258.177 57.479 258.163 57.963" fill="none" stroke="#5e7ce2" stroke-linecap="round" stroke-linejoin="round"/><polygon points="261.451 75.903 261.451 76.138 282.624 64.852 281.763 64.83 261.451 75.903" fill="none" stroke="#5e7ce2" stroke-linecap="round" stroke-linejoin="round"/><polygon points="260.91 76.203 260.908 76.427 261.451 76.138 261.451 75.903 261.054 76.119 260.91 76.203" fill="none" stroke="#5e7ce2" stroke-linecap="round" stroke-linejoin="round"/><polygon points="260.91 76.203 261.054 76.119 260.91 76.198 260.91 76.203" fill="none" stroke="#5e7ce2" stroke-linecap="round" stroke-linejoin="round"/><polygon points="257.573 78.017 257.569 78.143 260.91 76.203 260.91 76.198 257.573 78.017" fill="none" stroke="#5e7ce2" stroke-linecap="round" stroke-linejoin="round"/><polygon points="257.567 78.208 260.908 76.427 260.91 76.203 257.569 78.143 257.567 78.208" fill="none" stroke="#5e7ce2" stroke-linecap="round" stroke-linejoin="round"/><polygon points="258.177 57.479 284.977 43.406 258.181 57.341 258.177 57.479" fill="none" stroke="#5e7ce2" stroke-linecap="round" stroke-linejoin="round"/><polygon points="258.097 60.191 258.163 57.963 257.61 58.256 257.553 60.481 258.097 60.191" fill="none" stroke="#5e7ce2" stroke-linecap="round" stroke-linejoin="round"/><polygon points="258.097 60.191 257.553 60.481 257.495 62.706 258.032 62.419 258.097 60.191" fill="none" stroke="#5e7ce2" stroke-linecap="round" stroke-linejoin="round"/><polygon points="258.032 62.419 257.495 62.706 257.456 64.201 257.979 64.214 258.032 62.419" fill="none" stroke="#5e7ce2" stroke-linecap="round" stroke-linejoin="round"/><polygon points="257.979 64.214 257.456 64.201 257.438 64.931 257.966 64.647 257.979 64.214" fill="none" stroke="#5e7ce2" stroke-linecap="round" stroke-linejoin="round"/><polygon points="257.966 64.647 257.438 64.931 257.38 67.155 257.901 66.876 257.966 64.647" fill="none" stroke="#5e7ce2" stroke-linecap="round" stroke-linejoin="round"/><polygon points="257.835 69.104 257.901 66.876 257.38 67.155 257.323 69.363 257.354 69.363 257.835 69.104" fill="none" stroke="#5e7ce2" stroke-linecap="round" stroke-linejoin="round"/><polygon points="257.835 69.104 257.354 69.363 257.827 69.363 257.835 69.104" fill="none" stroke="#5e7ce2" stroke-linecap="round" stroke-linejoin="round"/><polygon points="257.638 75.789 257.15 76.054 257.149 76.073 257.638 75.791 257.638 75.789" fill="none" stroke="#5e7ce2" stroke-linecap="round" stroke-linejoin="round"/><polygon points="257.638 75.789 257.668 74.76 257.176 75.05 257.15 76.054 257.638 75.789" fill="none" stroke="#5e7ce2" stroke-linecap="round" stroke-linejoin="round"/><polygon points="257.149 76.073 257.092 78.279 257.573 78.017 257.638 75.791 257.149 76.073" fill="none" stroke="#5e7ce2" stroke-linecap="round" stroke-linejoin="round"/><polygon points="257.827 69.363 257.354 69.363 257.322 69.38 257.265 71.605 257.769 71.332 257.827 69.363" fill="none" stroke="#5e7ce2" stroke-linecap="round" stroke-linejoin="round"/><polygon points="257.354 69.363 257.323 69.363 257.322 69.38 257.354 69.363" fill="none" stroke="#5e7ce2" stroke-linecap="round" stroke-linejoin="round"/><polygon points="257.769 71.332 257.265 71.605 257.214 73.569 257.712 73.275 257.769 71.332" fill="none" stroke="#5e7ce2" stroke-linecap="round" stroke-linejoin="round"/><polygon points="257.704 73.56 257.207 73.83 257.176 75.05 257.668 74.76 257.704 73.56" fill="none" stroke="#5e7ce2" stroke-linecap="round" stroke-linejoin="round"/><polygon points="257.712 73.275 257.214 73.569 257.207 73.83 257.704 73.56 257.712 73.275" fill="none" stroke="#5e7ce2" stroke-linecap="round" stroke-linejoin="round"/><polygon points="258.032 62.419 284.348 48.363 284.405 46.182 258.097 60.191 258.032 62.419" fill="none" stroke="#5e7ce2" stroke-linecap="round" stroke-linejoin="round" stroke-width="0.5"/><polygon points="284.405 46.182 284.461 44 258.163 57.963 258.097 60.191 284.405 46.182" fill="none" stroke="#5e7ce2" stroke-linecap="round" stroke-linejoin="round" stroke-width="0.5"/><polygon points="258.739 64.234 257.966 64.647 257.901 66.876 262.63 64.334 284.235 52.727 284.292 50.545 258.739 64.234" fill="none" stroke="#5e7ce2" stroke-linecap="round" stroke-linejoin="round" stroke-width="0.5"/><polygon points="262.419 64.379 257.689 66.921 257.623 69.149 266.289 64.48 283.968 54.943 284.024 52.772 262.419 64.379" fill="none" stroke="#5e7ce2" stroke-linecap="round" stroke-linejoin="round" stroke-width="0.5"/><polygon points="258.032 62.419 257.979 64.214 257.966 64.647 258.739 64.234 284.292 50.545 284.348 48.363 258.032 62.419" fill="none" stroke="#5e7ce2" stroke-linecap="round" stroke-linejoin="round" stroke-width="0.5"/><polygon points="257.719 75.745 257.638 75.789 257.638 75.791 257.719 75.745" fill="none" stroke="#5e7ce2" stroke-linecap="round" stroke-linejoin="round"/><polygon points="261.054 76.119 261.451 75.903 261.451 75.888 261.054 76.119" fill="none" stroke="#5e7ce2" stroke-linecap="round" stroke-linejoin="round"/><polygon points="278.397 64.529 261.451 73.716 260.929 74 257.719 75.745 257.638 75.791 257.573 78.017 260.91 76.198 261.054 76.119 261.451 75.888 261.451 75.903 283.953 63.636 284.009 61.468 278.397 64.529" fill="none" stroke="#5e7ce2" stroke-linecap="round" stroke-linejoin="round" stroke-width="0.5"/><polygon points="266.372 64.482 266.289 64.48 257.623 69.149 257.616 69.408 257.558 71.377 261.202 69.408 270.137 64.579 283.911 57.135 283.967 54.951 266.372 64.482" fill="none" stroke="#5e7ce2" stroke-linecap="round" stroke-linejoin="round" stroke-width="0.5"/><polygon points="270.348 64.534 261.414 69.363 257.769 71.332 257.712 73.275 257.704 73.56 260.948 71.802 265.448 69.363 274.175 64.633 284.066 59.272 284.122 57.091 270.348 64.534" fill="none" stroke="#5e7ce2" stroke-linecap="round" stroke-linejoin="round" stroke-width="0.5"/><polygon points="274.175 64.633 265.448 69.363 260.948 71.802 257.704 73.56 257.668 74.76 257.638 75.789 257.719 75.745 260.929 74 261.451 73.716 284.009 61.468 284.066 59.272 274.175 64.633" fill="none" stroke="#5e7ce2" stroke-linecap="round" stroke-linejoin="round" stroke-width="0.5"/><polygon points="257.71 52.703 257.752 52.772 256.979 52.752 32.216 46.933 27.094 46.801 26 46.772 24.491 46.733 23.304 46.703 23.226 49.702 23.226 49.702 23.2 50.701 23.174 51.701 22.569 75.097 22.553 75.693 22.542 76.125 243.209 81.838 245.534 81.898 246.979 81.935 250.865 82.036 254.696 82.135 256.99 82.194 257.002 81.762 257.028 80.771 257.088 78.422 257.092 78.279 257.149 76.073 257.15 76.054 257.176 75.05 257.207 73.83 257.214 73.569 257.265 71.605 257.322 69.38 257.323 69.363 257.38 67.155 257.438 64.931 257.456 64.201 257.495 62.706 257.553 60.481 257.61 58.256 257.62 57.861 257.675 57.863 257.754 52.704 257.71 52.703" fill="none" stroke="#5e7ce2" stroke-linecap="round" stroke-linejoin="round"/><polygon points="257.681 52.702 257.71 52.703 256.529 50.798 256.76 51.8 257.681 52.702" fill="none" stroke="#5e7ce2" stroke-linecap="round" stroke-linejoin="round"/><polygon points="256.529 50.798 251.409 42.537 245.739 33.387 243.219 29.32 34.219 23.91 18.835 23.512 8.771 23.251 14.441 32.401 21.63 32.587 30.424 32.815 40.788 33.083 242.986 38.317 247.185 42.427 256.76 51.8 256.529 50.798" fill="none" stroke="#5e7ce2" stroke-linecap="round" stroke-linejoin="round"/><polygon points="257.752 52.772 257.71 52.703 257.681 52.702 257.752 52.772" fill="none" stroke="#5e7ce2" stroke-linecap="round" stroke-linejoin="round"/><polygon points="256.76 51.8 256.963 52.684 257.681 52.702 256.76 51.8" fill="none" stroke="#5e7ce2" stroke-linecap="round" stroke-linejoin="round"/><polygon points="256.76 51.8 247.185 42.427 242.986 38.317 40.788 33.083 30.424 32.815 21.63 32.587 14.441 32.401 8.538 32.248 23.304 46.703 23.306 46.635 24.52 46.667 25.979 46.704 27.16 46.735 32.338 46.869 256.963 52.684 256.76 51.8" fill="#5e7ce2"/><polygon points="24.52 46.667 23.306 46.635 23.304 46.703 24.491 46.733 24.52 46.667" fill="none" stroke="#5e7ce2" stroke-linecap="round" stroke-linejoin="round"/><polygon points="24.52 46.667 24.491 46.733 26 46.772 25.979 46.704 24.52 46.667" fill="none" stroke="#5e7ce2" stroke-linecap="round" stroke-linejoin="round"/><polygon points="256.963 52.684 256.979 52.752 257.752 52.772 257.681 52.702 256.963 52.684" fill="none" stroke="#5e7ce2" stroke-linecap="round" stroke-linejoin="round"/><polygon points="27.16 46.735 25.979 46.704 26 46.772 27.094 46.801 27.16 46.735" fill="none" stroke="#5e7ce2" stroke-linecap="round" stroke-linejoin="round"/><polygon points="27.16 46.735 27.094 46.801 32.216 46.933 32.338 46.869 27.16 46.735" fill="none" stroke="#5e7ce2" stroke-linecap="round" stroke-linejoin="round"/></svg>