<svg xmlns="http://www.w3.org/2000/svg" viewBox="0 0 182.078 263.791"><title>start-light</title><circle cx="91.762" cy="173.475" r="90.296" fill="#5e7ce2"/><path d="M62.085,113.155C43.852,91.162,35.232,70.982,49.545,49.549" fill="none" stroke="#5e7ce2" stroke-linejoin="round" stroke-width="16"/><path d="M71.491,94.075l-.032.016c-1.264.622-2.572,1.2-3.887,1.712L56.642,67.866c.534-.209,1.063-.443,1.573-.694ZM88.264,80.626,64.86,61.858c.354-.441.692-.9,1.007-1.374L90.825,77.128C90.026,78.327,89.165,79.5,88.264,80.626ZM46.308,99.09C44.866,99,43.415,98.835,42,98.615l4.591-29.646c.555.086,1.125.149,1.694.186ZM98.6,57.147,68.961,52.532c.088-.56.151-1.13.189-1.695l29.932,2C98.987,54.273,98.825,55.723,98.6,57.147ZM22.012,90.861c-1.2-.8-2.385-1.663-3.512-2.566L37.257,64.881c.439.352.9.688,1.366,1Zm73.81-59.278L67.864,42.461c-.208-.534-.442-1.066-.7-1.582l-.065-.132L94.022,27.5l.065.131C94.72,28.922,95.3,30.25,95.822,31.583ZM5.035,71.528,5,71.463c-.615-1.25-1.185-2.541-1.694-3.84L31.237,56.667c.206.526.437,1.049.685,1.552ZM61.81,34.2c-.447-.355-.913-.7-1.389-1.01L77,8.185c1.2.793,2.372,1.649,3.5,2.543ZM29.938,48.3,0,46.368c.092-1.438.251-2.89.469-4.313l29.653,4.551C30.036,47.166,29.974,47.736,29.938,48.3ZM52.475,30.124c-.568-.086-1.145-.149-1.712-.185L52.681,0c1.43.092,2.876.248,4.3.464ZM33.193,38.659,8.212,22.047c.8-1.2,1.658-2.379,2.551-3.5L34.2,37.277C33.85,37.716,33.511,38.181,33.193,38.659Zm9.214-7.411c-.495.194-.985.41-1.46.641l-.171.085-6.942-14.11L27.279,5.185l.352-.179c1.232-.606,2.507-1.169,3.791-1.675ZM33.834,17.864l.321.651Z" fill="#5e7ce2"/></svg>