<svg xmlns="http://www.w3.org/2000/svg" viewBox="0 0 188.217 263.368"><title>start-light-2</title><circle cx="105.157" cy="180.307" r="83.042" fill="#5e7ce2"/><path d="M77.864,124.832c-16.769-20.225-24.7-38.785-11.533-58.5" fill="none" stroke="#5e7ce2" stroke-linejoin="round" stroke-width="16"/><path d="M95.713,125.949l-.043.021c-1.692.832-3.443,1.6-5.2,2.292l-14.633-37.4c.714-.28,1.423-.592,2.106-.928Zm22.456-18.006L86.836,82.816c.473-.59.926-1.209,1.347-1.84L121.6,103.26C120.528,104.865,119.375,106.44,118.169,107.943ZM62,132.663c-1.93-.127-3.873-.341-5.774-.636L62.37,92.336c.743.116,1.506.2,2.267.249Zm70.015-56.154L92.326,70.33c.117-.749.2-1.512.252-2.268l40.075,2.674C132.524,72.661,132.308,74.6,132.012,76.509ZM29.469,121.646c-1.61-1.072-3.192-2.227-4.7-3.436L49.88,86.864c.587.47,1.2.92,1.829,1.336Zm98.819-79.362L90.857,56.847c-.279-.714-.592-1.427-.932-2.118l-.086-.176,36.039-17.731.086.176C126.812,38.721,127.593,40.5,128.288,42.284ZM6.741,95.762,6.7,95.675C5.875,94,5.112,92.274,4.43,90.534L41.821,75.866c.275.7.584,1.4.916,2.079ZM82.752,45.785c-.6-.476-1.223-.931-1.86-1.353l22.2-33.474c1.6,1.062,3.175,2.208,4.68,3.4ZM40.081,64.665,0,62.078c.123-1.926.336-3.869.628-5.774l39.7,6.093C40.212,63.146,40.13,63.909,40.081,64.665ZM70.254,40.33c-.761-.115-1.532-.2-2.292-.247L70.53,0c1.914.123,3.85.332,5.754.621ZM44.44,51.756,11,29.516c1.069-1.608,2.219-3.184,3.415-4.682L45.789,49.906C45.318,50.5,44.864,51.118,44.44,51.756Zm12.336-9.921c-.663.26-1.32.549-1.956.859l-.228.113L45.3,23.916,36.521,6.942l.471-.239c1.65-.812,3.358-1.566,5.076-2.243ZM45.3,23.916l.429.872Z" fill="#5e7ce2"/><path d="M65.168,145.132s-19.047,17.114-15.044,47.38S82.479,228.65,82.479,228.65" fill="none" stroke="#fff" stroke-linecap="round" stroke-linejoin="round" stroke-width="25"/></svg>