<svg xmlns="http://www.w3.org/2000/svg" viewBox="0 0 204.929 269.763"><title>start-dark-2</title><circle cx="129.124" cy="167.797" r="75.788" fill="#00f7e5"/><path d="M87.666,269.3a109.743,109.743,0,0,1-27.777-16.452c-.627-.509-5.377,2.223-5.377,2.223l12.167-15.783s-11.988,9.063-12.785,8.312a109.433,109.433,0,0,1-23.151-31.4c-.308-.627,6.715-7.048,6.715-7.048l-20.935,2.486,20.352-15.417L2.338,198.545s19.087-9.982,18.8-11.6A109.228,109.228,0,0,1,21.1,149" fill="none" stroke="#00f7e5" stroke-miterlimit="10"/><path d="M104.215,117.168c-15.3-18.459-22.539-35.4-10.526-53.387" fill="none" stroke="#00f7e5" stroke-linejoin="round" stroke-width="16"/><path d="M121.94,121.1l-.042.02c-1.626.8-3.31,1.542-5,2.2L102.825,87.36c.687-.269,1.369-.57,2.026-.893Zm21.591-17.312L113.4,79.627c.456-.567.891-1.163,1.3-1.77l32.128,21.427C145.8,100.826,144.691,102.341,143.531,103.786ZM89.523,127.554c-1.856-.123-3.724-.329-5.552-.612l5.91-38.162c.715.111,1.448.192,2.18.239Zm67.318-53.992-38.157-5.94c.112-.721.193-1.454.242-2.182l38.531,2.571C157.334,69.862,157.126,71.73,156.841,73.562Zm-98.594,43.4c-1.547-1.031-3.069-2.141-4.519-3.3L77.872,83.518c.565.453,1.157.885,1.759,1.286ZM153.26,40.655l-35.989,14c-.268-.686-.569-1.372-.9-2.036l-.083-.169L150.943,35.4l.083.169C151.841,37.229,152.592,38.939,153.26,40.655ZM36.394,92.074l-.041-.084c-.791-1.608-1.525-3.27-2.181-4.942l35.951-14.1c.265.678.562,1.35.881,2Zm73.084-48.052c-.575-.458-1.176-.895-1.789-1.3l21.343-32.185c1.539,1.021,3.053,2.123,4.5,3.274ZM68.45,62.174,29.913,59.688c.119-1.852.323-3.721.6-5.553l38.17,5.859C68.576,60.714,68.5,61.448,68.45,62.174Zm29.011-23.4c-.731-.111-1.473-.192-2.2-.238L97.727,0c1.84.119,3.7.32,5.532.6ZM72.641,49.763,40.484,28.379c1.028-1.546,2.134-3.061,3.284-4.5L73.939,47.984C73.486,48.55,73.05,49.149,72.641,49.763ZM84.5,40.224c-.637.25-1.269.527-1.88.825l-.22.11L73.466,23,65.028,6.674l.453-.23c1.585-.78,3.228-1.5,4.88-2.156ZM73.466,23l.413.838Z" fill="#00f7e5"/><path d="M92.628,135.694S75.245,151.313,78.9,178.935s31.089,34.79,31.089,34.79" fill="none" stroke="#fff" stroke-linecap="round" stroke-linejoin="round" stroke-width="25"/></svg>