<svg xmlns="http://www.w3.org/2000/svg" viewBox="0 0 333.913 233.888"><title>theme-dark-2</title><rect x="22.109" y="22.636" width="289.696" height="188.615" rx="94.308" fill="none" stroke="#00f7e5" stroke-miterlimit="10" stroke-width="3"/><path d="M216.969,10A106.944,106.944,0,0,1,323.913,116.944h0A106.944,106.944,0,0,1,216.969,223.888H116.944A106.944,106.944,0,0,1,10,116.944h0A106.944,106.944,0,0,1,116.944,10H216.969m0-10H116.944A116.944,116.944,0,0,0,34.252,199.636a116.178,116.178,0,0,0,82.692,34.252H216.969A116.944,116.944,0,0,0,299.661,34.252,116.178,116.178,0,0,0,216.969,0Z" fill="#00f7e5"/><circle cx="218.034" cy="116.944" r="79.347" fill="none" stroke="#00f7e5" stroke-miterlimit="10" stroke-width="5"/><path d="M182.1,118.648a15,15,0,0,1-15-15h-9.461a24.457,24.457,0,1,0,48.913,0h-9.461A15,15,0,0,1,182.1,118.648Z" fill="none" stroke="#00f7e5" stroke-miterlimit="10" stroke-width="2"/><path d="M268.964,103.652a15,15,0,1,1-29.991,0h-9.461a24.457,24.457,0,1,0,48.913,0Z" fill="none" stroke="#00f7e5" stroke-miterlimit="10" stroke-width="2"/><path d="M182.1,118.648a15,15,0,0,0,15-15H167.1A15,15,0,0,0,182.1,118.648Z" fill="#00f7e5"/><path d="M253.969,118.648a15,15,0,0,0,15-15H238.973A15,15,0,0,0,253.969,118.648Z" fill="#00f7e5"/><path d="M182.1,79.2a24.456,24.456,0,0,0-24.457,24.456h48.913A24.456,24.456,0,0,0,182.1,79.2Z" fill="none" stroke="#00f7e5" stroke-miterlimit="10" stroke-width="2"/><path d="M253.969,79.2a24.456,24.456,0,0,0-24.457,24.456h48.913A24.456,24.456,0,0,0,253.969,79.2Z" fill="none" stroke="#00f7e5" stroke-miterlimit="10" stroke-width="2"/><polygon points="218.034 142.196 206.555 153.935 229.512 153.935 218.034 142.196" fill="#00f7e5"/></svg>