<svg xmlns="http://www.w3.org/2000/svg" viewBox="0 0 316 216.392"><title>theme-dark</title><rect x="13.152" y="13.888" width="289.696" height="188.615" rx="94.308" fill="none" stroke="#00f7e5" stroke-miterlimit="10"/><path d="M207.8,8A100.2,100.2,0,0,1,308,108.2h0a100.2,100.2,0,0,1-100.2,100.2H108.2A100.2,100.2,0,0,1,8,108.2H8A100.2,100.2,0,0,1,108.2,8H207.8m0-8H108.2A108.2,108.2,0,0,0,31.69,184.7a107.487,107.487,0,0,0,76.506,31.69H207.8A108.2,108.2,0,0,0,284.31,31.69,107.483,107.483,0,0,0,207.8,0Z" fill="#00f7e5"/><circle cx="209.077" cy="108.196" r="79.347" fill="none" stroke="#00f7e5" stroke-miterlimit="10" stroke-width="5"/><path d="M173.142,109.9a15,15,0,0,1-15-15h-9.46a24.457,24.457,0,0,0,48.913,0h-9.462A14.994,14.994,0,0,1,173.142,109.9Z" fill="none" stroke="#00f7e5" stroke-miterlimit="10"/><path d="M260.008,94.9a15,15,0,0,1-29.991,0h-9.461a24.457,24.457,0,0,0,48.913,0Z" fill="none" stroke="#00f7e5" stroke-miterlimit="10"/><path d="M173.142,109.9a14.994,14.994,0,0,0,15-15H158.146A15,15,0,0,0,173.142,109.9Z" fill="#00f7e5"/><path d="M245.012,109.9a15,15,0,0,0,15-15H230.017A14.994,14.994,0,0,0,245.012,109.9Z" fill="#00f7e5"/><path d="M173.142,70.447A24.456,24.456,0,0,0,148.686,94.9H197.6A24.457,24.457,0,0,0,173.142,70.447Z" fill="none" stroke="#00f7e5" stroke-miterlimit="10"/><path d="M245.012,70.447A24.456,24.456,0,0,0,220.556,94.9h48.913A24.457,24.457,0,0,0,245.012,70.447Z" fill="none" stroke="#00f7e5" stroke-miterlimit="10"/><polygon points="209.077 133.447 197.598 145.186 220.556 145.186 209.077 133.447" fill="#00f7e5"/></svg>