<svg xmlns="http://www.w3.org/2000/svg" viewBox="0 0 333.913 233.888"><title>theme-light-2</title><rect x="22.109" y="22.636" width="289.696" height="188.615" rx="94.308" fill="none" stroke="#5e7ce2" stroke-miterlimit="10" stroke-width="3"/><circle cx="117.965" cy="116.944" r="79.347" fill="none" stroke="#5e7ce2" stroke-miterlimit="10" stroke-width="5"/><path d="M149.337,144.261a43.006,43.006,0,0,1,3.155-16.2,24.455,24.455,0,1,1,25.861-24.571,43.059,43.059,0,0,1,14.131-2.38c1.1,0,2.188.055,3.269.136a79.357,79.357,0,0,0-155.581.027c1.194-.1,2.4-.163,3.616-.163a43.073,43.073,0,0,1,13.792,2.265A24.454,24.454,0,1,1,83.771,128.04a43.135,43.135,0,0,1-14.832,51.268,79.256,79.256,0,0,0,98.214-.127A43.082,43.082,0,0,1,149.337,144.261Z" fill="none" stroke="#5e7ce2" stroke-miterlimit="10"/><path d="M197.312,116.944a79.714,79.714,0,0,0-1.559-15.694c-1.081-.081-2.168-.136-3.269-.136a43.059,43.059,0,0,0-14.131,2.38c0,.053,0,.105,0,.158A24.457,24.457,0,0,1,153.9,128.109c-.473,0-.942-.017-1.408-.044a43.135,43.135,0,0,0,14.661,51.116A79.184,79.184,0,0,0,197.312,116.944Z" fill="none" stroke="#5e7ce2" stroke-miterlimit="10"/><circle cx="192.484" cy="144.261" r="16.152" fill="#fff" stroke="#5e7ce2" stroke-miterlimit="10" stroke-width="3"/><path d="M86.935,144.261a43.012,43.012,0,0,0-3.164-16.221c-.576.041-1.155.069-1.741.069a24.457,24.457,0,0,1-24.457-24.457c0-.091.006-.181.007-.273a43.073,43.073,0,0,0-13.792-2.265c-1.219,0-2.422.064-3.616.163a79.373,79.373,0,0,0,28.767,78.031A43.078,43.078,0,0,0,86.935,144.261Z" fill="none" stroke="#5e7ce2" stroke-miterlimit="10"/><circle cx="43.788" cy="144.261" r="16.152" fill="#fff" stroke="#5e7ce2" stroke-miterlimit="10" stroke-width="3"/><path d="M82.03,79.2a24.453,24.453,0,0,0-24.45,24.183c0,.092-.007.182-.007.273A24.457,24.457,0,0,0,82.03,128.109c.586,0,1.165-.028,1.741-.069A24.453,24.453,0,0,0,82.03,79.2Zm0,39.452a15,15,0,1,1,15-15A14.951,14.951,0,0,1,82.03,118.648Z" fill="none" stroke="#5e7ce2" stroke-miterlimit="10" stroke-width="2"/><path d="M178.353,103.494a24.455,24.455,0,1,0-25.861,24.571c.466.027.935.044,1.408.044a24.457,24.457,0,0,0,24.457-24.457C178.357,103.6,178.353,103.547,178.353,103.494ZM158.26,118a15.067,15.067,0,1,1,9.729-9.252A14.982,14.982,0,0,1,158.26,118Z" fill="none" stroke="#5e7ce2" stroke-miterlimit="10" stroke-width="2"/><path d="M82.03,88.657a15,15,0,1,0,15,15A15,15,0,0,0,82.03,88.657Z" fill="#5e7ce2"/><path d="M153.9,88.657a14.96,14.96,0,1,0,15,15A14.994,14.994,0,0,0,153.9,88.657Z" fill="#5e7ce2"/><polygon points="117.965 153.935 129.444 142.196 106.486 142.196 117.965 153.935" fill="#5e7ce2"/><path d="M216.969,10A106.944,106.944,0,0,1,323.913,116.944h0A106.944,106.944,0,0,1,216.969,223.888H116.944A106.944,106.944,0,0,1,10,116.944h0A106.944,106.944,0,0,1,116.944,10H216.969m0-10H116.944A116.944,116.944,0,0,0,34.252,199.636a116.178,116.178,0,0,0,82.692,34.252H216.969A116.944,116.944,0,0,0,299.661,34.252,116.178,116.178,0,0,0,216.969,0Z" fill="#5e7ce2"/></svg>