<svg xmlns="http://www.w3.org/2000/svg" viewBox="0 0 316 216.392"><title>theme-light</title><rect x="13.152" y="13.888" width="289.696" height="188.615" rx="94.308" fill="none" stroke="#5e7ce2" stroke-miterlimit="10"/><path d="M207.8,8A100.2,100.2,0,0,1,308,108.2h0a100.2,100.2,0,0,1-100.2,100.2H108.2A100.2,100.2,0,0,1,8,108.2H8A100.2,100.2,0,0,1,108.2,8H207.8m0-8H108.2A108.2,108.2,0,0,0,31.69,184.7a107.487,107.487,0,0,0,76.506,31.69H207.8A108.2,108.2,0,0,0,284.31,31.69,107.483,107.483,0,0,0,207.8,0Z" fill="#5e7ce2"/><circle cx="109.008" cy="108.196" r="79.347" fill="none" stroke="#5e7ce2" stroke-miterlimit="10" stroke-width="5"/><path d="M140.381,135.513a43,43,0,0,1,3.154-16.2A24.455,24.455,0,1,1,169.4,94.746a43.063,43.063,0,0,1,14.131-2.38c1.1,0,2.189.055,3.269.136a79.357,79.357,0,0,0-155.58.026c1.193-.1,2.4-.162,3.616-.162a43.073,43.073,0,0,1,13.792,2.265,24.454,24.454,0,1,1,26.19,24.661A43.135,43.135,0,0,1,59.982,170.56a79.256,79.256,0,0,0,98.215-.128A43.076,43.076,0,0,1,140.381,135.513Z" fill="none" stroke="#5e7ce2" stroke-miterlimit="10"/><path d="M188.355,108.2A79.706,79.706,0,0,0,186.8,92.5c-1.08-.081-2.168-.136-3.269-.136a43.063,43.063,0,0,0-14.131,2.38c0,.053,0,.105,0,.158a24.456,24.456,0,0,1-24.456,24.456c-.474,0-.943-.017-1.409-.043A43.137,43.137,0,0,0,158.2,170.432,79.181,79.181,0,0,0,188.355,108.2Z" fill="none" stroke="#5e7ce2" stroke-miterlimit="10"/><circle cx="183.527" cy="135.513" r="16.152" fill="#fff" stroke="#5e7ce2" stroke-miterlimit="10" stroke-width="3"/><path d="M77.978,135.513a43.008,43.008,0,0,0-3.164-16.221c-.576.04-1.155.068-1.741.068A24.456,24.456,0,0,1,48.617,94.9c0-.092.006-.182.007-.273a43.073,43.073,0,0,0-13.792-2.265c-1.219,0-2.423.063-3.616.162A79.376,79.376,0,0,0,59.982,170.56,43.079,43.079,0,0,0,77.978,135.513Z" fill="none" stroke="#5e7ce2" stroke-miterlimit="10"/><circle cx="34.832" cy="135.513" r="16.152" fill="#fff" stroke="#5e7ce2" stroke-miterlimit="10" stroke-width="3"/><path d="M73.073,70.447A24.453,24.453,0,0,0,48.624,94.631c0,.091-.007.181-.007.273A24.456,24.456,0,0,0,73.073,119.36c.586,0,1.165-.028,1.741-.068a24.453,24.453,0,0,0-1.741-48.845Zm0,39.452a15,15,0,1,1,15-15A15,15,0,0,1,73.073,109.9Z" fill="none" stroke="#5e7ce2" stroke-miterlimit="10"/><path d="M169.4,94.746a24.455,24.455,0,1,0-25.861,24.571c.466.026.935.043,1.409.043A24.456,24.456,0,0,0,169.4,94.9C169.4,94.851,169.4,94.8,169.4,94.746ZM149.3,109.251A15.067,15.067,0,1,1,159.032,100,15.009,15.009,0,0,1,149.3,109.251Z" fill="none" stroke="#5e7ce2" stroke-miterlimit="10"/><path d="M73.073,79.908a15,15,0,1,0,15,15A15,15,0,0,0,73.073,79.908Z" fill="#5e7ce2"/><path d="M144.944,79.908a14.961,14.961,0,1,0,15,15A15,15,0,0,0,144.944,79.908Z" fill="#5e7ce2"/><polygon points="109.008 145.186 120.487 133.447 97.53 133.447 109.008 145.186" fill="#5e7ce2"/></svg>