<svg xmlns="http://www.w3.org/2000/svg" viewBox="0 0 297 225.5"><title>work-dark</title><polygon points="248.5 143.933 12.37 160.933 12.5 14.5 248.5 1.5 248.5 143.933" fill="none" stroke="#00f7e5" stroke-linecap="round" stroke-linejoin="round" stroke-width="3"/><polygon points="243 132.582 17.87 148.791 17.994 20.292 243 7.898 243 132.582" fill="#00f7e5"/><polygon points="295.5 192.5 1.5 214.5 12.842 161.405 248.138 144.405 295.5 192.5" fill="none" stroke="#00f7e5" stroke-linecap="round" stroke-linejoin="round" stroke-width="3"/><polygon points="289 203.5 9 225.5 9 214.5 289 192.5 289 203.5" fill="#00f7e5"/><polygon points="267.5 163.5 8.5 182.5 12.842 161.405 248.138 144.405 267.5 163.5" fill="none" stroke="#00f7e5" stroke-linecap="round" stroke-linejoin="round" stroke-width="2"/><polygon points="200.731 192.089 96.269 199.905 100.299 181.04 183.902 175 200.731 192.089" fill="none" stroke="#00f7e5" stroke-linecap="round" stroke-linejoin="round"/><polygon points="167.447 158.911 166.017 155.936 152.168 156.948 153.382 159.931 167.447 158.911" fill="none" stroke="#00f7e5" stroke-linecap="round" stroke-linejoin="round"/><polygon points="181.51 157.892 179.865 154.925 166.017 155.936 167.447 158.911 181.51 157.892" fill="none" stroke="#00f7e5" stroke-linecap="round" stroke-linejoin="round"/><polygon points="153.382 159.931 152.168 156.948 138.442 157.951 139.534 160.934 153.382 159.931" fill="none" stroke="#00f7e5" stroke-linecap="round" stroke-linejoin="round"/><polygon points="195.571 156.873 193.712 153.913 179.865 154.925 181.51 157.892 195.571 156.873" fill="none" stroke="#00f7e5" stroke-linecap="round" stroke-linejoin="round"/><polygon points="125.491 161.952 124.606 158.961 110.77 159.972 111.448 162.97 125.491 161.952" fill="none" stroke="#00f7e5" stroke-linecap="round" stroke-linejoin="round"/><polygon points="111.448 162.97 110.77 159.972 96.977 160.98 97.48 163.983 111.448 162.97" fill="none" stroke="#00f7e5" stroke-linecap="round" stroke-linejoin="round"/><polygon points="139.534 160.934 138.442 157.951 124.606 158.961 125.491 161.952 139.534 160.934" fill="none" stroke="#00f7e5" stroke-linecap="round" stroke-linejoin="round"/><polygon points="225.914 157.71 240.099 156.69 237.688 153.82 223.686 154.835 225.914 157.71" fill="none" stroke="#00f7e5" stroke-linecap="round" stroke-linejoin="round"/><polygon points="209.629 155.854 207.559 152.902 193.712 153.913 195.571 156.873 209.629 155.854" fill="none" stroke="#00f7e5" stroke-linecap="round" stroke-linejoin="round"/><polygon points="223.686 154.835 221.404 151.89 207.559 152.902 209.629 155.854 223.686 154.835" fill="none" stroke="#00f7e5" stroke-linecap="round" stroke-linejoin="round"/><polygon points="40.57 173.977 40.219 176.988 54.744 175.96 54.913 172.953 40.57 173.977" fill="none" stroke="#00f7e5" stroke-linecap="round" stroke-linejoin="round"/><polygon points="211.651 158.736 213.673 161.619 228.142 160.586 225.914 157.71 211.651 158.736" fill="none" stroke="#00f7e5" stroke-linecap="round" stroke-linejoin="round"/><polygon points="54.913 172.953 54.744 175.96 69.271 174.932 69.257 171.929 54.913 172.953" fill="none" stroke="#00f7e5" stroke-linecap="round" stroke-linejoin="round"/><polygon points="97.48 163.983 96.977 160.98 83.185 161.987 83.513 164.995 97.48 163.983" fill="none" stroke="#00f7e5" stroke-linecap="round" stroke-linejoin="round"/><polygon points="69.257 171.929 69.271 174.932 84.477 173.856 84.152 170.866 69.257 171.929" fill="none" stroke="#00f7e5" stroke-linecap="round" stroke-linejoin="round"/><polygon points="84.152 170.866 84.477 173.856 98.96 172.831 98.461 169.844 84.152 170.866" fill="none" stroke="#00f7e5" stroke-linecap="round" stroke-linejoin="round"/><polygon points="40.915 171.017 26.752 172.036 26.228 175.001 40.57 173.977 40.915 171.017" fill="none" stroke="#00f7e5" stroke-linecap="round" stroke-linejoin="round"/><polygon points="41.26 168.057 27.276 169.071 26.752 172.036 40.915 171.017 41.26 168.057" fill="none" stroke="#00f7e5" stroke-linecap="round" stroke-linejoin="round"/><polygon points="83.513 164.995 83.185 161.987 69.216 163.008 69.23 166.03 83.513 164.995" fill="none" stroke="#00f7e5" stroke-linecap="round" stroke-linejoin="round"/><polygon points="69.23 166.03 69.216 163.008 55.414 164.016 55.244 167.044 69.23 166.03" fill="none" stroke="#00f7e5" stroke-linecap="round" stroke-linejoin="round"/><polygon points="41.613 165.024 27.814 166.032 27.276 169.071 41.26 168.057 41.613 165.024" fill="none" stroke="#00f7e5" stroke-linecap="round" stroke-linejoin="round"/><polygon points="55.244 167.044 55.414 164.016 41.613 165.024 41.26 168.057 55.244 167.044" fill="none" stroke="#00f7e5" stroke-linecap="round" stroke-linejoin="round"/><polygon points="97.97 166.913 97.48 163.983 83.513 164.995 83.832 167.93 97.97 166.913" fill="none" stroke="#00f7e5" stroke-linecap="round" stroke-linejoin="round"/><polygon points="112.11 165.896 111.448 162.97 97.48 163.983 97.97 166.913 112.11 165.896" fill="none" stroke="#00f7e5" stroke-linecap="round" stroke-linejoin="round"/><polygon points="126.355 164.872 125.491 161.952 111.448 162.97 112.11 165.896 126.355 164.872" fill="none" stroke="#00f7e5" stroke-linecap="round" stroke-linejoin="round"/><polygon points="197.385 159.763 199.2 162.652 213.673 161.619 211.651 158.736 197.385 159.763" fill="none" stroke="#00f7e5" stroke-linecap="round" stroke-linejoin="round"/><polygon points="83.832 167.93 83.513 164.995 69.23 166.03 69.243 168.98 83.832 167.93" fill="none" stroke="#00f7e5" stroke-linecap="round" stroke-linejoin="round"/><polygon points="154.568 162.842 153.382 159.931 139.534 160.934 140.6 163.847 154.568 162.842" fill="none" stroke="#00f7e5" stroke-linecap="round" stroke-linejoin="round"/><polygon points="98.461 169.844 98.96 172.831 113.446 171.805 112.771 168.823 98.461 169.844" fill="none" stroke="#00f7e5" stroke-linecap="round" stroke-linejoin="round"/><polygon points="197.385 159.763 195.571 156.873 181.51 157.892 183.116 160.789 197.385 159.763" fill="none" stroke="#00f7e5" stroke-linecap="round" stroke-linejoin="round"/><polygon points="211.651 158.736 209.629 155.854 195.571 156.873 197.385 159.763 211.651 158.736" fill="none" stroke="#00f7e5" stroke-linecap="round" stroke-linejoin="round"/><polygon points="225.914 157.71 223.686 154.835 209.629 155.854 211.651 158.736 225.914 157.71" fill="none" stroke="#00f7e5" stroke-linecap="round" stroke-linejoin="round"/><polygon points="69.243 168.98 69.23 166.03 55.244 167.044 55.079 169.999 69.243 168.98" fill="none" stroke="#00f7e5" stroke-linecap="round" stroke-linejoin="round"/><polygon points="168.844 161.816 167.447 158.911 153.382 159.931 154.568 162.842 168.844 161.816" fill="none" stroke="#00f7e5" stroke-linecap="round" stroke-linejoin="round"/><polygon points="183.116 160.789 181.51 157.892 167.447 158.911 168.844 161.816 183.116 160.789" fill="none" stroke="#00f7e5" stroke-linecap="round" stroke-linejoin="round"/><polygon points="140.6 163.847 139.534 160.934 125.491 161.952 126.355 164.872 140.6 163.847" fill="none" stroke="#00f7e5" stroke-linecap="round" stroke-linejoin="round"/><polygon points="112.11 165.896 112.771 168.823 127.219 167.791 126.355 164.872 112.11 165.896" fill="none" stroke="#00f7e5" stroke-linecap="round" stroke-linejoin="round"/><polygon points="140.6 163.847 141.667 166.76 155.753 165.754 154.568 162.842 140.6 163.847" fill="none" stroke="#00f7e5" stroke-linecap="round" stroke-linejoin="round"/><polygon points="55.244 167.044 41.26 168.057 40.915 171.017 55.079 169.999 55.244 167.044" fill="none" stroke="#00f7e5" stroke-linecap="round" stroke-linejoin="round"/><polygon points="183.116 160.789 184.722 163.686 199.2 162.652 197.385 159.763 183.116 160.789" fill="none" stroke="#00f7e5" stroke-linecap="round" stroke-linejoin="round"/><polygon points="168.844 161.816 170.24 164.72 184.722 163.686 183.116 160.789 168.844 161.816" fill="none" stroke="#00f7e5" stroke-linecap="round" stroke-linejoin="round"/><polygon points="126.355 164.872 127.219 167.791 141.667 166.76 140.6 163.847 126.355 164.872" fill="none" stroke="#00f7e5" stroke-linecap="round" stroke-linejoin="round"/><polygon points="55.079 169.999 54.913 172.953 69.257 171.929 69.243 168.98 55.079 169.999" fill="none" stroke="#00f7e5" stroke-linecap="round" stroke-linejoin="round"/><polygon points="97.97 166.913 98.461 169.844 112.771 168.823 112.11 165.896 97.97 166.913" fill="none" stroke="#00f7e5" stroke-linecap="round" stroke-linejoin="round"/><polygon points="40.915 171.017 40.57 173.977 54.913 172.953 55.079 169.999 40.915 171.017" fill="none" stroke="#00f7e5" stroke-linecap="round" stroke-linejoin="round"/><polygon points="83.832 167.93 84.152 170.866 98.461 169.844 97.97 166.913 83.832 167.93" fill="none" stroke="#00f7e5" stroke-linecap="round" stroke-linejoin="round"/><polygon points="69.243 168.98 69.257 171.929 84.152 170.866 83.832 167.93 69.243 168.98" fill="none" stroke="#00f7e5" stroke-linecap="round" stroke-linejoin="round"/><polygon points="154.568 162.842 155.753 165.754 170.24 164.72 168.844 161.816 154.568 162.842" fill="none" stroke="#00f7e5" stroke-linecap="round" stroke-linejoin="round"/><polygon points="12.081 178.98 11.5 182 25.164 181.025 25.695 178.016 12.081 178.98" fill="none" stroke="#00f7e5" stroke-linecap="round" stroke-linejoin="round"/><polygon points="26.752 172.036 13.231 173.009 12.661 175.97 26.228 175.001 26.752 172.036" fill="none" stroke="#00f7e5" stroke-linecap="round" stroke-linejoin="round"/><polygon points="25.695 178.016 25.164 181.025 39.871 179.976 40.219 176.988 25.695 178.016" fill="none" stroke="#00f7e5" stroke-linecap="round" stroke-linejoin="round"/><polygon points="40.219 176.988 39.871 179.976 54.578 178.926 54.744 175.96 40.219 176.988" fill="none" stroke="#00f7e5" stroke-linecap="round" stroke-linejoin="round"/><polygon points="26.228 175.001 12.661 175.97 12.081 178.98 25.695 178.016 40.219 176.988 40.57 173.977 26.228 175.001" fill="none" stroke="#00f7e5" stroke-linecap="round" stroke-linejoin="round"/><polygon points="55.414 164.016 55.577 161.108 41.952 162.12 41.613 165.024 55.414 164.016" fill="none" stroke="#00f7e5" stroke-linecap="round" stroke-linejoin="round"/><polygon points="27.276 169.071 13.801 170.048 13.231 173.009 26.752 172.036 27.276 169.071" fill="none" stroke="#00f7e5" stroke-linecap="round" stroke-linejoin="round"/><polygon points="69.216 163.008 69.202 160.096 55.577 161.108 55.414 164.016 69.216 163.008" fill="none" stroke="#00f7e5" stroke-linecap="round" stroke-linejoin="round"/><polygon points="28.326 163.133 14.941 164.127 14.385 167.013 27.814 166.032 28.326 163.133" fill="none" stroke="#00f7e5" stroke-linecap="round" stroke-linejoin="round"/><polygon points="27.814 166.032 14.385 167.013 13.801 170.048 27.276 169.071 27.814 166.032" fill="none" stroke="#00f7e5" stroke-linecap="round" stroke-linejoin="round"/><polygon points="201.053 165.604 202.779 168.352 217.652 167.291 215.74 164.565 201.053 165.604" fill="none" stroke="#00f7e5" stroke-linecap="round" stroke-linejoin="round"/><polygon points="215.74 164.565 217.652 167.291 232.516 166.23 230.42 163.526 215.74 164.565" fill="none" stroke="#00f7e5" stroke-linecap="round" stroke-linejoin="round"/><polygon points="259.446 161.471 244.976 162.495 247.231 165.18 262 164.127 259.446 161.471" fill="none" stroke="#00f7e5" stroke-linecap="round" stroke-linejoin="round"/><polygon points="230.42 163.526 232.516 166.23 247.231 165.18 244.976 162.495 230.42 163.526" fill="none" stroke="#00f7e5" stroke-linecap="round" stroke-linejoin="round"/><polygon points="201.053 165.604 186.362 166.644 171.665 167.684 156.963 168.725 142.754 169.731 128.1 170.768 113.446 171.805 98.96 172.831 84.477 173.856 69.271 174.932 54.744 175.96 54.578 178.926 69.285 177.877 84.794 176.77 99.445 175.725 114.095 174.68 128.944 173.62 143.79 172.561 158.109 171.539 173.008 170.476 187.898 169.414 202.779 168.352 201.053 165.604" fill="none" stroke="#00f7e5" stroke-linecap="round" stroke-linejoin="round"/><polygon points="207.559 152.902 205.504 149.973 191.873 150.985 193.712 153.913 207.559 152.902" fill="none" stroke="#00f7e5" stroke-linecap="round" stroke-linejoin="round"/><polygon points="199.2 162.652 201.053 165.604 215.74 164.565 213.673 161.619 199.2 162.652" fill="none" stroke="#00f7e5" stroke-linecap="round" stroke-linejoin="round"/><polygon points="256.638 158.551 242.51 159.56 228.142 160.586 213.673 161.619 215.74 164.565 230.42 163.526 244.976 162.495 259.446 161.471 256.638 158.551" fill="none" stroke="#00f7e5" stroke-linecap="round" stroke-linejoin="round"/><polygon points="253.894 155.698 251.15 152.844 237.688 153.82 240.099 156.69 225.914 157.71 228.142 160.586 242.51 159.56 256.638 158.551 253.894 155.698" fill="none" stroke="#00f7e5" stroke-linecap="round" stroke-linejoin="round"/><polygon points="170.24 164.72 171.665 167.684 186.362 166.644 184.722 163.686 170.24 164.72" fill="none" stroke="#00f7e5" stroke-linecap="round" stroke-linejoin="round"/><polygon points="141.667 166.76 142.754 169.731 156.963 168.725 155.753 165.754 141.667 166.76" fill="none" stroke="#00f7e5" stroke-linecap="round" stroke-linejoin="round"/><polygon points="83.185 161.987 82.869 159.081 69.202 160.096 69.216 163.008 83.185 161.987" fill="none" stroke="#00f7e5" stroke-linecap="round" stroke-linejoin="round"/><polygon points="184.722 163.686 186.362 166.644 201.053 165.604 199.2 162.652 184.722 163.686" fill="none" stroke="#00f7e5" stroke-linecap="round" stroke-linejoin="round"/><polygon points="248.34 149.923 235.219 150.881 221.404 151.89 223.686 154.835 237.688 153.82 251.15 152.844 248.34 149.923" fill="none" stroke="#00f7e5" stroke-linecap="round" stroke-linejoin="round"/><polygon points="155.753 165.754 156.963 168.725 171.665 167.684 170.24 164.72 155.753 165.754" fill="none" stroke="#00f7e5" stroke-linecap="round" stroke-linejoin="round"/><polygon points="127.219 167.791 128.1 170.768 142.754 169.731 141.667 166.76 127.219 167.791" fill="none" stroke="#00f7e5" stroke-linecap="round" stroke-linejoin="round"/><polygon points="248.34 149.923 245.529 147 232.756 147.949 235.219 150.881 248.34 149.923" fill="none" stroke="#00f7e5" stroke-linecap="round" stroke-linejoin="round"/><polygon points="138.442 157.951 137.374 155.033 123.743 156.046 124.606 158.961 138.442 157.951" fill="none" stroke="#00f7e5" stroke-linecap="round" stroke-linejoin="round"/><polygon points="152.168 156.948 150.977 154.023 137.374 155.033 138.442 157.951 152.168 156.948" fill="none" stroke="#00f7e5" stroke-linecap="round" stroke-linejoin="round"/><polygon points="166.017 155.936 164.61 153.01 150.977 154.023 152.168 156.948 166.017 155.936" fill="none" stroke="#00f7e5" stroke-linecap="round" stroke-linejoin="round"/><polygon points="96.977 160.98 96.49 158.07 82.869 159.081 83.185 161.987 96.977 160.98" fill="none" stroke="#00f7e5" stroke-linecap="round" stroke-linejoin="round"/><polygon points="124.606 158.961 123.743 156.046 110.112 157.058 110.77 159.972 124.606 158.961" fill="none" stroke="#00f7e5" stroke-linecap="round" stroke-linejoin="round"/><polygon points="235.219 150.881 232.756 147.949 219.134 148.96 221.404 151.89 235.219 150.881" fill="none" stroke="#00f7e5" stroke-linecap="round" stroke-linejoin="round"/><polygon points="221.404 151.89 219.134 148.96 205.504 149.973 207.559 152.902 221.404 151.89" fill="none" stroke="#00f7e5" stroke-linecap="round" stroke-linejoin="round"/><polygon points="193.712 153.913 191.873 150.985 178.242 151.998 179.865 154.925 193.712 153.913" fill="none" stroke="#00f7e5" stroke-linecap="round" stroke-linejoin="round"/><polygon points="112.771 168.823 113.446 171.805 128.1 170.768 127.219 167.791 112.771 168.823" fill="none" stroke="#00f7e5" stroke-linecap="round" stroke-linejoin="round"/><path d="M29.186,39.736a2.334,2.334,0,0,1-1.039-.155A1.978,1.978,0,0,1,27.362,39a2.805,2.805,0,0,1-.5-.96,4.369,4.369,0,0,1-.179-1.3,3.91,3.91,0,0,1,.216-1.332,3.4,3.4,0,0,1,.564-1.022,2.619,2.619,0,0,1,.8-.664,2.218,2.218,0,0,1,.924-.269,1.812,1.812,0,0,1,.8.109,1.934,1.934,0,0,1,.6.41l.048,0-.1-.858V31.168l2.063-.117v8.343l-1.679.1-.144-.543-.049,0a2.721,2.721,0,0,1-.725.546A2.015,2.015,0,0,1,29.186,39.736Zm.54-1.71a1.132,1.132,0,0,0,.45-.116.985.985,0,0,0,.366-.363V35.341a.91.91,0,0,0-.378-.207,1.382,1.382,0,0,0-.414-.035.931.931,0,0,0-.672.362,1.757,1.757,0,0,0-.288,1.132,1.937,1.937,0,0,0,.246,1.137A.757.757,0,0,0,29.726,38.026Z"/><path d="M37.334,39.261a3.992,3.992,0,0,1-1.326-.132,2.864,2.864,0,0,1-1.068-.548,2.621,2.621,0,0,1-.708-.948,3.168,3.168,0,0,1-.258-1.315,3.289,3.289,0,0,1,.264-1.334,3.206,3.206,0,0,1,.7-1.028,3.327,3.327,0,0,1,1.008-.675A3.388,3.388,0,0,1,37.118,33a3.073,3.073,0,0,1,1.242.156,2.36,2.36,0,0,1,.894.572,2.415,2.415,0,0,1,.54.89,3.373,3.373,0,0,1,.18,1.115,4.185,4.185,0,0,1-.03.517c-.02.161-.038.277-.054.35l-3.852.223a1.044,1.044,0,0,0,.528.7,2.057,2.057,0,0,0,1.056.166,2.835,2.835,0,0,0,.7-.131,5.013,5.013,0,0,0,.739-.312l.671,1.182a4.456,4.456,0,0,1-1.188.59A4.833,4.833,0,0,1,37.334,39.261Zm-.144-4.71a1.167,1.167,0,0,0-1.14.928l2.1-.121A.833.833,0,0,0,37.19,34.551Z"/><path d="M43,38.787V34.409l-1.536.088V32.965L43,32.805v-.024a2.944,2.944,0,0,1,.156-.959,2.156,2.156,0,0,1,.5-.813,2.644,2.644,0,0,1,.865-.581,3.7,3.7,0,0,1,1.265-.27A4.783,4.783,0,0,1,46.8,30.2c.316.049.595.1.834.162l-.384,1.528a3.168,3.168,0,0,0-.563-.124,3.371,3.371,0,0,0-.637-.023,1.242,1.242,0,0,0-.737.233.846.846,0,0,0-.246.684v.024l1.9-.109v1.6l-1.9.109v4.377Z"/><path d="M55.861,38.037,55,32.118,56.989,32l.24,2.492c.033.3.058.6.079.9s.049.6.089.908l.037,0c.032-.311.066-.622.1-.93a8.756,8.756,0,0,1,.151-.9l.24-1.565,1.391-.08.265,1.535c.056.3.106.6.149.893s.086.6.126.905l.048,0c.04-.312.067-.618.078-.917s.031-.6.055-.9l.191-2.515,1.92-.11-.792,6.008-2.376.138-.191-1.588c-.041-.275-.074-.554-.1-.835s-.058-.587-.09-.919l-.048,0c-.017.208-.036.446-.061.713s-.059.622-.107,1.062l-.193,1.61Z"/><path d="M65.772,37.6a3.188,3.188,0,0,1-1.157-.141,2.767,2.767,0,0,1-.99-.55,2.7,2.7,0,0,1-.69-.943,3.14,3.14,0,0,1-.258-1.309,3.35,3.35,0,0,1,.258-1.338,3.165,3.165,0,0,1,.69-1.023,3.208,3.208,0,0,1,.99-.664,3.382,3.382,0,0,1,1.157-.275,3.173,3.173,0,0,1,1.147.143A2.709,2.709,0,0,1,68.6,32.995a3.068,3.068,0,0,1,.265,1.306,3.281,3.281,0,0,1-.265,1.338,3.188,3.188,0,0,1-1.685,1.687A3.339,3.339,0,0,1,65.772,37.6Zm0-1.644a.857.857,0,0,0,.757-.443,2.255,2.255,0,0,0,.228-1.092,2.1,2.1,0,0,0-.228-1.065A.754.754,0,0,0,65.772,33a.856.856,0,0,0-.755.443,2.248,2.248,0,0,0-.228,1.091,2.1,2.1,0,0,0,.228,1.065A.75.75,0,0,0,65.772,35.958Z"/><path d="M70.621,37.176V31.224l1.692-.1.156,1.253.048,0a3.006,3.006,0,0,1,1.045-1.131,2.777,2.777,0,0,1,1.3-.407,2.5,2.5,0,0,1,.654.028,3.811,3.811,0,0,1,.486.144l-.408,1.737a4.568,4.568,0,0,0-.5-.1,2.961,2.961,0,0,0-.546-.011,2.056,2.056,0,0,0-1.02.362,2.442,2.442,0,0,0-.84,1.1v2.951Z"/><path d="M77.341,36.784V28.509l2.064-.117v4.445l.048,0,1.824-2.22,2.232-.128-2.232,2.575,2.376,3.355-2.232.131L80.1,34.413l-.7.8v1.45Z"/><path d="M88.3,38.282a7.438,7.438,0,0,1-1.819-2.31,6.527,6.527,0,0,1-.666-2.982,7.015,7.015,0,0,1,.666-3.059A8.743,8.743,0,0,1,88.3,27.412l1.14.813a9.491,9.491,0,0,0-.871,1.094,6.2,6.2,0,0,0-.6,1.108,5.643,5.643,0,0,0-.343,1.171,7.464,7.464,0,0,0-.107,1.294,7.254,7.254,0,0,0,.107,1.281,5.126,5.126,0,0,0,.343,1.131,5.338,5.338,0,0,0,.6,1.039,8.121,8.121,0,0,0,.871.994Z"/><path d="M94.453,35.928a4.821,4.821,0,0,1-1.566-.169,5.411,5.411,0,0,1-1.363-.56l.865-1.308a4.72,4.72,0,0,0,1.175.43,4.307,4.307,0,0,0,1.176.1,1.308,1.308,0,0,0,.571-.127.311.311,0,0,0,.173-.271.236.236,0,0,0-.065-.174.5.5,0,0,0-.216-.112,2.958,2.958,0,0,0-.408-.083c-.173-.025-.383-.059-.63-.1a5.336,5.336,0,0,1-1.051-.253,2.455,2.455,0,0,1-.7-.381,1.306,1.306,0,0,1-.391-.505,1.594,1.594,0,0,1-.12-.628,1.645,1.645,0,0,1,.2-.806,1.978,1.978,0,0,1,.576-.638,3.1,3.1,0,0,1,.9-.436,4.828,4.828,0,0,1,1.176-.2,3.967,3.967,0,0,1,1.517.18,7.019,7.019,0,0,1,1.147.5l-.912,1.26a3.78,3.78,0,0,0-.972-.352,3.634,3.634,0,0,0-.973-.081,1.082,1.082,0,0,0-.456.11.285.285,0,0,0-.168.258.187.187,0,0,0,.067.151.622.622,0,0,0,.21.1,2.518,2.518,0,0,0,.383.079q.242.033.588.1a7.582,7.582,0,0,1,1.122.267,2.354,2.354,0,0,1,.721.367,1.17,1.17,0,0,1,.378.5,1.844,1.844,0,0,1,.107.651,1.649,1.649,0,0,1-.2.788,2.008,2.008,0,0,1-.588.662,3.244,3.244,0,0,1-.96.47A5.4,5.4,0,0,1,94.453,35.928Z"/><path d="M102.133,35.48a4.019,4.019,0,0,1-1.326-.13,2.838,2.838,0,0,1-1.068-.541,2.566,2.566,0,0,1-.708-.936,3.08,3.08,0,0,1-.259-1.3,3.208,3.208,0,0,1,.265-1.319,3.164,3.164,0,0,1,.7-1.016,3.325,3.325,0,0,1,1.008-.668,3.429,3.429,0,0,1,1.17-.28,3.11,3.11,0,0,1,1.242.153,2.346,2.346,0,0,1,.894.565,2.378,2.378,0,0,1,.54.879,3.3,3.3,0,0,1,.179,1.1,4.1,4.1,0,0,1-.029.511c-.02.159-.038.274-.055.346l-3.851.223a1.034,1.034,0,0,0,.528.692,2.068,2.068,0,0,0,1.056.163,2.879,2.879,0,0,0,.7-.129,5.043,5.043,0,0,0,.738-.31l.672,1.169a4.513,4.513,0,0,1-1.188.583A4.87,4.87,0,0,1,102.133,35.48Zm-.144-4.655a1.164,1.164,0,0,0-1.14.919l2.1-.122A.83.83,0,0,0,101.989,30.825Z"/><path d="M110.065,35.017a2.607,2.607,0,0,1-1.05-.127,1.937,1.937,0,0,1-.756-.482,2,2,0,0,1-.456-.784,3.381,3.381,0,0,1-.15-1.043v-4.21l-1.8.1V26.889l3.863-.219v5.862a.908.908,0,0,0,.084.421.7.7,0,0,0,.21.253.707.707,0,0,0,.288.126,1.231,1.231,0,0,0,.318.023,2.864,2.864,0,0,0,.864-.216l.444,1.463q-.24.086-.45.156a3.741,3.741,0,0,1-.426.119c-.144.033-.3.061-.456.086S110.257,35.006,110.065,35.017Z"/><path d="M115,34.588V30.267l-1.536.088V28.843L115,28.684V28.66a2.876,2.876,0,0,1,.156-.947,2.122,2.122,0,0,1,.5-.8,2.63,2.63,0,0,1,.865-.574,3.721,3.721,0,0,1,1.265-.267,4.785,4.785,0,0,1,1.014.043c.316.048.595.1.834.159l-.384,1.508a3.177,3.177,0,0,0-.563-.121,3.29,3.29,0,0,0-.637-.022,1.249,1.249,0,0,0-.737.23.829.829,0,0,0-.246.675v.024l1.895-.109v1.582l-1.895.109v4.32Z"/><path d="M122.389,36.728,121.9,35.6a3.078,3.078,0,0,0,1.207-.738,1.249,1.249,0,0,0,.366-.911l-.1.006a1.639,1.639,0,0,1-.54-.058,1.265,1.265,0,0,1-.462-.232,1.192,1.192,0,0,1-.317-.4,1.24,1.24,0,0,1-.12-.559,1.279,1.279,0,0,1,.431-.993,1.693,1.693,0,0,1,1.069-.427,1.323,1.323,0,0,1,1.229.513,2.67,2.67,0,0,1,.414,1.609,3.134,3.134,0,0,1-.672,2.013A4.228,4.228,0,0,1,122.389,36.728Z"/><path d="M138.275,33.371a4.04,4.04,0,0,1-1.325-.128,2.861,2.861,0,0,1-1.068-.537,2.572,2.572,0,0,1-.708-.93,3.058,3.058,0,0,1-.258-1.291,2.988,2.988,0,0,1,.288-1.322,3.167,3.167,0,0,1,.774-1.016,3.72,3.72,0,0,1,1.122-.663,4.392,4.392,0,0,1,1.332-.282,3.71,3.71,0,0,1,1.3.137,2.631,2.631,0,0,1,.972.509l-.936,1.3a2.307,2.307,0,0,0-.63-.276,2,2,0,0,0-.582-.054,1.635,1.635,0,0,0-1.1.458,1.466,1.466,0,0,0-.42,1.088,1.335,1.335,0,0,0,.408,1.041,1.369,1.369,0,0,0,1.043.334,2.13,2.13,0,0,0,.8-.2,5.779,5.779,0,0,0,.672-.38l.815,1.222a3.917,3.917,0,0,1-1.229.718A4.535,4.535,0,0,1,138.275,33.371Z"/><path d="M143.964,33.039a2.107,2.107,0,0,1-.828-.1,1.718,1.718,0,0,1-.612-.358,1.461,1.461,0,0,1-.378-.553,1.886,1.886,0,0,1-.125-.686,1.824,1.824,0,0,1,.209-.882,1.891,1.891,0,0,1,.66-.678,4.136,4.136,0,0,1,1.171-.485,12.2,12.2,0,0,1,1.752-.312.585.585,0,0,0-.355-.444,1.758,1.758,0,0,0-.8-.1,2.75,2.75,0,0,0-.786.168,8.418,8.418,0,0,0-.942.424l-.72-1.274a7.082,7.082,0,0,1,1.392-.656,5.528,5.528,0,0,1,1.464-.283,3.9,3.9,0,0,1,1.158.092,2.114,2.114,0,0,1,.888.443,2.013,2.013,0,0,1,.564.824,3.372,3.372,0,0,1,.2,1.227v3.263l-1.68.1-.144-.6-.048,0a5.272,5.272,0,0,1-.96.59A2.842,2.842,0,0,1,143.964,33.039Zm.672-1.589a1.571,1.571,0,0,0,.648-.172,3.432,3.432,0,0,0,.529-.343v-.751a7.092,7.092,0,0,0-.907.141,2.13,2.13,0,0,0-.558.2.755.755,0,0,0-.282.252.559.559,0,0,0-.078.286Q143.988,31.488,144.636,31.45Z"/><path d="M151,32.489V28.2l-1.536.088v-1.5L151,26.623V26.6a2.841,2.841,0,0,1,.156-.941,2.112,2.112,0,0,1,.5-.8,2.656,2.656,0,0,1,.865-.571,3.746,3.746,0,0,1,1.265-.266,4.852,4.852,0,0,1,1.014.043c.316.048.595.1.834.158l-.384,1.5a3.461,3.461,0,0,0-1.2-.142,1.249,1.249,0,0,0-.737.229.819.819,0,0,0-.246.67v.024l1.895-.108v1.571l-1.895.109v4.291Z"/><path d="M159.731,32.119a4.076,4.076,0,0,1-1.326-.127,2.853,2.853,0,0,1-1.067-.535,2.546,2.546,0,0,1-.708-.926,3.018,3.018,0,0,1-.259-1.285,3.15,3.15,0,0,1,.967-2.311,3.345,3.345,0,0,1,1.008-.662,3.442,3.442,0,0,1,1.17-.277,3.116,3.116,0,0,1,1.242.151,2.359,2.359,0,0,1,.893.557,2.334,2.334,0,0,1,.54.871,3.2,3.2,0,0,1,.18,1.089,4.208,4.208,0,0,1-.029.506c-.021.158-.038.271-.055.342l-3.851.223a1.02,1.02,0,0,0,.528.685,2.1,2.1,0,0,0,1.056.161,2.888,2.888,0,0,0,.7-.129,5.1,5.1,0,0,0,.738-.307l.672,1.156a4.538,4.538,0,0,1-1.189.578A4.9,4.9,0,0,1,159.731,32.119Zm-.143-4.605a1.163,1.163,0,0,0-1.141.909l2.1-.121A.827.827,0,0,0,159.588,27.514Z"/><path d="M165.647,33.74l-1.139-.8a9.46,9.46,0,0,0,.87-1.082,6.221,6.221,0,0,0,.6-1.093,5.456,5.456,0,0,0,.341-1.155,7.059,7.059,0,0,0,.109-1.275,6.862,6.862,0,0,0-.109-1.263,4.953,4.953,0,0,0-.341-1.115,5.369,5.369,0,0,0-.6-1.024,7.948,7.948,0,0,0-.87-.981l1.139-.93a7.358,7.358,0,0,1,1.819,2.277,6.351,6.351,0,0,1,.666,2.938,6.831,6.831,0,0,1-.666,3.014A8.673,8.673,0,0,1,165.647,33.74Z"/><path d="M173.771,27.679a1.616,1.616,0,0,1-.635-.08,1.3,1.3,0,0,1-.492-.3,1.394,1.394,0,0,1-.318-.466,1.475,1.475,0,0,1-.114-.583,1.57,1.57,0,0,1,.114-.6,1.586,1.586,0,0,1,.318-.5,1.671,1.671,0,0,1,1.127-.514,1.567,1.567,0,0,1,.637.086,1.42,1.42,0,0,1,.491.3,1.357,1.357,0,0,1,.319.461,1.476,1.476,0,0,1,.114.584,1.564,1.564,0,0,1-.114.6,1.623,1.623,0,0,1-.319.5,1.5,1.5,0,0,1-.491.356A1.728,1.728,0,0,1,173.771,27.679Zm0,3.621a1.635,1.635,0,0,1-.635-.079,1.306,1.306,0,0,1-.492-.3,1.409,1.409,0,0,1-.318-.467,1.475,1.475,0,0,1-.114-.583,1.579,1.579,0,0,1,.432-1.094,1.666,1.666,0,0,1,1.127-.515,1.55,1.55,0,0,1,.637.086,1.389,1.389,0,0,1,.491.3,1.343,1.343,0,0,1,.319.46,1.475,1.475,0,0,1,.114.583,1.578,1.578,0,0,1-.114.6,1.647,1.647,0,0,1-.319.5,1.524,1.524,0,0,1-.491.356A1.748,1.748,0,0,1,173.771,31.3Z"/><path d="M43.741,53.1V48.722l-2.28.137v-1.6L45.806,47v5.979Zm.96-6.853a1.308,1.308,0,0,1-.948-.272,1.034,1.034,0,0,1-.372-.844,1.212,1.212,0,0,1,.372-.9,1.435,1.435,0,0,1,.948-.4,1.288,1.288,0,0,1,.948.285,1.072,1.072,0,0,1,.372.858,1.169,1.169,0,0,1-.372.888A1.454,1.454,0,0,1,44.7,46.247Z"/><path d="M50.2,52.707V48.334l-1.536.092V46.9l1.536-.164v-.024a2.912,2.912,0,0,1,.157-.958,2.131,2.131,0,0,1,.5-.813,2.633,2.633,0,0,1,.864-.583,3.715,3.715,0,0,1,1.265-.273A4.787,4.787,0,0,1,54,44.123q.476.074.834.16l-.384,1.527a3.088,3.088,0,0,0-.563-.122,3.372,3.372,0,0,0-.637-.022,1.248,1.248,0,0,0-.737.235.846.846,0,0,0-.246.683v.025l1.895-.114v1.6l-1.895.114v4.371Z"/><path d="M66.276,51.87a3.987,3.987,0,0,1-1.325-.128,2.854,2.854,0,0,1-1.068-.542,2.6,2.6,0,0,1-.708-.941,3.13,3.13,0,0,1-.258-1.307,3.065,3.065,0,0,1,.288-1.341,3.187,3.187,0,0,1,.774-1.03,3.71,3.71,0,0,1,1.122-.675,4.369,4.369,0,0,1,1.332-.288,3.663,3.663,0,0,1,1.3.137,2.622,2.622,0,0,1,.972.514l-.936,1.318a2.257,2.257,0,0,0-.63-.278,1.966,1.966,0,0,0-.582-.055,1.637,1.637,0,0,0-1.1.466,1.5,1.5,0,0,0-.42,1.1,1.293,1.293,0,0,0,1.451,1.39,2.1,2.1,0,0,0,.8-.2,5.663,5.663,0,0,0,.672-.386l.815,1.237a3.966,3.966,0,0,1-1.229.73A4.52,4.52,0,0,1,66.276,51.87Z"/><path d="M71.965,51.523a2.107,2.107,0,0,1-.828-.1,1.712,1.712,0,0,1-.612-.362,1.478,1.478,0,0,1-.378-.56,1.91,1.91,0,0,1-.126-.7,1.866,1.866,0,0,1,.21-.893,1.908,1.908,0,0,1,.66-.689,4.16,4.16,0,0,1,1.171-.493,12.106,12.106,0,0,1,1.751-.32.588.588,0,0,0-.354-.449,1.745,1.745,0,0,0-.8-.1,2.727,2.727,0,0,0-.786.172,8.278,8.278,0,0,0-.942.432l-.72-1.29a7.032,7.032,0,0,1,1.392-.668,5.456,5.456,0,0,1,1.464-.289,3.871,3.871,0,0,1,1.158.091,2.1,2.1,0,0,1,.888.447,2.039,2.039,0,0,1,.564.835,3.45,3.45,0,0,1,.2,1.242v3.306l-1.68.1-.144-.61-.048,0a5.313,5.313,0,0,1-.96.6A2.814,2.814,0,0,1,71.965,51.523Zm.672-1.612a1.544,1.544,0,0,0,.648-.176,3.322,3.322,0,0,0,.528-.347v-.761a6.864,6.864,0,0,0-.906.144,2.119,2.119,0,0,0-.558.206.759.759,0,0,0-.282.255.574.574,0,0,0-.078.29C71.989,49.808,72.205,49.937,72.637,49.911Z"/><path d="M79,50.952V46.6l-1.536.093V45.172L79,45.009v-.024a2.922,2.922,0,0,1,.156-.954,2.145,2.145,0,0,1,.5-.808,2.642,2.642,0,0,1,.865-.58,3.716,3.716,0,0,1,1.265-.272,4.793,4.793,0,0,1,1.014.041c.316.048.595.1.834.159l-.384,1.519a3.177,3.177,0,0,0-.563-.121,3.372,3.372,0,0,0-.637-.021,1.248,1.248,0,0,0-.737.233.841.841,0,0,0-.246.68v.024l1.895-.113v1.592l-1.895.114v4.348Z"/><path d="M87.733,50.562a4.022,4.022,0,0,1-1.326-.127,2.832,2.832,0,0,1-1.067-.54,2.561,2.561,0,0,1-.708-.937,3.091,3.091,0,0,1-.259-1.3,3.222,3.222,0,0,1,.265-1.322,3.159,3.159,0,0,1,.7-1.021,3.319,3.319,0,0,1,1.008-.672,3.407,3.407,0,0,1,1.17-.284,3.081,3.081,0,0,1,1.242.151,2.346,2.346,0,0,1,.893.563,2.373,2.373,0,0,1,.54.881,3.3,3.3,0,0,1,.18,1.1,4.341,4.341,0,0,1-.029.513c-.021.159-.038.274-.055.347l-3.851.233a1.026,1.026,0,0,0,.528.692A2.055,2.055,0,0,0,88.021,49a2.89,2.89,0,0,0,.7-.131,5.176,5.176,0,0,0,.738-.313l.672,1.17a4.5,4.5,0,0,1-1.189.588A4.878,4.878,0,0,1,87.733,50.562ZM87.59,45.9a1.17,1.17,0,0,0-1.141.924l2.1-.127A.829.829,0,0,0,87.59,45.9Z"/><path d="M98.94,45.119V43.7l5.664-.339v1.42Zm0,2.83V46.528l5.664-.342v1.42Z"/><path d="M106.141,44.686v-1.42l5.664-.338v1.418Zm0,2.827v-1.42l5.664-.341V47.17Z"/><path d="M123.372,48.39a2.812,2.812,0,0,1-1.224-.179,2.372,2.372,0,0,1-.948-.691,3.3,3.3,0,0,1-.611-1.19,5.794,5.794,0,0,1-.217-1.673,6,6,0,0,1,.217-1.694,3.619,3.619,0,0,1,.611-1.241,2.79,2.79,0,0,1,.948-.775,3.153,3.153,0,0,1,1.224-.315,2.952,2.952,0,0,1,1.225.169,2.357,2.357,0,0,1,.948.662,3.115,3.115,0,0,1,.611,1.166,5.727,5.727,0,0,1,.216,1.666,6.06,6.06,0,0,1-.216,1.7,3.791,3.791,0,0,1-.611,1.263,2.837,2.837,0,0,1-.948.806A3.025,3.025,0,0,1,123.372,48.39Zm0-1.556a1.031,1.031,0,0,0,.45-.133,1.046,1.046,0,0,0,.372-.394,2.4,2.4,0,0,0,.258-.741,5.793,5.793,0,0,0,.1-1.161,5.455,5.455,0,0,0-.1-1.138,1.987,1.987,0,0,0-.258-.685.808.808,0,0,0-.372-.326,1.051,1.051,0,0,0-.45-.067,1.135,1.135,0,0,0-.449.12.963.963,0,0,0-.372.371,2.259,2.259,0,0,0-.259.717,6.936,6.936,0,0,0,0,2.3,2.161,2.161,0,0,0,.259.709.859.859,0,0,0,.372.349A.945.945,0,0,0,123.372,46.834Zm0-1.415a.9.9,0,0,1-.689-.217.856.856,0,0,1-.271-.668.962.962,0,0,1,.271-.7,1.015,1.015,0,0,1,.689-.3.911.911,0,0,1,.691.217.856.856,0,0,1,.269.668.967.967,0,0,1-.269.7A1.02,1.02,0,0,1,123.372,45.419Z"/><path d="M130.572,44.3a1.616,1.616,0,0,1-.635-.079,1.322,1.322,0,0,1-.493-.3,1.423,1.423,0,0,1-.317-.47,1.5,1.5,0,0,1-.114-.588,1.613,1.613,0,0,1,.431-1.1,1.7,1.7,0,0,1,.493-.359,1.64,1.64,0,0,1,.635-.161,1.55,1.55,0,0,1,.637.085,1.426,1.426,0,0,1,.491.3,1.383,1.383,0,0,1,.319.464,1.5,1.5,0,0,1,.114.588,1.594,1.594,0,0,1-.114.6,1.677,1.677,0,0,1-.319.508,1.525,1.525,0,0,1-.491.359A1.73,1.73,0,0,1,130.572,44.3Zm0,3.65a1.635,1.635,0,0,1-.635-.078,1.322,1.322,0,0,1-.493-.3,1.429,1.429,0,0,1-.317-.469,1.5,1.5,0,0,1-.114-.589,1.608,1.608,0,0,1,.431-1.1,1.682,1.682,0,0,1,.493-.36,1.658,1.658,0,0,1,.635-.162,1.55,1.55,0,0,1,.637.086,1.409,1.409,0,0,1,.491.3,1.369,1.369,0,0,1,.319.463,1.5,1.5,0,0,1,.114.588,1.6,1.6,0,0,1-.114.6,1.69,1.69,0,0,1-.319.508,1.555,1.555,0,0,1-.491.359A1.73,1.73,0,0,1,130.572,47.951Z"/><path d="M55.285,66.722V60.753l1.536-.1.145.707.048,0a1.723,1.723,0,0,1,.444-.63,1.3,1.3,0,0,1,.827-.308.877.877,0,0,1,.643.2,1.2,1.2,0,0,1,.366.688,1.7,1.7,0,0,1,.456-.7,1.293,1.293,0,0,1,.84-.338,1.048,1.048,0,0,1,1,.468,2.465,2.465,0,0,1,.348,1.4V66.3l-1.945.123V62.415c0-.239-.067-.353-.2-.344-.159.01-.292.168-.395.478v3.912l-1.56.1V62.551q0-.359-.24-.343c-.137.009-.256.167-.361.477V66.6Z"/><path d="M64.765,66.262a2.109,2.109,0,0,1-.828-.095,1.724,1.724,0,0,1-.612-.361,1.494,1.494,0,0,1-.378-.56,1.911,1.911,0,0,1-.126-.7,1.874,1.874,0,0,1,.21-.895,1.918,1.918,0,0,1,.659-.691,4.153,4.153,0,0,1,1.171-.5,12.1,12.1,0,0,1,1.752-.324.585.585,0,0,0-.354-.449,1.733,1.733,0,0,0-.8-.1,2.728,2.728,0,0,0-.786.175,8.418,8.418,0,0,0-.943.434l-.719-1.289a7,7,0,0,1,1.392-.672,5.463,5.463,0,0,1,1.464-.294,3.866,3.866,0,0,1,1.157.088,2.093,2.093,0,0,1,.889.446,2.029,2.029,0,0,1,.564.834,3.479,3.479,0,0,1,.2,1.244v3.31L67,65.978l-.144-.61-.048,0a5.424,5.424,0,0,1-.96.6A2.835,2.835,0,0,1,64.765,66.262Zm.672-1.615a1.56,1.56,0,0,0,.648-.178,3.382,3.382,0,0,0,.528-.35v-.762a6.941,6.941,0,0,0-.906.147,2.136,2.136,0,0,0-.559.208.756.756,0,0,0-.281.256.567.567,0,0,0-.078.291Q64.789,64.688,65.437,64.647Z"/><path d="M70.141,65.778V57.492l2.064-.128v4.451l.048,0,1.824-2.232,2.232-.14-2.232,2.59,2.376,3.347-2.232.142-1.32-2.13-.7.806v1.452Z"/><path d="M80.533,65.26a4.024,4.024,0,0,1-1.326-.123A2.836,2.836,0,0,1,78.14,64.6a2.561,2.561,0,0,1-.708-.937,3.1,3.1,0,0,1-.259-1.3,3.236,3.236,0,0,1,.265-1.325,3.183,3.183,0,0,1,.7-1.024,3.354,3.354,0,0,1,1.007-.675,3.417,3.417,0,0,1,1.17-.287,3.068,3.068,0,0,1,1.243.148,2.33,2.33,0,0,1,.893.561,2.378,2.378,0,0,1,.54.881,3.309,3.309,0,0,1,.18,1.105,4.329,4.329,0,0,1-.029.513c-.021.16-.039.275-.055.348l-3.852.243a1.028,1.028,0,0,0,.529.692,2.068,2.068,0,0,0,1.055.159,2.877,2.877,0,0,0,.7-.134,5.15,5.15,0,0,0,.739-.314l.672,1.169a4.513,4.513,0,0,1-1.189.592A4.855,4.855,0,0,1,80.533,65.26Zm-.143-4.672a1.173,1.173,0,0,0-1.141.927l2.1-.132A.826.826,0,0,0,80.39,60.588Z"/><path d="M88.3,66.761a7.377,7.377,0,0,1-1.819-2.3,6.506,6.506,0,0,1-.666-2.979,7.038,7.038,0,0,1,.666-3.062A8.828,8.828,0,0,1,88.3,55.891l1.14.807a9.7,9.7,0,0,0-.871,1.1,6.263,6.263,0,0,0-.6,1.111,5.679,5.679,0,0,0-.343,1.173,7.464,7.464,0,0,0-.107,1.294,7.246,7.246,0,0,0,.107,1.281,5.11,5.11,0,0,0,.343,1.129,5.316,5.316,0,0,0,.6,1.036,8.1,8.1,0,0,0,.871.99Z"/><path d="M95.076,64.336a4.012,4.012,0,0,1-1.325-.123,2.837,2.837,0,0,1-1.068-.536,2.567,2.567,0,0,1-.708-.934,3.1,3.1,0,0,1-.258-1.3,3.045,3.045,0,0,1,.288-1.335,3.193,3.193,0,0,1,.773-1.026,3.755,3.755,0,0,1,1.122-.675,4.414,4.414,0,0,1,1.332-.29,3.661,3.661,0,0,1,1.3.132,2.612,2.612,0,0,1,.973.508l-.937,1.314a2.283,2.283,0,0,0-.629-.275,2,2,0,0,0-.582-.052,1.638,1.638,0,0,0-1.1.467,1.492,1.492,0,0,0-.42,1.1,1.284,1.284,0,0,0,1.451,1.378,2.079,2.079,0,0,0,.8-.205,5.663,5.663,0,0,0,.672-.386l.815,1.228a3.966,3.966,0,0,1-1.229.73A4.535,4.535,0,0,1,95.076,64.336Z"/><path d="M100.765,63.975a2.128,2.128,0,0,1-.828-.095,1.718,1.718,0,0,1-.612-.358,1.475,1.475,0,0,1-.378-.557,1.883,1.883,0,0,1-.126-.69,1.857,1.857,0,0,1,.21-.89,1.917,1.917,0,0,1,.659-.687,4.184,4.184,0,0,1,1.171-.494,12.249,12.249,0,0,1,1.752-.323.583.583,0,0,0-.354-.446,1.749,1.749,0,0,0-.8-.1,2.726,2.726,0,0,0-.786.174,8.188,8.188,0,0,0-.943.432l-.719-1.281a7.094,7.094,0,0,1,1.392-.669,5.5,5.5,0,0,1,1.464-.291,3.869,3.869,0,0,1,1.157.086,2.1,2.1,0,0,1,.889.443,2.02,2.02,0,0,1,.564.828,3.437,3.437,0,0,1,.2,1.236v3.288l-1.68.107-.144-.606-.048,0a5.348,5.348,0,0,1-.96.6A2.835,2.835,0,0,1,100.765,63.975Zm.672-1.606a1.559,1.559,0,0,0,.648-.177,3.368,3.368,0,0,0,.528-.347v-.757a7.139,7.139,0,0,0-.906.146,2.216,2.216,0,0,0-.559.206.763.763,0,0,0-.281.255.56.56,0,0,0-.078.289Q100.789,62.412,101.437,62.369Z"/><path d="M107.8,63.386V59.059l-1.536.1V57.641l1.536-.167V57.45a2.893,2.893,0,0,1,.156-.949,2.134,2.134,0,0,1,.5-.8,2.648,2.648,0,0,1,.864-.58,3.75,3.75,0,0,1,1.266-.274,4.8,4.8,0,0,1,1.014.038q.474.07.834.155l-.384,1.512a3.2,3.2,0,0,0-.564-.118,3.281,3.281,0,0,0-.636-.019,1.261,1.261,0,0,0-.738.234.835.835,0,0,0-.246.677v.024l1.9-.118v1.584l-1.9.118v4.326Z"/><path d="M116.532,62.973a4.051,4.051,0,0,1-1.326-.123,2.815,2.815,0,0,1-1.067-.534,2.549,2.549,0,0,1-.708-.929,3.061,3.061,0,0,1-.259-1.3,3.2,3.2,0,0,1,.265-1.317,3.163,3.163,0,0,1,.7-1.017,3.363,3.363,0,0,1,1.007-.672,3.437,3.437,0,0,1,1.17-.285,3.123,3.123,0,0,1,1.243.146,2.285,2.285,0,0,1,1.433,1.433,3.268,3.268,0,0,1,.18,1.1,4.272,4.272,0,0,1-.029.509c-.021.159-.039.274-.055.346l-3.852.243a1.021,1.021,0,0,0,.529.687,2.07,2.07,0,0,0,1.055.157,2.876,2.876,0,0,0,.7-.133,5.239,5.239,0,0,0,.739-.312l.672,1.161a4.536,4.536,0,0,1-1.189.589A4.933,4.933,0,0,1,116.532,62.973Zm-.143-4.642a1.172,1.172,0,0,0-1.141.922l2.1-.132A.825.825,0,0,0,116.389,58.331Z"/><path d="M122.448,64.578l-1.139-.8a9.541,9.541,0,0,0,.87-1.094,6.28,6.28,0,0,0,.6-1.105,5.5,5.5,0,0,0,.342-1.166,7.277,7.277,0,0,0,.109-1.286,7.044,7.044,0,0,0-.109-1.272,4.93,4.93,0,0,0-.342-1.122,5.324,5.324,0,0,0-.6-1.03,7.972,7.972,0,0,0-.87-.985l1.139-.943a7.362,7.362,0,0,1,1.819,2.287,6.426,6.426,0,0,1,.666,2.958,6.956,6.956,0,0,1-.666,3.042A8.794,8.794,0,0,1,122.448,64.578Z"/><path d="M44.533,81.9a4,4,0,0,1-1.326-.122,2.809,2.809,0,0,1-1.067-.539,2.567,2.567,0,0,1-.708-.941,3.127,3.127,0,0,1-.259-1.311,3.279,3.279,0,0,1,.265-1.334,3.223,3.223,0,0,1,.7-1.033,3.463,3.463,0,0,1,2.177-.973,3.052,3.052,0,0,1,1.243.146,2.336,2.336,0,0,1,.893.564,2.386,2.386,0,0,1,.54.885,3.346,3.346,0,0,1,.18,1.112,4.411,4.411,0,0,1-.029.517c-.021.161-.039.277-.055.35l-3.852.253a1.029,1.029,0,0,0,.529.7,2.038,2.038,0,0,0,1.055.157,2.832,2.832,0,0,0,.7-.135,5.1,5.1,0,0,0,.739-.319l.672,1.176a4.532,4.532,0,0,1-1.189.6A4.873,4.873,0,0,1,44.533,81.9Zm-.143-4.7a1.179,1.179,0,0,0-1.141.936L45.35,78A.826.826,0,0,0,44.39,77.2Z"/><path d="M52.466,81.377a2.582,2.582,0,0,1-1.051-.121,1.915,1.915,0,0,1-.756-.482,2.016,2.016,0,0,1-.456-.788,3.474,3.474,0,0,1-.149-1.053V74.678l-1.8.117v-1.6l3.863-.25v5.924a.936.936,0,0,0,.084.425.724.724,0,0,0,.21.255.71.71,0,0,0,.288.124,1.193,1.193,0,0,0,.319.021,2.845,2.845,0,0,0,.864-.224l.443,1.475c-.16.058-.309.112-.45.161a3.918,3.918,0,0,1-.426.124c-.143.033-.3.063-.456.09S52.657,81.365,52.466,81.377Z"/><path d="M58.454,80.981a4.757,4.757,0,0,1-1.566-.159,5.3,5.3,0,0,1-1.363-.554l.865-1.322a4.7,4.7,0,0,0,1.175.424,4.3,4.3,0,0,0,1.176.089,1.3,1.3,0,0,0,.571-.133.313.313,0,0,0,.173-.273.237.237,0,0,0-.065-.175.493.493,0,0,0-.216-.111,2.741,2.741,0,0,0-.408-.08q-.26-.037-.63-.1a5.3,5.3,0,0,1-1.051-.246,2.429,2.429,0,0,1-.7-.379,1.306,1.306,0,0,1-.391-.505,1.609,1.609,0,0,1-.12-.631,1.671,1.671,0,0,1,.2-.813,2.006,2.006,0,0,1,.576-.647,3.134,3.134,0,0,1,.9-.446,4.817,4.817,0,0,1,1.176-.213,3.917,3.917,0,0,1,1.517.169,6.946,6.946,0,0,1,1.147.492l-.912,1.276a3.732,3.732,0,0,0-.972-.348,3.622,3.622,0,0,0-.973-.074,1.09,1.09,0,0,0-.456.114.289.289,0,0,0-.168.261.187.187,0,0,0,.067.151.6.6,0,0,0,.21.1,2.432,2.432,0,0,0,.383.077q.242.031.588.093a7.419,7.419,0,0,1,1.122.26,2.354,2.354,0,0,1,.721.364,1.17,1.17,0,0,1,.378.5,1.867,1.867,0,0,1,.107.655,1.678,1.678,0,0,1-.2.795,2.041,2.041,0,0,1-.588.67,3.267,3.267,0,0,1-.96.481A5.425,5.425,0,0,1,58.454,80.981Z"/><path d="M66.133,80.473a4,4,0,0,1-1.326-.121,2.816,2.816,0,0,1-1.068-.536,2.569,2.569,0,0,1-.708-.937,3.111,3.111,0,0,1-.259-1.307,3.253,3.253,0,0,1,.967-2.357,3.379,3.379,0,0,1,1.008-.68,3.422,3.422,0,0,1,1.17-.29,3.063,3.063,0,0,1,1.242.145,2.327,2.327,0,0,1,.894.561,2.374,2.374,0,0,1,.54.882,3.322,3.322,0,0,1,.179,1.108,4.155,4.155,0,0,1-.029.514c-.02.16-.038.276-.055.349l-3.851.253a1.027,1.027,0,0,0,.528.692,2.052,2.052,0,0,0,1.056.157,2.889,2.889,0,0,0,.7-.136,5.023,5.023,0,0,0,.738-.317l.672,1.171a4.487,4.487,0,0,1-1.188.6A4.873,4.873,0,0,1,66.133,80.473Zm-.144-4.684a1.176,1.176,0,0,0-1.14.932l2.1-.137A.825.825,0,0,0,65.989,75.789Z"/><path d="M72.973,76.332a1.619,1.619,0,0,1-.636-.077,1.3,1.3,0,0,1-.492-.3,1.433,1.433,0,0,1-.318-.474,1.518,1.518,0,0,1-.114-.593,1.643,1.643,0,0,1,.432-1.118,1.71,1.71,0,0,1,.492-.365,1.644,1.644,0,0,1,.636-.166,1.531,1.531,0,0,1,.636.084,1.394,1.394,0,0,1,.492.3,1.373,1.373,0,0,1,.318.467,1.526,1.526,0,0,1,.114.594,1.631,1.631,0,0,1-.114.608,1.7,1.7,0,0,1-.318.514,1.534,1.534,0,0,1-.492.365A1.714,1.714,0,0,1,72.973,76.332Zm0,3.689a1.638,1.638,0,0,1-.636-.076,1.32,1.32,0,0,1-.492-.3,1.439,1.439,0,0,1-.318-.473,1.526,1.526,0,0,1-.114-.594,1.638,1.638,0,0,1,.432-1.117,1.677,1.677,0,0,1,.492-.366,1.644,1.644,0,0,1,.636-.166,1.515,1.515,0,0,1,.636.083,1.394,1.394,0,0,1,.492.3,1.36,1.36,0,0,1,.318.466,1.521,1.521,0,0,1,.114.593,1.639,1.639,0,0,1-.114.609,1.72,1.72,0,0,1-.318.515,1.582,1.582,0,0,1-.492.366A1.752,1.752,0,0,1,72.973,80.021Z"/><path d="M59.077,95.255a3.962,3.962,0,0,1-1.325-.118,2.805,2.805,0,0,1-1.068-.534,2.561,2.561,0,0,1-.708-.937,3.124,3.124,0,0,1-.258-1.307,3.075,3.075,0,0,1,.288-1.345,3.249,3.249,0,0,1,.773-1.037,3.779,3.779,0,0,1,1.122-.684,4.425,4.425,0,0,1,1.332-.3,3.641,3.641,0,0,1,1.3.127,2.582,2.582,0,0,1,.973.507l-.937,1.327a2.248,2.248,0,0,0-.629-.274,1.959,1.959,0,0,0-.582-.049,1.64,1.64,0,0,0-1.1.475,1.513,1.513,0,0,0-.42,1.108A1.282,1.282,0,0,0,59.281,93.6a2.119,2.119,0,0,0,.8-.211,5.828,5.828,0,0,0,.672-.391l.815,1.232a4,4,0,0,1-1.229.74A4.493,4.493,0,0,1,59.077,95.255Z"/><path d="M65.772,94.8a3.183,3.183,0,0,1-1.157-.129,2.727,2.727,0,0,1-.99-.539,2.657,2.657,0,0,1-.69-.937,3.117,3.117,0,0,1-.258-1.3,3.369,3.369,0,0,1,.258-1.341,3.212,3.212,0,0,1,.69-1.031,3.274,3.274,0,0,1,.99-.674,3.4,3.4,0,0,1,1.157-.287,3.167,3.167,0,0,1,1.147.131A2.673,2.673,0,0,1,68.6,90.158a3.055,3.055,0,0,1,.265,1.3,3.262,3.262,0,0,1-1.95,3.046A3.379,3.379,0,0,1,65.772,94.8Zm0-1.644a.867.867,0,0,0,.757-.451,2.266,2.266,0,0,0,.228-1.094,2.081,2.081,0,0,0-.228-1.062.745.745,0,0,0-.757-.348.867.867,0,0,0-.755.451,2.264,2.264,0,0,0-.228,1.093,2.083,2.083,0,0,0,.228,1.063A.742.742,0,0,0,65.772,93.151Z"/><path d="M72.385,94.34a2.343,2.343,0,0,1-1.038-.142,1.945,1.945,0,0,1-.785-.566,2.7,2.7,0,0,1-.5-.946,4.3,4.3,0,0,1-.18-1.292,3.877,3.877,0,0,1,.216-1.325,3.409,3.409,0,0,1,.564-1.02,2.655,2.655,0,0,1,.8-.667,2.252,2.252,0,0,1,.924-.277,1.8,1.8,0,0,1,.8.1,1.9,1.9,0,0,1,.6.4l.048,0-.1-.85V85.824l2.064-.139v8.278l-1.68.115-.144-.537-.048,0a2.761,2.761,0,0,1-.726.55A2.04,2.04,0,0,1,72.385,94.34Zm.54-1.7a1.134,1.134,0,0,0,.45-.119,1.012,1.012,0,0,0,.366-.364v-2.19a.894.894,0,0,0-.378-.2,1.451,1.451,0,0,0-.414-.031.949.949,0,0,0-.672.368,1.742,1.742,0,0,0-.288,1.125,1.9,1.9,0,0,0,.246,1.126A.748.748,0,0,0,72.925,92.637Z"/><path d="M80.533,93.78a4.026,4.026,0,0,1-1.326-.117,2.812,2.812,0,0,1-1.067-.532,2.538,2.538,0,0,1-.708-.933,3.085,3.085,0,0,1-.259-1.3,3.253,3.253,0,0,1,.967-2.354,3.369,3.369,0,0,1,1.007-.68,3.427,3.427,0,0,1,1.17-.293,3.074,3.074,0,0,1,1.243.141,2.334,2.334,0,0,1,.893.557,2.358,2.358,0,0,1,.54.878,3.3,3.3,0,0,1,.18,1.1,4.359,4.359,0,0,1-.029.514c-.021.16-.039.275-.055.347l-3.852.264a1.022,1.022,0,0,0,.529.689,2.052,2.052,0,0,0,1.055.153,2.881,2.881,0,0,0,.7-.137,5.2,5.2,0,0,0,.739-.318l.672,1.166a4.56,4.56,0,0,1-1.189.6A4.928,4.928,0,0,1,80.533,93.78Zm-.143-4.672a1.182,1.182,0,0,0-1.141.934l2.1-.143A.822.822,0,0,0,80.39,89.108Z"/><path d="M88.3,95.24a7.316,7.316,0,0,1-1.819-2.29,6.486,6.486,0,0,1-.666-2.975,7.062,7.062,0,0,1,.666-3.066A8.881,8.881,0,0,1,88.3,84.371l1.14.8a9.728,9.728,0,0,0-.871,1.1,6.286,6.286,0,0,0-.6,1.114,5.7,5.7,0,0,0-.343,1.175,7.484,7.484,0,0,0-.107,1.3,7.234,7.234,0,0,0,.107,1.28,5.1,5.1,0,0,0,.343,1.128,5.288,5.288,0,0,0,.6,1.032,7.921,7.921,0,0,0,.871.985Z"/><path d="M94.453,92.823a4.805,4.805,0,0,1-1.566-.153,5.3,5.3,0,0,1-1.363-.546l.865-1.317a4.682,4.682,0,0,0,1.175.418,4.291,4.291,0,0,0,1.176.085,1.323,1.323,0,0,0,.571-.133.315.315,0,0,0,.173-.273.238.238,0,0,0-.065-.174.5.5,0,0,0-.216-.109,2.92,2.92,0,0,0-.408-.078q-.26-.036-.63-.094a5.325,5.325,0,0,1-1.051-.242,2.4,2.4,0,0,1-.7-.374,1.288,1.288,0,0,1-.391-.5,1.586,1.586,0,0,1-.12-.627,1.658,1.658,0,0,1,.2-.808,2.017,2.017,0,0,1,.576-.644,3.186,3.186,0,0,1,.9-.446,4.863,4.863,0,0,1,1.176-.215,3.94,3.94,0,0,1,1.517.163,6.962,6.962,0,0,1,1.147.486l-.912,1.27a3.756,3.756,0,0,0-.972-.343,3.656,3.656,0,0,0-.973-.07,1.094,1.094,0,0,0-.456.114.29.29,0,0,0-.168.26.184.184,0,0,0,.067.15.588.588,0,0,0,.21.1,2.464,2.464,0,0,0,.383.075q.242.032.588.09a7.467,7.467,0,0,1,1.122.256,2.33,2.33,0,0,1,.721.359,1.153,1.153,0,0,1,.378.5,1.834,1.834,0,0,1,.107.65,1.659,1.659,0,0,1-.2.79,2.035,2.035,0,0,1-.588.668,3.278,3.278,0,0,1-.96.48A5.466,5.466,0,0,1,94.453,92.823Z"/><path d="M102.133,92.3a4,4,0,0,1-1.326-.116,2.806,2.806,0,0,1-1.068-.53,2.537,2.537,0,0,1-.708-.928,3.068,3.068,0,0,1-.259-1.3,3.229,3.229,0,0,1,.967-2.345,3.4,3.4,0,0,1,1.008-.679,3.448,3.448,0,0,1,1.17-.292,3.084,3.084,0,0,1,1.242.141,2.272,2.272,0,0,1,1.434,1.429,3.275,3.275,0,0,1,.179,1.1,4.1,4.1,0,0,1-.029.511c-.02.159-.038.274-.055.346l-3.851.263a1.018,1.018,0,0,0,.528.687,2.067,2.067,0,0,0,1.056.152,2.844,2.844,0,0,0,.7-.137,5.023,5.023,0,0,0,.738-.317l.672,1.162a4.546,4.546,0,0,1-1.188.6A4.882,4.882,0,0,1,102.133,92.3Zm-.144-4.653a1.179,1.179,0,0,0-1.14.93l2.1-.143A.82.82,0,0,0,101.989,87.642Z"/><path d="M110.065,91.75a2.634,2.634,0,0,1-1.05-.116,1.924,1.924,0,0,1-.756-.475,1.968,1.968,0,0,1-.456-.779,3.363,3.363,0,0,1-.15-1.041v-4.21l-1.8.121V83.666l3.863-.26v5.862a.9.9,0,0,0,.084.42.68.68,0,0,0,.5.374,1.227,1.227,0,0,0,.318.02,2.91,2.91,0,0,0,.864-.225l.444,1.458q-.24.087-.45.161a3.985,3.985,0,0,1-.426.124c-.144.033-.3.063-.456.091S110.257,91.737,110.065,91.75Z"/><path d="M115,91.27V86.948l-1.536.1V85.54L115,85.365v-.024a2.891,2.891,0,0,1,.156-.948,2.149,2.149,0,0,1,.5-.807,2.666,2.666,0,0,1,.865-.584,3.756,3.756,0,0,1,1.265-.28,4.81,4.81,0,0,1,1.014.033c.316.045.595.095.834.15l-.384,1.512a3.194,3.194,0,0,0-.563-.115,3.293,3.293,0,0,0-.637-.016,1.262,1.262,0,0,0-.737.238.837.837,0,0,0-.246.678v.024l1.895-.129v1.582l-1.895.129v4.32Z"/><path d="M122.389,93.333l-.493-1.122a3.121,3.121,0,0,0,1.207-.75,1.261,1.261,0,0,0,.366-.915l-.1.007a1.636,1.636,0,0,1-.54-.052,1.243,1.243,0,0,1-.462-.228,1.167,1.167,0,0,1-.317-.4,1.232,1.232,0,0,1-.12-.558,1.292,1.292,0,0,1,.431-1,1.71,1.71,0,0,1,1.069-.439,1.312,1.312,0,0,1,1.229.5,2.649,2.649,0,0,1,.414,1.6,3.161,3.161,0,0,1-.672,2.02A4.291,4.291,0,0,1,122.389,93.333Z"/><path d="M136.452,91.583V81.467l3.648-.245V82.28l-2.088.141v8l2.088-.144v1.058Z"/><path d="M142.14,91.473V83.529l1.68-.113.144.53.048,0a3.207,3.207,0,0,1,.786-.547,2.341,2.341,0,0,1,.894-.247,2.171,2.171,0,0,1,.984.144,1.892,1.892,0,0,1,.75.548,2.605,2.605,0,0,1,.474.906,4.117,4.117,0,0,1,.168,1.222,4.046,4.046,0,0,1-.215,1.364,3.418,3.418,0,0,1-.571,1.031,2.63,2.63,0,0,1-.816.672,2.375,2.375,0,0,1-.954.277,1.764,1.764,0,0,1-1.356-.494l-.048,0,.1.886V91.33Zm2.881-3.77a.9.9,0,0,0,.359-.1.812.812,0,0,0,.294-.272,1.562,1.562,0,0,0,.2-.478,2.821,2.821,0,0,0,.078-.716,1.791,1.791,0,0,0-.222-1.029.7.7,0,0,0-.666-.272,1.1,1.1,0,0,0-.444.123,1.53,1.53,0,0,0-.42.358v2.161a.977.977,0,0,0,.4.2A1.5,1.5,0,0,0,145.021,87.7Z"/><path d="M150.336,91.047a4.283,4.283,0,0,1-.516.006,2.683,2.683,0,0,1-.444-.058l.36-1.549a1.456,1.456,0,0,0,.432.041,1.494,1.494,0,0,0,.738-.21,1.04,1.04,0,0,0,.378-.454l.1-.265-2.52-5.483,2.04-.138.84,2.2q.156.411.282.842c.084.289.17.589.258.9l.048,0q.108-.453.246-.909t.271-.909l.719-2.3,1.944-.132-2.256,5.922a7.63,7.63,0,0,1-.5,1.066,3.12,3.12,0,0,1-.6.758,2.49,2.49,0,0,1-.781.47A3.646,3.646,0,0,1,150.336,91.047Z"/><path d="M160.4,88.289a3.59,3.59,0,0,1-1.254-.1,1.808,1.808,0,0,1-1.29-1.277,3.7,3.7,0,0,1-.143-1.062v-1.8l-1.441.1v-1.5l1.537-.175.263-1.775,1.7-.114v1.756l2.376-.16v1.569l-2.376.161v1.768a.979.979,0,0,0,.294.841,1.343,1.343,0,0,0,.87.169,3.2,3.2,0,0,0,.582-.093,3.811,3.811,0,0,0,.51-.17l.361,1.427c-.264.089-.561.178-.888.266A5.647,5.647,0,0,1,160.4,88.289Z"/><path d="M163.739,87.92V79.775l2.065-.139v1.9l-.12,1.038.047,0a3.578,3.578,0,0,1,.756-.578,2.548,2.548,0,0,1,1.141-.322,1.528,1.528,0,0,1,1.439.551,2.81,2.81,0,0,1,.456,1.7v3.6l-2.063.142V84.32a1.265,1.265,0,0,0-.15-.7.578.578,0,0,0-.546-.184,1.1,1.1,0,0,0-.5.15,2.787,2.787,0,0,0-.456.359v3.837Z"/><path d="M173.771,87.37a3.2,3.2,0,0,1-1.157-.125,2.732,2.732,0,0,1-.99-.527,2.606,2.606,0,0,1-.69-.917,3.007,3.007,0,0,1-.258-1.28,3.252,3.252,0,0,1,.258-1.315,3.155,3.155,0,0,1,.69-1.011,3.274,3.274,0,0,1,.99-.662,3.464,3.464,0,0,1,1.157-.283,3.209,3.209,0,0,1,1.147.127,2.749,2.749,0,0,1,.99.528,2.687,2.687,0,0,1,.7.916,2.954,2.954,0,0,1,.264,1.278,3.2,3.2,0,0,1-.264,1.314,3.221,3.221,0,0,1-1.686,1.674A3.42,3.42,0,0,1,173.771,87.37Zm0-1.611a.873.873,0,0,0,.757-.443,2.188,2.188,0,0,0,.228-1.073,2,2,0,0,0-.228-1.041.753.753,0,0,0-.757-.341.874.874,0,0,0-.755.443,2.188,2.188,0,0,0-.228,1.073,2.009,2.009,0,0,0,.228,1.042A.748.748,0,0,0,173.771,85.759Z"/><path d="M178.139,86.93V81.094l1.68-.113.144.69.048,0a4.046,4.046,0,0,1,.852-.647,2.635,2.635,0,0,1,1.152-.328,1.545,1.545,0,0,1,1.452.549,2.8,2.8,0,0,1,.456,1.7v3.591l-2.064.142V83.339a1.247,1.247,0,0,0-.15-.7.577.577,0,0,0-.546-.185,1.117,1.117,0,0,0-.5.151,2.764,2.764,0,0,0-.456.358v3.827Z"/><path d="M187.188,88.849l-.493-1.108A3.115,3.115,0,0,0,187.9,87a1.236,1.236,0,0,0,.367-.9l-.1.007a1.69,1.69,0,0,1-.54-.051,1.253,1.253,0,0,1-.462-.225,1.159,1.159,0,0,1-.317-.391,1.194,1.194,0,0,1-.121-.552,1.271,1.271,0,0,1,.432-.985,1.721,1.721,0,0,1,1.068-.434,1.32,1.32,0,0,1,1.23.493,2.6,2.6,0,0,1,.414,1.585,3.109,3.109,0,0,1-.672,2A4.288,4.288,0,0,1,187.188,88.849Z"/><path d="M203.267,85.343a4.026,4.026,0,0,1-1.4-.142,3.03,3.03,0,0,1-1.177-.64,3.2,3.2,0,0,1-.815-1.153,4.173,4.173,0,0,1-.307-1.67,4.619,4.619,0,0,1,.3-1.712,3.949,3.949,0,0,1,.816-1.3,3.856,3.856,0,0,1,1.211-.855,4.306,4.306,0,0,1,1.489-.368,3,3,0,0,1,1.368.2,3.915,3.915,0,0,1,1.032.61l-1.128,1.307a2.077,2.077,0,0,0-.576-.321,1.706,1.706,0,0,0-.7-.081,1.587,1.587,0,0,0-.672.2,1.726,1.726,0,0,0-.54.466,2.248,2.248,0,0,0-.361.71,3.09,3.09,0,0,0-.131.927,2.262,2.262,0,0,0,.5,1.6,1.657,1.657,0,0,0,2,.265,2.456,2.456,0,0,0,.57-.475l1.128,1.131a3.471,3.471,0,0,1-1.158.915A3.932,3.932,0,0,1,203.267,85.343Z"/><path d="M208.787,87.354l-.492-1.1a3.121,3.121,0,0,0,1.206-.739,1.226,1.226,0,0,0,.366-.9l-.1.007a1.668,1.668,0,0,1-.541-.051,1.245,1.245,0,0,1-.461-.223,1.148,1.148,0,0,1-.318-.39,1.194,1.194,0,0,1-.12-.549,1.266,1.266,0,0,1,.432-.982,1.723,1.723,0,0,1,1.068-.432,1.32,1.32,0,0,1,1.23.491,2.574,2.574,0,0,1,.414,1.578,3.087,3.087,0,0,1-.672,1.989A4.293,4.293,0,0,1,208.787,87.354Z"/><path d="M221.268,83.967V76.441l2.9-.2a5.881,5.881,0,0,1,1.194.036,2.67,2.67,0,0,1,1,.325,1.822,1.822,0,0,1,.678.7,2.358,2.358,0,0,1,.252,1.157,2.547,2.547,0,0,1-.342,1.365,2.624,2.624,0,0,1-.918.9l1.693,2.8-2.3.158-1.344-2.43-.744.05v2.524Zm2.063-4.239.7-.048q1.248-.084,1.248-1.08a.659.659,0,0,0-.318-.649,1.811,1.811,0,0,0-.93-.122l-.7.047Z"/><path d="M229.043,85.19V84.149l2.088-.144V76.146l-2.088.141v-1.04L232.69,75v9.936Z"/><path d="M237.646,84.919l-1.139-.775a9.514,9.514,0,0,0,.87-1.077,6.2,6.2,0,0,0,.6-1.086,5.352,5.352,0,0,0,.341-1.143,6.888,6.888,0,0,0,.109-1.259,6.663,6.663,0,0,0-.109-1.245,4.783,4.783,0,0,0-.341-1.1,5.226,5.226,0,0,0-.6-1,7.743,7.743,0,0,0-.87-.958l1.139-.931a7.146,7.146,0,0,1,1.819,2.227,6.154,6.154,0,0,1,.666,2.891,6.718,6.718,0,0,1-.666,2.982A8.694,8.694,0,0,1,237.646,84.919Z"/><path d="M57.985,109.649a2.347,2.347,0,0,1-1.038-.14,1.956,1.956,0,0,1-.785-.565,2.712,2.712,0,0,1-.505-.948,4.308,4.308,0,0,1-.179-1.3,3.929,3.929,0,0,1,.215-1.329,3.433,3.433,0,0,1,.565-1.024,2.672,2.672,0,0,1,.8-.671,2.236,2.236,0,0,1,.923-.279,1.812,1.812,0,0,1,.8.1,1.916,1.916,0,0,1,.6.4l.048,0-.1-.853v-1.932l2.063-.144v8.3l-1.679.12-.144-.538-.049,0a2.784,2.784,0,0,1-.725.552A2.051,2.051,0,0,1,57.985,109.649Zm.54-1.708a1.14,1.14,0,0,0,.451-.122,1.019,1.019,0,0,0,.366-.366v-2.194a.873.873,0,0,0-.378-.2,1.385,1.385,0,0,0-.414-.03.946.946,0,0,0-.672.37,1.755,1.755,0,0,0-.288,1.129,1.908,1.908,0,0,0,.246,1.129A.748.748,0,0,0,58.525,107.941Z"/><path d="M66.133,109.068a4,4,0,0,1-1.326-.114,2.807,2.807,0,0,1-1.068-.531,2.555,2.555,0,0,1-.708-.933,3.1,3.1,0,0,1-.259-1.3,3.272,3.272,0,0,1,.967-2.363,3.394,3.394,0,0,1,1.008-.685,3.432,3.432,0,0,1,1.17-.3,3.069,3.069,0,0,1,1.242.138,2.319,2.319,0,0,1,.894.557,2.354,2.354,0,0,1,.54.879,3.31,3.31,0,0,1,.179,1.106,4.16,4.16,0,0,1-.029.515c-.02.161-.038.276-.055.349l-3.851.273a1.019,1.019,0,0,0,.528.69,2.047,2.047,0,0,0,1.056.151,2.893,2.893,0,0,0,.7-.139,5.074,5.074,0,0,0,.738-.321l.672,1.168a4.565,4.565,0,0,1-1.188.6A4.9,4.9,0,0,1,66.133,109.068Zm-.144-4.684a1.185,1.185,0,0,0-1.14.939l2.1-.149A.82.82,0,0,0,65.989,104.384Z"/><path d="M72.854,108.588a4.808,4.808,0,0,1-1.567-.149,5.3,5.3,0,0,1-1.362-.546l.864-1.324a4.646,4.646,0,0,0,1.176.417,4.285,4.285,0,0,0,1.176.083,1.3,1.3,0,0,0,.57-.136.316.316,0,0,0,.174-.273.238.238,0,0,0-.066-.175.494.494,0,0,0-.215-.109,2.968,2.968,0,0,0-.409-.078c-.173-.024-.382-.054-.63-.093a5.255,5.255,0,0,1-1.05-.24,2.4,2.4,0,0,1-.7-.374,1.29,1.29,0,0,1-.39-.5,1.6,1.6,0,0,1-.12-.629,1.658,1.658,0,0,1,.2-.811,2.008,2.008,0,0,1,.576-.648,3.158,3.158,0,0,1,.9-.45,4.82,4.82,0,0,1,1.176-.219,3.931,3.931,0,0,1,1.518.16,6.867,6.867,0,0,1,1.146.485l-.912,1.277a3.753,3.753,0,0,0-.972-.342,3.647,3.647,0,0,0-.972-.068,1.1,1.1,0,0,0-.456.116.29.29,0,0,0-.168.262.186.186,0,0,0,.066.15.607.607,0,0,0,.21.1,2.505,2.505,0,0,0,.384.075c.16.021.356.05.588.089a7.55,7.55,0,0,1,1.122.254,2.313,2.313,0,0,1,.72.359,1.162,1.162,0,0,1,.378.5,1.828,1.828,0,0,1,.108.653,1.682,1.682,0,0,1-.2.793,2.069,2.069,0,0,1-.588.672,3.3,3.3,0,0,1-.96.485A5.468,5.468,0,0,1,72.854,108.588Z"/><path d="M79.741,107.955v-4.35l-2.28.161v-1.594l4.345-.3v5.941Zm.96-6.819a1.3,1.3,0,0,1-.948-.26,1.014,1.014,0,0,1-.372-.835,1.21,1.21,0,0,1,.372-.9,1.452,1.452,0,0,1,.948-.405,1.278,1.278,0,0,1,.948.273,1.049,1.049,0,0,1,.372.848,1.17,1.17,0,0,1-.372.886A1.476,1.476,0,0,1,80.7,101.136Z"/><path d="M87,109.882a6.552,6.552,0,0,1-1.05,0,2.935,2.935,0,0,1-.857-.194,1.39,1.39,0,0,1-.582-.415,1.034,1.034,0,0,1-.21-.667,1.417,1.417,0,0,1,.912-1.206v-.047a1.477,1.477,0,0,1-.427-.374.964.964,0,0,1-.174-.605,1.134,1.134,0,0,1,.2-.62,2.19,2.19,0,0,1,.516-.547v-.047a1.586,1.586,0,0,1-.582-.565,1.669,1.669,0,0,1-.233-.9,2.076,2.076,0,0,1,.8-1.69,2.886,2.886,0,0,1,.846-.457,3.907,3.907,0,0,1,1-.2,3.364,3.364,0,0,1,1.019.071l2.424-.17v1.471l-1.08.076a1.433,1.433,0,0,1,.114.264,1.05,1.05,0,0,1,.054.341,2.018,2.018,0,0,1-.191.908,1.841,1.841,0,0,1-.534.65,2.622,2.622,0,0,1-.8.407,4.345,4.345,0,0,1-1,.183,3.655,3.655,0,0,1-.757-.029.736.736,0,0,0-.149.159.375.375,0,0,0-.042.2.258.258,0,0,0,.216.264,2.327,2.327,0,0,0,.719.025l1.021-.072a3.712,3.712,0,0,1,1.847.23,1.152,1.152,0,0,1,.649,1.135,1.68,1.68,0,0,1-.259.9,2.445,2.445,0,0,1-.737.735,4.348,4.348,0,0,1-1.158.522A7.078,7.078,0,0,1,87,109.882Zm.324-1.281a2.954,2.954,0,0,0,1-.22c.26-.118.391-.259.391-.425a.259.259,0,0,0-.24-.281,3.121,3.121,0,0,0-.7-.009l-.6.043c-.233.017-.416.024-.552.021a2.623,2.623,0,0,1-.36-.027,1.1,1.1,0,0,0-.229.218.384.384,0,0,0-.071.231q0,.283.372.389A2.983,2.983,0,0,0,87.325,108.6Zm-.155-4.262a.787.787,0,0,0,.516-.238.88.88,0,0,0,.215-.644.741.741,0,0,0-.215-.6.7.7,0,0,0-.516-.159.779.779,0,0,0-.511.232.854.854,0,0,0-.21.626.788.788,0,0,0,.21.614A.663.663,0,0,0,87.17,104.339Z"/><path d="M91.74,107.1v-5.93l1.681-.118.143.7.048,0a4.083,4.083,0,0,1,.853-.658,2.6,2.6,0,0,1,1.151-.336,1.532,1.532,0,0,1,1.452.556,2.87,2.87,0,0,1,.456,1.726v3.649l-2.063.148v-3.389a1.293,1.293,0,0,0-.15-.713.569.569,0,0,0-.546-.186,1.086,1.086,0,0,0-.5.153,2.744,2.744,0,0,0-.456.365v3.888Z"/><path d="M102.7,108.448a7.271,7.271,0,0,1-1.818-2.279,6.445,6.445,0,0,1-.666-2.966,7.042,7.042,0,0,1,.666-3.06,8.9,8.9,0,0,1,1.818-2.536l1.14.8a9.683,9.683,0,0,0-.87,1.1,6.293,6.293,0,0,0-.6,1.114,5.732,5.732,0,0,0-.343,1.172,7.449,7.449,0,0,0-.107,1.292,7.188,7.188,0,0,0,.107,1.276,5.1,5.1,0,0,0,.343,1.124,5.236,5.236,0,0,0,.6,1.028,7.87,7.87,0,0,0,.87.98Z"/><path d="M108.854,106.02a4.834,4.834,0,0,1-1.567-.148,5.339,5.339,0,0,1-1.362-.541l.864-1.316a4.673,4.673,0,0,0,1.176.413,4.323,4.323,0,0,0,1.176.082,1.314,1.314,0,0,0,.57-.135.314.314,0,0,0,.174-.272.234.234,0,0,0-.066-.173.505.505,0,0,0-.215-.109,3.153,3.153,0,0,0-.409-.077c-.173-.023-.382-.053-.63-.092a5.266,5.266,0,0,1-1.05-.238,2.392,2.392,0,0,1-.7-.371,1.286,1.286,0,0,1-.39-.5,1.579,1.579,0,0,1-.12-.625,1.639,1.639,0,0,1,.2-.806,2,2,0,0,1,.576-.644,3.182,3.182,0,0,1,.9-.448,4.918,4.918,0,0,1,1.176-.218,3.951,3.951,0,0,1,1.518.159,6.877,6.877,0,0,1,1.146.481l-.912,1.269a3.745,3.745,0,0,0-.972-.339,3.646,3.646,0,0,0-.972-.067,1.085,1.085,0,0,0-.456.115.288.288,0,0,0-.168.26.182.182,0,0,0,.066.149.589.589,0,0,0,.21.1,2.522,2.522,0,0,0,.384.074c.16.02.356.05.588.088a7.7,7.7,0,0,1,1.122.252,2.312,2.312,0,0,1,.72.357,1.146,1.146,0,0,1,.378.493,1.8,1.8,0,0,1,.108.648,1.663,1.663,0,0,1-.2.788,2.047,2.047,0,0,1-.588.668,3.292,3.292,0,0,1-.96.482A5.517,5.517,0,0,1,108.854,106.02Z"/><path d="M116.532,105.472a4.028,4.028,0,0,1-1.326-.112,2.8,2.8,0,0,1-1.067-.525,2.526,2.526,0,0,1-.708-.925,3.043,3.043,0,0,1-.259-1.293,3.229,3.229,0,0,1,.967-2.341,3.4,3.4,0,0,1,1.007-.679,3.453,3.453,0,0,1,1.17-.295,3.094,3.094,0,0,1,1.243.137,2.262,2.262,0,0,1,1.433,1.421,3.256,3.256,0,0,1,.18,1.1,4.307,4.307,0,0,1-.029.511c-.021.158-.039.273-.055.345l-3.852.273a1.009,1.009,0,0,0,.529.683,2.045,2.045,0,0,0,1.055.149,2.883,2.883,0,0,0,.7-.138,5.321,5.321,0,0,0,.739-.318l.672,1.156a4.591,4.591,0,0,1-1.189.6A4.927,4.927,0,0,1,116.532,105.472Zm-.143-4.641a1.184,1.184,0,0,0-1.141.931l2.1-.148A.818.818,0,0,0,116.389,100.831Z"/><path d="M124.465,104.906a2.623,2.623,0,0,1-1.051-.113,1.9,1.9,0,0,1-.756-.471,1.968,1.968,0,0,1-.456-.776,3.37,3.37,0,0,1-.149-1.038v-4.2l-1.8.126v-1.58l3.863-.27v5.847a.915.915,0,0,0,.084.419.714.714,0,0,0,.21.25.705.705,0,0,0,.288.121,1.279,1.279,0,0,0,.319.019,2.92,2.92,0,0,0,.864-.227l.443,1.454c-.16.058-.309.112-.45.161a3.918,3.918,0,0,1-.426.124c-.143.035-.3.065-.456.092S124.656,104.892,124.465,104.906Z"/><path d="M129.4,104.413V100.1l-1.536.109V98.7l1.536-.178V98.5a2.86,2.86,0,0,1,.157-.947,2.128,2.128,0,0,1,.5-.806,2.684,2.684,0,0,1,.864-.585,3.791,3.791,0,0,1,1.266-.282,4.746,4.746,0,0,1,1.013.029c.317.044.595.094.834.148l-.383,1.509a3.213,3.213,0,0,0-.564-.113,3.376,3.376,0,0,0-.637-.014,1.269,1.269,0,0,0-.737.239.837.837,0,0,0-.246.677v.024l1.895-.134v1.578l-1.895.134v4.308Z"/><path d="M136.848,106l-1.14-.788a9.656,9.656,0,0,0,.87-1.1,6.405,6.405,0,0,0,.6-1.107,5.623,5.623,0,0,0,.342-1.165,7.265,7.265,0,0,0,.108-1.284,7,7,0,0,0-.108-1.268,5.007,5.007,0,0,0-.342-1.117,5.355,5.355,0,0,0-.6-1.022,7.841,7.841,0,0,0-.87-.975l1.14-.949a7.245,7.245,0,0,1,1.818,2.266,6.36,6.36,0,0,1,.666,2.945,6.956,6.956,0,0,1-.666,3.039A8.881,8.881,0,0,1,136.848,106Z"/><path d="M56.222,123.956v-5.968l1.692-.123.155,1.253.048,0a3.078,3.078,0,0,1,1.045-1.15,2.81,2.81,0,0,1,1.3-.428,2.491,2.491,0,0,1,.653.017,3.871,3.871,0,0,1,.487.137l-.409,1.748a4.569,4.569,0,0,0-.5-.089,2.958,2.958,0,0,0-.545,0,2.077,2.077,0,0,0-1.02.379,2.5,2.5,0,0,0-.841,1.118V123.8Z"/><path d="M66.133,123.366a4,4,0,0,1-1.326-.111,2.788,2.788,0,0,1-1.068-.528,2.535,2.535,0,0,1-.708-.932,3.091,3.091,0,0,1-.259-1.3,3.281,3.281,0,0,1,.967-2.365,3.513,3.513,0,0,1,2.178-.987,3.071,3.071,0,0,1,1.242.135,2.315,2.315,0,0,1,.894.555,2.346,2.346,0,0,1,.54.877,3.31,3.31,0,0,1,.179,1.106,4.16,4.16,0,0,1-.029.515c-.02.161-.038.276-.055.349l-3.851.283a1.019,1.019,0,0,0,.528.689,2.05,2.05,0,0,0,1.056.148,2.9,2.9,0,0,0,.7-.141,5.1,5.1,0,0,0,.738-.323l.672,1.166a4.607,4.607,0,0,1-1.188.606A4.914,4.914,0,0,1,66.133,123.366Zm-.144-4.684a1.189,1.189,0,0,0-1.14.942l2.1-.154A.818.818,0,0,0,65.989,118.682Z"/><path d="M71.965,122.934a2.1,2.1,0,0,1-.828-.087,1.682,1.682,0,0,1-.612-.354,1.453,1.453,0,0,1-.378-.555,2,2,0,0,1,.084-1.589,1.953,1.953,0,0,1,.66-.7,4.208,4.208,0,0,1,1.171-.508,12.1,12.1,0,0,1,1.751-.342.579.579,0,0,0-.354-.445,1.747,1.747,0,0,0-.8-.09,2.757,2.757,0,0,0-.786.183,8.428,8.428,0,0,0-.942.444l-.72-1.281a7.128,7.128,0,0,1,1.392-.686,5.521,5.521,0,0,1,1.464-.308,3.86,3.86,0,0,1,1.158.076,2.069,2.069,0,0,1,.888.436,2,2,0,0,1,.564.827,3.431,3.431,0,0,1,.2,1.24V122.5l-1.68.124-.144-.608-.048,0a5.489,5.489,0,0,1-.96.612A2.851,2.851,0,0,1,71.965,122.934Zm.672-1.62a1.58,1.58,0,0,0,.648-.184,3.5,3.5,0,0,0,.528-.355v-.761a6.951,6.951,0,0,0-.906.156,2.173,2.173,0,0,0-.558.213.773.773,0,0,0-.282.259.58.58,0,0,0-.078.291Q71.989,121.362,72.637,121.314Z"/><path d="M79.585,122.371a2.358,2.358,0,0,1-1.038-.137,1.938,1.938,0,0,1-.785-.56,2.687,2.687,0,0,1-.5-.943,4.277,4.277,0,0,1-.18-1.29,3.883,3.883,0,0,1,.216-1.324,3.449,3.449,0,0,1,.564-1.021,2.684,2.684,0,0,1,.8-.671,2.274,2.274,0,0,1,.924-.281,1.816,1.816,0,0,1,.805.095,1.9,1.9,0,0,1,.6.4l.048,0-.1-.849v-1.924l2.064-.15v8.267l-1.68.124-.143-.536-.049,0a2.8,2.8,0,0,1-.726.553A2.065,2.065,0,0,1,79.585,122.371Zm.54-1.7a1.153,1.153,0,0,0,.45-.123,1,1,0,0,0,.366-.365v-2.186a.878.878,0,0,0-.378-.2,1.414,1.414,0,0,0-.414-.029.951.951,0,0,0-.671.371,1.738,1.738,0,0,0-.289,1.125,1.883,1.883,0,0,0,.247,1.124A.748.748,0,0,0,80.125,120.668Z"/><path d="M84.493,123.932v-1.5l5.761-.426V123.5Z"/><path d="M91.74,123.418V115.4l1.681-.123.143.535.048,0a3.284,3.284,0,0,1,.786-.555,2.353,2.353,0,0,1,.9-.254,2.155,2.155,0,0,1,.983.142,1.875,1.875,0,0,1,.75.549,2.624,2.624,0,0,1,.475.913,4.214,4.214,0,0,1,.168,1.232,4.1,4.1,0,0,1-.216,1.378,3.484,3.484,0,0,1-.57,1.043,2.669,2.669,0,0,1-.817.682,2.35,2.35,0,0,1-.954.284,1.748,1.748,0,0,1-1.355-.492l-.048,0,.1.894v1.636Zm2.881-3.818a.871.871,0,0,0,.359-.1.809.809,0,0,0,.294-.276,1.584,1.584,0,0,0,.2-.483,2.921,2.921,0,0,0,.078-.723,1.826,1.826,0,0,0-.222-1.038.7.7,0,0,0-.666-.271,1.082,1.082,0,0,0-.444.127,1.521,1.521,0,0,0-.42.362v2.182a.971.971,0,0,0,.4.2A1.49,1.49,0,0,0,94.621,119.6Z"/><path d="M100.765,120.805a2.116,2.116,0,0,1-.828-.086,1.707,1.707,0,0,1-.612-.352,1.453,1.453,0,0,1-.378-.553,1.976,1.976,0,0,1,.084-1.581,1.957,1.957,0,0,1,.659-.694,4.266,4.266,0,0,1,1.171-.506,12.3,12.3,0,0,1,1.752-.341.574.574,0,0,0-.354-.442,1.735,1.735,0,0,0-.8-.089,2.747,2.747,0,0,0-.786.182,8.284,8.284,0,0,0-.943.442l-.719-1.274a7.168,7.168,0,0,1,1.392-.683,5.559,5.559,0,0,1,1.464-.307,3.885,3.885,0,0,1,1.157.075,2.086,2.086,0,0,1,.889.433,2,2,0,0,1,.564.823,3.416,3.416,0,0,1,.2,1.233v3.289L103,120.5l-.144-.605-.048,0a5.453,5.453,0,0,1-.96.609A2.869,2.869,0,0,1,100.765,120.805Zm.672-1.612a1.58,1.58,0,0,0,.648-.184,3.544,3.544,0,0,0,.528-.353V117.9a7.116,7.116,0,0,0-.906.155,2.2,2.2,0,0,0-.559.213.774.774,0,0,0-.281.257.566.566,0,0,0-.078.29C100.789,119.1,101.005,119.224,101.437,119.193Z"/><path d="M106.141,122.348v-8l1.68-.123.144.534.048,0a3.261,3.261,0,0,1,.786-.554,2.352,2.352,0,0,1,.894-.253,2.157,2.157,0,0,1,.984.141,1.87,1.87,0,0,1,.75.547,2.621,2.621,0,0,1,.474.911,4.16,4.16,0,0,1,.168,1.229,4.111,4.111,0,0,1-.215,1.374,3.469,3.469,0,0,1-.571,1.04,2.661,2.661,0,0,1-.816.681,2.369,2.369,0,0,1-.954.283,1.754,1.754,0,0,1-1.356-.491l-.048,0,.1.892v1.631Zm2.88-3.808a.906.906,0,0,0,.36-.1.822.822,0,0,0,.294-.275,1.589,1.589,0,0,0,.2-.482,2.868,2.868,0,0,0,.078-.721,1.81,1.81,0,0,0-.222-1.036.7.7,0,0,0-.666-.27,1.1,1.1,0,0,0-.444.127,1.53,1.53,0,0,0-.42.361v2.176a.962.962,0,0,0,.4.195A1.456,1.456,0,0,0,109.021,118.54Z"/><path d="M116.532,119.639a4.029,4.029,0,0,1-1.326-.109,2.8,2.8,0,0,1-1.067-.522,2.519,2.519,0,0,1-.708-.923,3.041,3.041,0,0,1-.259-1.292,3.239,3.239,0,0,1,.967-2.344,3.412,3.412,0,0,1,1.007-.682,3.482,3.482,0,0,1,1.17-.3,3.1,3.1,0,0,1,1.243.134,2.25,2.25,0,0,1,1.433,1.417,3.256,3.256,0,0,1,.18,1.1,4.307,4.307,0,0,1-.029.511c-.021.159-.039.273-.055.345l-3.852.283a1,1,0,0,0,.529.682,2.048,2.048,0,0,0,1.055.146,2.839,2.839,0,0,0,.7-.14,5.23,5.23,0,0,0,.739-.32l.672,1.155a4.6,4.6,0,0,1-1.189.6A4.945,4.945,0,0,1,116.532,119.639Zm-.143-4.64a1.187,1.187,0,0,0-1.141.933l2.1-.154A.814.814,0,0,0,116.389,115Z"/><path d="M121.021,119.166v-5.9l1.692-.123.155,1.239.048,0a3.057,3.057,0,0,1,1.045-1.137,2.853,2.853,0,0,1,1.3-.425,2.536,2.536,0,0,1,.653.017,4.012,4.012,0,0,1,.486.135l-.408,1.728a4.8,4.8,0,0,0-.5-.088,2.979,2.979,0,0,0-.546,0,2.1,2.1,0,0,0-1.019.375,2.481,2.481,0,0,0-.841,1.106v2.923Z"/><path d="M131.5,120.511a7.219,7.219,0,0,1-1.818-2.262,6.357,6.357,0,0,1-.666-2.948,6.969,6.969,0,0,1,.666-3.046,8.889,8.889,0,0,1,1.818-2.528l1.14.788a9.663,9.663,0,0,0-.87,1.1,6.2,6.2,0,0,0-.6,1.11,5.626,5.626,0,0,0-.343,1.167,7.375,7.375,0,0,0-.107,1.285,7.1,7.1,0,0,0,.107,1.269,4.977,4.977,0,0,0,.343,1.117,5.138,5.138,0,0,0,.6,1.021,7.753,7.753,0,0,0,.87.972Z"/><path d="M137.652,118.077a4.824,4.824,0,0,1-1.566-.143,5.286,5.286,0,0,1-1.362-.534l.864-1.311a4.7,4.7,0,0,0,1.176.408,4.354,4.354,0,0,0,1.175.078,1.342,1.342,0,0,0,.571-.136.315.315,0,0,0,.174-.271.234.234,0,0,0-.066-.173.5.5,0,0,0-.216-.107,2.841,2.841,0,0,0-.408-.075q-.26-.034-.63-.09a5.316,5.316,0,0,1-1.051-.234,2.4,2.4,0,0,1-.695-.367,1.282,1.282,0,0,1-.39-.494,1.546,1.546,0,0,1-.121-.621,1.626,1.626,0,0,1,.205-.8,2,2,0,0,1,.576-.643,3.207,3.207,0,0,1,.9-.447,4.914,4.914,0,0,1,1.176-.221,3.967,3.967,0,0,1,1.517.154,6.788,6.788,0,0,1,1.147.475l-.912,1.265a3.732,3.732,0,0,0-.972-.334,3.645,3.645,0,0,0-.973-.064,1.124,1.124,0,0,0-.456.115.29.29,0,0,0-.168.26.181.181,0,0,0,.067.148.591.591,0,0,0,.21.095,2.4,2.4,0,0,0,.384.073c.16.02.356.048.588.086a7.638,7.638,0,0,1,1.122.247,2.323,2.323,0,0,1,.72.353,1.135,1.135,0,0,1,.378.489,1.783,1.783,0,0,1,.108.645,1.643,1.643,0,0,1-.2.784,2.036,2.036,0,0,1-.587.666,3.331,3.331,0,0,1-.96.483A5.561,5.561,0,0,1,137.652,118.077Z"/><path d="M145.332,117.509a4.055,4.055,0,0,1-1.326-.107,2.8,2.8,0,0,1-1.068-.52,2.508,2.508,0,0,1-.708-.917,3.027,3.027,0,0,1-.258-1.285,3.2,3.2,0,0,1,.966-2.332,3.4,3.4,0,0,1,1.008-.679,3.478,3.478,0,0,1,1.17-.3,3.091,3.091,0,0,1,1.242.132,2.243,2.243,0,0,1,1.434,1.409,3.221,3.221,0,0,1,.18,1.09,4.048,4.048,0,0,1-.03.508c-.02.158-.038.272-.054.344l-3.852.283a1,1,0,0,0,.528.678,2.076,2.076,0,0,0,1.056.145,2.943,2.943,0,0,0,.7-.14,5.216,5.216,0,0,0,.739-.319l.671,1.149a4.6,4.6,0,0,1-1.188.6A4.993,4.993,0,0,1,145.332,117.509Zm-.144-4.616a1.188,1.188,0,0,0-1.14.93l2.1-.154A.814.814,0,0,0,145.188,112.893Z"/><path d="M153.265,116.923a2.644,2.644,0,0,1-1.051-.11,1.906,1.906,0,0,1-.756-.466,1.944,1.944,0,0,1-.456-.77,3.312,3.312,0,0,1-.149-1.033v-4.176l-1.8.131v-1.572l3.863-.28v5.815a.89.89,0,0,0,.084.417.679.679,0,0,0,.5.368,1.27,1.27,0,0,0,.318.018,2.962,2.962,0,0,0,.865-.228l.443,1.444-.45.162a4.161,4.161,0,0,1-.426.125q-.216.051-.456.093C153.632,116.888,153.456,116.909,153.265,116.923Z"/><path d="M158.2,116.418v-4.287l-1.536.112v-1.5l1.536-.183v-.023a2.83,2.83,0,0,1,.157-.942,2.128,2.128,0,0,1,.5-.8,2.682,2.682,0,0,1,.864-.584,3.806,3.806,0,0,1,1.265-.285,4.825,4.825,0,0,1,1.014.027c.317.042.595.091.834.144l-.384,1.5a3.2,3.2,0,0,0-.563-.112,3.378,3.378,0,0,0-.637-.012,1.276,1.276,0,0,0-.737.241.83.83,0,0,0-.246.673v.024l1.9-.138v1.569l-1.9.139v4.285Z"/><path d="M165.647,117.973l-1.139-.781a9.635,9.635,0,0,0,.87-1.095,6.3,6.3,0,0,0,.6-1.1,5.5,5.5,0,0,0,.341-1.16,7.078,7.078,0,0,0,.109-1.276,6.816,6.816,0,0,0-.109-1.261,4.881,4.881,0,0,0-.341-1.11,5.244,5.244,0,0,0-.6-1.015,7.724,7.724,0,0,0-.87-.967l1.139-.948a7.193,7.193,0,0,1,1.819,2.248,6.292,6.292,0,0,1,.666,2.928,6.9,6.9,0,0,1-.666,3.025A8.877,8.877,0,0,1,165.647,117.973Z"/></svg>